<?xml version="1.0" encoding="utf-8"?>
<!-- Generator: Adobe Illustrator 19.0.1, SVG Export Plug-In . SVG Version: 6.00 Build 0)  -->
<svg version="1.1" id="Layer_1" xmlns="http://www.w3.org/2000/svg" xmlns:xlink="http://www.w3.org/1999/xlink" x="0px" y="0px"
	 viewBox="0 0 232 153" style="enable-background:new 0 0 232 153;" xml:space="preserve">
<style type="text/css">
	.st0{fill:#010101;}
</style>
<path class="st0" d="M132.6,106.1c0,0-2.8,1.3-3.9,2.8c0,0-0.8,0.6-0.7,1.6c0.1,1,0.3,1.3-0.1,2c-0.4,0.7-0.2,0.6-0.6,0.9
	c-0.4,0.3-0.6,0.3-0.9,0.3c-0.4,0-0.7,0-1,0.4c-0.4,0-0.6,0.2-0.4,0.3c0.3,0,0.5,0,0.5,0s0.9,0.7,1.4,0.7c-0.2,0.5-0.9,1.2-1.4,1.8
	c-0.5,0.5-0.3,1.4-0.4,2.5c-0.1,1.1-0.2,3.2,0.6,4.5c0.3-0.2,0.2-0.4,0.3-0.5c0.1-0.1,0.3-0.4,0.3-0.6c0-0.1,0.2,0,0.2-0.3
	c0-0.3,0.2-0.2,0.3-0.5c0-0.3,0.1-0.1,0.2-0.6c0.1-0.4,0.5-1.7,0.9-2.4c0.4-0.7,1.4-2.1,1.7-2.7c0.3-0.5,0.5-0.8,0.5-0.8l1.1,0.1
	c0,0,1.6,0.9,1.9,0.1c0.2-0.8,0.6-1.3,0.1-1.3c-0.5,0-1.9-0.1-1.9-0.1s-0.6-0.2-0.6-0.3c0-0.1,0-0.8,0.3-1.8c0.3-1,0.2-2.2,0.2-2.2
	s0.6-0.8,0.7-1.3c0.2-0.3,0.2-0.6,0.2-0.6s0.2-0.4,0.2-0.6c0-0.2,0.1-0.3,0.1-0.4c0-0.1,0.2-0.1,0.1-0.3
	C132.6,106.5,132.6,106.1,132.6,106.1"/>
<path class="st0" d="M0,78.3C0,78.3,0,78.3,0,78.3c0.1,0,0.2-0.1,0.2-0.2c0.3-0.3,0.7-0.4,0.9-0.4c0,0,0,0,0,0c0.2,0,0.2,0,0.1,0.1
	c0,0,0,0,0,0.1c0,0,0.1,0,0.1,0c0.1,0,0.1,0,0,0.1c0,0.1,0,0.1-0.1,0.1c0,0,0,0.1,0,0.1c-0.1,0.1-0.1,0.1,0.1,0.1c0.1,0,0.1,0,0,0.1
	c0.3,0,0.8,0.1,0.5,0.2c-0.1,0-0.2,0.1-0.4,0.1c0.2,0.1,0.4,0.2,0.7,0.4c1.4,0.8,2.7,1.5,2.7,1.5s0.8-1.3,0.9-2
	c0.1-0.7,1.7-1.2,2.8-1.5c1.1-0.2,1.8-0.3,2.5-0.5c0.7-0.2,2.7-0.9,2.6-0.7c-0.1,0.2-2.5,1-2.5,1s4.3-0.6,3.8-0.3
	c-0.5,0.3-1.8,0.4-1.4,0.4c0.4,0.1,2.1,0,1.5,0.2c-0.5,0.2-1.5,0.1-1.3,0.1c0.2,0.1,1.8,0.2,1.3,0.3c-0.5,0.1-0.9,0-0.9,0
	s0.2,0.2-0.3,0.2c-0.5,0-0.8,0-0.8,0s0.2,0.3-0.5,0.2c0.1,0.2-0.4,0.4-0.7,0.3c0,0.1-0.1,0.3-0.7,0.3c0,0.2-0.1,0.2-0.5,0.2
	c0.3,0.2-0.4,0.4-0.7,0.3c-0.2,0.4,0,0.3-0.2,0.3c-0.2,0-0.1,0.3-0.2,0.3c-0.1,0,0,0.2-0.2,0.2c-0.2,0-0.2,0.3-0.2,0.3
	s-0.1,0.3-0.2,0.3c-0.1,0,0,0.3-0.1,0.3c-0.2,0,0,0.2-0.2,0.3c-0.2,0,0,0.3-0.1,0.3c-0.2,0,0.2,0.2-0.2,0.3
	c-0.4,0.1-0.3,0.1-0.3,0.3c0,0.2,0,0.3-0.2,0.4c-0.2,0-0.4,0.1-0.4,0.2c0.1,0.2,2.2,1,2.7,1.1c-0.3,0.2-0.5,0.2-0.5,0.2
	s0.3,0.2-0.6,0.1c-0.9,0-1.2-0.3-1.2-0.3s-0.1,0.2-0.4,0.2c-0.4,0-0.5-0.1-0.5-0.1s0.1,0.5-1.6,0.3c-1.7-0.2-1.6-0.6-2-0.7
	c-0.5-0.1-1.3-0.4-1.5-0.7c-0.1,0-0.2,0.2-0.2,0.2s-0.3-0.3,0.1-0.6C1.7,82,1.7,82,2,81.9c0.3-0.1,0.7-0.2,0.7-0.2s0.2-0.8-0.6-1.5
	c-0.8-0.7-1.5-1.1-1.7-1.3C0.1,78.7,0,78.3,0,78.3"/>
<path class="st0" d="M151.8,27.6c0,0-0.2,0.8-0.5,1.3c0,0.2,0.6-0.6,0.6-0.6s-0.2,0.5-0.4,0.7c-0.2,0.2-0.5,0.7-0.5,0.7
	s0.8-0.7,0.7-0.5c-0.1,0.2-1,1.2-1,1.2s0.9-0.6,0.7-0.3c-0.1,0.3-0.5,0.5-0.5,0.5s0.2,0,0,0.3c-0.2,0.2-0.5,0.6-0.5,0.6
	s0,0.3-0.2,0.5c-0.2,0.1-0.9,0.5-0.9,0.5s0.8-0.2,0.6,0c-0.2,0.2-0.9,0.5-0.9,0.5s0.5,0,0.4,0.1c-0.1,0.1-0.8,0.3-0.8,0.3
	s0.5,0.2,0.2,0.2c-0.3,0.1-0.7,0.2-0.7,0.2s0.8,0.5,0.3,0.6c0,0.2,0,0.6-0.3,0.4c0,0.2-0.1,0.6-0.3,0.4c0,0.3-0.3,0.2-0.3,0.2
	s0,0.5-0.1,0.4c-0.1-0.2-0.6-0.5-0.6-0.5s0.3,1.1,0.2,1c0,0.3,0,0.3-0.1,0.2c-0.1-0.2-0.4-0.4-0.4-0.4s0.3,1.1,0,0.9
	c-0.1,0.1-0.2,0.5-0.2,0.3c-0.1-0.2-0.2-0.1-0.2,0.1c0,0.2-0.1,0.3-0.1,0.2c-0.1,0.2-0.2,0.5-0.3,0.3c-0.1-0.2-0.2,0.5-0.3,0.3
	c-0.2,0.2-0.3,0.4-0.3,0.2c-0.1,0.1-0.2,0.4-0.3,0.3c0-0.1-0.2,0.2-0.3,0.2c-0.1-0.1,0,0.2,0,0.3c0,0.1-0.4,0.4-0.4,0.4l0.5,0.4
	c0,0,0.9-0.1,1.5-0.2c0.6-0.1,1-0.2,1.1-0.1c0.1,0.1,0.1,0.3-0.1,0.3c-0.1,0-0.2,0.1-0.2,0.1s0.5,0,0.5,0.1c0,0.1-0.3,0.3-0.3,0.3
	s0.4,0.1,0.3,0.2c-0.1,0.1-0.4,0.3-0.4,0.3s0.3,0.3,0.1,0.4c-0.2,0.1-0.4,0.2-0.4,0.2s0,0.2,0,0.3c0,0.2-0.2,0.4-0.4,0.3
	c-0.2-0.1-0.4-0.1-0.4-0.1c0,0-0.2,0,0,0.2c0.2,0.2,0.4,0.4,0.2,0.4c-0.2,0-0.2,0.1-0.2,0.1s0.3,0.4,0.4,0.5c0.1,0.1-0.2,0-0.2,0
	s0.1,0.2,0.1,0.3c-0.1,0.1-0.2-0.1-0.2-0.2c-0.1-0.1-0.1-0.1-0.1-0.1s-0.1,0.3-0.1,0.2c-0.1-0.1-0.2-0.4-0.2-0.4s0,0.2-0.1,0.1
	c-0.1-0.1-0.3-0.3-0.3-0.1c0,0.2-0.1,0-0.1-0.2c0-0.2-0.2-0.3-0.2,0c0,0.3,0.1,0.6-0.1,0.5c-0.1-0.1-0.1-0.1-0.2,0
	c-0.1,0.1-0.1,0.1-0.2,0c-0.1-0.1-0.2,0-0.2,0s0,0.1,0.2,0.3c0.2,0.2,0.3,0.4,0.1,0.3c-0.1-0.1-0.2-0.1-0.1,0.1
	c0.1,0.2,0.1,0.4,0,0.4c-0.1-0.1-0.1-0.1-0.1-0.1c0,0-0.1,0-0.3-0.4c-0.2-0.5-0.1-0.5-0.2-0.6c-0.1-0.1-0.3-0.2-0.3-0.2
	s0.1,0.4-0.1,0.3c-0.1-0.1-0.1-0.2-0.2-0.1c-0.1,0.1-0.2,0.1-0.1,0c0-0.1,0-0.1-0.3,0c-0.2,0.1-0.4,0.2-0.5,0c0-0.2,0-0.4,0-0.4
	s0,0.1-0.2,0.2c-0.2,0.1-0.2,0-0.3,0c0-0.1-0.2,0.2-0.2,0c0-0.1,0-0.2,0-0.2c-0.1,0-0.1,0-0.3,0c-0.2,0.1-0.2,0-0.1-0.2
	c0.1-0.2,0.4-0.6,0.7-0.9c0.3-0.3,0.3-0.4,0.3-0.4l-0.9-0.7c0,0-0.5,0.1-1,0.2c-0.5,0.1-1.1-0.1-1.1-0.1s-0.1,0.3-0.3,0.3
	c-0.2,0-0.2,0.1-0.3,0.1c-0.1-0.1-0.4,0.2-0.5,0.1c-0.1-0.1-0.4,0.1-0.5,0c-0.1-0.1-0.3,0.2-0.4,0.1c-0.1-0.1-0.5,0.1-0.6,0
	c-0.1-0.1-0.8,0.2-1.1,0.1c-0.2,0-0.7,0.1-0.8,0c-0.1-0.1-0.4,0.1-0.6,0c-0.1-0.1,0-0.1-0.2-0.1c-0.2,0-0.7,0-1.2,0
	c-0.5,0-0.9,0.2-1.7,0.1c-0.8-0.1-1.7-0.3-1-0.3c0.7-0.1,2.3,0,3-0.2c0.7-0.2,1.1-0.3,1.1-0.3s-0.1-0.3,0-0.2c0.1,0,0.5-0.1,0.7-0.1
	c0.2,0,1.1-0.3,1.8-0.4c0.7-0.1,1.6-0.3,2.1-0.4c0.5-0.1,1.3-0.1,1.4-0.1c0.1,0,0.1,0,0-0.1c0,0-0.3-0.4-0.2-0.7
	c-0.2-0.2-0.2-0.3-0.2-0.3s0.3,0,0.4,0c0.1-0.1,0.2-0.3,0.6-0.2c0.4,0.1,1,0.3,1.4,0.2c0.4-0.1,0.5-0.1,1-0.7
	c0.5-0.6,1.5-1.6,2.5-2.6c1-1,1.8-2.1,1.8-2.1l0,0.3c0,0,0.7-0.6,1.7-1.7c1-1.1,1.5-1.5,2-2.6C151.6,27.7,151.8,27.6,151.8,27.6"/>
<path class="st0" d="M113.2,144.2c0.1-0.1-0.3-0.3-0.3-0.3s0.1-0.1,0.3-0.1c0.1-0.1-0.3-0.2-0.3-0.2s0.2-0.2,0.2-0.2
	c0-0.1-0.6-0.1-0.6-0.1l0.2-0.3l-0.7,0.1l0.1-0.4c0,0-0.2,0.1-0.6,0.3c-0.4,0.2-0.8,0.4-1.2,0.4c-0.4,0-1.2-0.4-1.2-0.4
	s0-0.3,0.4-0.9c0.3-0.6,0.5-1.1,0.7-1.4c0.2-0.2,0.3-0.6,0.3-0.6s0.3-0.2,0.7-0.7c0.4-0.5,0.7-0.9,0.7-0.9l-0.8,0.2l0.6-0.6
	c0,0-0.3,0.1-1.6,0.8c-1.3,0.6-2.2,0.8-2.7,1c-0.5,0.1-1.2,0.9-1.2,1.1c0,0.2-0.2,0.9-0.4,1.5c-0.1,0.6-0.3,0.7-0.3,0.7l-1.1,0.7
	c0,0-0.1,0-0.9,0.2c-0.8,0.3-0.5,0.8-0.5,0.8s-0.6,0.2-1.1,0.6c-0.5,0.4-1.1,1.5-1.1,1.5l0.4-0.4c0,0-0.1,0.3-0.5,1.6
	c-0.4,1.3-0.3,1.8-0.3,2.6c0,0.8,0.2,1.1,0.2,1.1s0.2-0.1,0.2-0.5c0.3,0,0.2-0.7,0.2-0.7s0.2,0,0.3,0c0.1,0,0.1-0.4,0.1-0.4
	s0.3,0,0.3-0.3c0.1-0.3,0.6-0.7,1-1.3c0.4-0.6,1.2-1.2,1.4-1.5c0.2-0.3,0.4-0.5,0.6-0.6c0.2,0,0.4-0.5,0.4-0.5
	c1.6,0.1,2.8-0.4,3.4-0.7c0.5-0.3,1.2-0.8,1.2-0.8s0.4,0,0.8,0.2c0.4,0.2,0.3,0.1,0.6,0.1c0.3,0,0.6-0.1,1-0.2
	c0.4-0.1,0.2-0.1,0.2-0.1s-0.6-0.1-1-0.1c-0.4,0-0.7-0.2-0.7-0.2s0.3,0,0.7,0.1c0.5,0.1,0.9,0,1.1,0.1c0.2,0.1,0.3,0.1,0.5,0.1
	c0.2-0.1,0.1-0.2,0.1-0.2S113,144.3,113.2,144.2 M110.7,144.6c-0.3,0-0.5,0-0.5,0l0-0.2L110.7,144.6z"/>
<path class="st0" d="M116.6,58.9c0,0-1.8,0.2-2.1,0.9c-0.3,0.7-0.1,0.9-0.1,0.9s-0.2,0.4,0.1,0.8c0.3,0.5,0.3,0.7,0.8,1.1
	c0.5,0.3,1,0.4,1.2,0.5c0.3,0.1,0.4,0,0.4,0c0,0-0.1-0.2,0-0.2c0.1,0,0.2-0.2,0.2-0.2s0.1,0,0.1-0.2c0-0.2,0.2-0.2,0.2-0.3
	c0-0.1,0.1-0.3,0.2-0.5c0.1-0.1,0.2-0.3,0.2-0.4c0-0.1,0.1-0.2,0.1-0.2s0.5-0.4,0.8-0.8c0.4-0.4,0.8-0.7,0.8-0.7s0.7,0.3,1.8,0.2
	c1.1,0,1.3-0.1,1.5,0c0.2,0.1,0.4,0.3,1,0.3c0.6,0,1.1,0.1,1.1,0.1s0-0.2-0.6-0.3c-0.6-0.1-0.4-0.2-0.4-0.2s0.4-0.1,0.6,0.1
	c0.1,0.2,0.4,0.3,0.4,0.1c0-0.2-0.1-0.1,0.5-0.1c0.7,0,1.1,0.1,1.1,0.1l-0.8-0.7c0,0,0.9,0,1.2,0c-1.2-0.4-1.8-0.5-2.5-0.6
	c-0.7-0.1-1.8-0.9-1.8-0.9s-0.4-0.6-0.3-1.1c0-0.5,0.1-0.7-0.1-1.1c-0.2-0.4-0.5-0.9-0.5-0.9s0.2-0.2,0.2-0.9
	c0.2-0.4,0.2-1.2,0.2-1.5c0-0.2,0.1-1.1,0.1-1.4c0-0.3,0.1-1.1,0.1-1.3c0-0.2,0.3-0.8,0.3-0.9c0-0.1,0.5-0.9,0.4-1.1
	c0.1-0.2,0.6-0.7,0.4-1.1c0.3-0.6,0.4-1,0.3-1.1c0.3-0.8,0.3-1,0.2-1.2c0.2-0.5,0.4-1,0.2-1.1c0.3-0.6,0.4-0.9,0.3-1
	c0.1-0.2,0.6-0.8,0.3-0.7c-0.4,0.3-0.9,0.7-1.3,1.1c-0.4,0.4-1.6,1.7-1.9,2.2c-0.3,0.5-0.9,1.1-1.6,2c-0.7,0.9-0.8,1.1-1.2,2.3
	c-0.5,1.3-0.6,1-0.3,2.9c0.3,1.9,0.2,1.9,0.1,2.7c0,0.8,0,1.5-0.3,1.9c-0.3,0.4-0.4,0.3-0.8,0.3c-0.3,0-1.1-0.2-1.7,0.4l-0.6,0.6
	c0,0-0.8,0.5-1,0.8c-0.2,0.2-0.1,0.2-0.1,0.2s0.3,0.1,0.6-0.1c0.3-0.1,0.3-0.2,0.8-0.3c0.5-0.1,0.5,0,0.8,0.1
	C116.3,58.7,116.7,58.8,116.6,58.9"/>
<path class="st0" d="M129,137.6c0,0.1-0.3,0.5-0.5,0.1c-0.2-0.3-0.6-1.6-0.6-1.6s-0.5-0.7-0.7-0.9c-0.1-0.1-0.6-0.6-0.6-0.6
	s-0.3-0.1-0.4-0.4c-0.4,0-0.5-0.2-0.5-0.2s-0.6-0.3-0.7-0.6c-0.2,0-0.5-0.4-0.5-0.4s-0.4-0.2-0.5-0.3c-0.2-0.1-0.5-0.5-0.5-0.5
	s-0.7-0.4-0.8-0.6c-0.2-0.1-0.5-0.4-0.5-0.4s-0.5-0.3-0.6-0.4c-0.2-0.1-0.4-0.3-0.6-0.5c-0.2-0.1-0.4-0.3-0.5-0.4
	c-0.1-0.1-0.2-0.1-0.4-0.3c-0.2-0.1-1.4-0.8-1-0.7c0.4,0.1,1.6,1,1.1,0.5c-0.6-0.4-0.9-0.6-1.1-0.9c-0.3-0.2-0.6-0.6-0.3-0.5
	c0.3,0.1,1.1,1.1,0.8,0.7c-0.3-0.4-1-1.3-0.7-1.1c0.3,0.2,1,1.3,0.8,0.9c-0.2-0.4-0.4-1.1-0.2-0.8c0.2,0.3,0.3,0.7,0.6,1.1
	s0.7,1,0.6,0.7c-0.2-0.3-0.4-1-0.2-0.9c0.1,0.2,0.2,0.9,0.7,1.3c0.5,0.4,1.1,0.6,1.4,0.8c0.3,0.1,1.8,0.8,2.4,1.3l2.3,1.6
	c0,0,0.4-0.2,0.9,0.1c0.5,0.3,0.8,0.5,1,0.5c0.2,0,2.2,0.2,3.1,0.4c0.9,0.2,2.8,0.9,3.3,1c0.5,0.1,0.4,0.1,0.9-0.1
	c0.5-0.2,0.7-0.3,0.7-0.3s0,0.1-0.2,0.2c-0.2,0.1-0.8,0.4-0.8,0.4s0.4,0.2,1.3-0.1c0.9-0.3,1.2-0.3,1.1-0.2c0,0.1-1.2,0.4-1.2,0.4
	s2-0.2,1.8,0.1c-0.6,0-1,0.1-1,0.1s1,0.1,0.9,0.2c-0.4,0-2.1-0.2-2.1-0.2s1.6,0.3,1.5,0.4c-0.1,0.1-1.4-0.2-1.9-0.2
	c-0.5,0-1.6,0-2.7,0c-1.2,0-1.7-0.1-2.7-0.2c-1-0.1-2.2-0.2-2.2-0.2s-0.1,0.2,0,0.5c0.1,0.2,0.5,1,0.7,1.3c0.2,0.2,0.1,0.4,0,0.4
	c-0.1,0-0.2,0.2-0.4,0C129.1,137.7,129,137.6,129,137.6"/>
<path class="st0" d="M79.9,46.9c0,0,0,0.5-0.5,0.8c-0.5,0.3-0.7,0.5-0.7,0.5s0.4,0,0.6-0.1c0.2-0.1,0.6-0.3,0.6-0.3s0,0.4-0.3,0.7
	c-0.4,0.3-0.3,0.6-0.3,0.6s0.5-0.2,0.8-0.5c0.3-0.3,0.4-0.5,0.4-0.5s0,0.2-0.2,0.5c-0.2,0.3-0.2,0.9-0.2,0.9s0.1-0.1,0.5-0.4
	c0.3-0.3,0.6-0.8,0.6-0.8s0,1.2,0,1.3c0,0.1,0.7-0.5,0.7-0.7c0-0.2,0-0.3,0-0.3s0.9,0.1,0.9-0.5c0.5,0.2,0.9-0.3,0.9-0.3
	s0.7,0,0.8-0.5c0.3,0,0.7,0,0.8-0.5c0.5,0.2,0.5,0.1,0.7-0.1c0.3,0.1,0.3-0.4,0.3-0.4s0.7,0.2,0.7-0.3c0.6,0.1,0.6-0.4,0.6-0.4
	s0.5,0.2,0.5-0.3c0.3-0.2,0.3-0.5,0.3-0.5s0.5,0.1,0.4-0.3c0.3,0,0.4-0.4,0.4-0.4s0.3-0.1,0.2-0.3c0-0.2,0.4-0.2,0.3-0.4
	c0.9,0.2,1,0,2.4,0.8c1.4,0.8,2.6,1.3,3,1.7c0.4,0.4,0.7,0.1,0.9,0.1c0.2,0,0.4-0.2,0.4-0.5c0-0.3-0.2-0.4-0.2-0.4s0.4-0.1,0.7-0.1
	c0.3,0,0.1-0.5-0.6-1c-0.7-0.4-2.2-1-3.3-1.5c-1.1-0.5-2.1-1.2-2.1-1.2s0.1-0.2,0.4-0.3c0.3-0.1,0.3-0.1,0.2-0.3
	c-0.1-0.2-0.2-0.9-0.2-0.9s0.7,0,0.6-0.4c-0.1-0.4-0.1-0.4-0.1-0.4s0.6,0,0.6-0.6c0.3,0.1,0.3-0.6,0.3-0.6s0.4-0.3,0.2-0.6
	c0.2-0.2,0.3-0.9,0.3-0.9c0-0.1,0.5-0.4,0.3-0.9c0.2-0.3,0.4-0.7,0.1-1.1c0.2-0.2,0.4-0.7,0.1-0.9c0.1-0.5-0.1-0.8-0.1-0.8
	s0.5-0.6,0-0.8c0.2-0.3,0.5-1,0.1-1c0.4-0.7,0.3-1.2,0-1.2c0.3-0.7,0.3-1.2-0.1-1.2c0.2-0.7,0.3-1.2,0.2-1.3
	c0.7-1.1,0.8-1.6,0.8-1.6s-0.2,0.1-0.9,0.8c-0.7,0.7-1.3,1.3-1.1,0.9c0.2-0.4,1-1.5,1.1-2.2c0.1-0.8,0.2-0.9,0.2-0.9
	s-0.6,0.6-1.1,1.4c-0.5,0.8-0.8,1.3-0.8,1.3c0-0.1,0.4-0.7,0.6-1.2c0.2-0.5,0.5-2,0.5-2s-0.5,0.3-1,1.4c-0.5,1.1-1.1,2.2-0.9,1.5
	c0.2-0.7,0.6-2.6,0.6-2.6s-0.3,0-0.8,1.4c-0.5,1.4-1.4,3.4-1.4,3.2c0.3-1.1,0.3-2.6,0.3-2.6s-0.4,1.5-0.9,2.9
	c-0.5,1.5-0.9,2.6-1.1,2.9c-0.2,0.3-0.6,1.4-0.8,2.1c-0.1,0.6-0.3,2-0.7,3.2c-0.4,1.2-0.7,1.8-0.7,1.8s-0.4,0.3-0.5,0.3
	c-0.1,0-1.8,0.1-2.2,0.5c-0.4,0.3-0.3,0.8-0.3,0.8s-0.1,0.7,0.1,0.6c0-0.3,0-0.4,0-0.4s0.1,0,0.4,0.4c0.2,0.5,0.8,0.6,0.8,0.6
	s-0.1,0.4-0.5,0.7c-0.4,0.2-1.7,1.4-2.4,2.1c-0.6,0.7-0.6,1-0.8,1.2c-0.2,0.2-0.6,0.8-1,1.2c-0.4,0.4-0.6,0.6-0.9,0.6
	c-0.3,0-0.4,0.2-0.2,0.2C78.8,47.3,79.6,47.3,79.9,46.9"/>
<path class="st0" d="M83.5,68c0,0,0.5-0.5,0.8-0.9c0.2-0.6,0.3-0.5,0.3-0.7c0-0.1,0.6-0.9,1.1-1.2c0.2-1,0.4-1.1,0.1-2.1
	c-0.3-1-0.9-1.6-1.1-1.9c-0.2-0.3-0.3-0.6-0.4-0.7c-0.1-0.1-0.2-0.6-0.3-1.2C84,58.9,84,57,84,56c0-1,0.1-3.3,0.5-3.8
	c0,1.2,0,1.5,0,1.5s0.3-1.1,0.3-1.3c0,1.2,0,1.3,0,1.3s0.1-0.3,0.3-0.5c0.1,1.1,0.1,1.3,0.1,1.3l0.2-0.4l0.1,1.2l0.1-0.1
	c0,0,0.1,0.8,0.1,1c0.1-0.1,0.3,0.6,0.2,1.1c0.1,0.1,0.2,0.5,0.1,0.7c0.1,0,0.1,0.4,0.1,0.6c0.1,0.1,0.1,0.6,0.1,0.6s0-0.7,0.3-1.5
	c0.3-0.7,1.9-7,2.2-7.7c0,0.4-0.1,1.2-0.1,1.2l0.3-1c0,0-0.2,1.4-0.1,1.4c0.1,0.1,0.2-0.6,0.2-0.6s-0.1,1.3-0.1,1.4
	c0.1-0.3,0.2-0.3,0.2-0.3l-0.1,1.2l0.1-0.1c0,0,0,1-0.1,1.2l0.1,0c0,0-0.2,1.7-0.3,1.8c0.1,0.2-0.1,0.7-0.2,0.9C89,57,89,57,89,57
	s-0.2,0.5-0.3,0.6c0.2,0.1,0.3,0,0.2,0.2c-0.1,0.2-0.3,0.4-0.3,0.4s0,0.6,0.1,0.9c0.1,0.3,0.3,1.4,0.3,2.4c0,1.1,0,1.4,0,1.4
	s0.1,0.1,0.1,0.2c0.1,0.2,0.7,0.5,0.8,0.9c0.2-0.1,0.3-0.1,0.4-0.2c0.1-0.1,0.4-0.5,0.6-0.6l0.1-0.1c0,0-0.1,0.4-0.3,0.6
	c0.3-0.3,0.5-0.4,0.5-0.4s-0.1,0.5-0.4,0.7c0.4-0.1,0.6-0.1,0.6-0.2c0.1,0.1,0.1,0.4-0.5,0.5c0,0.1,0.7,0.3,0.8,0.2
	c-0.6,0.2-0.8,0.1-0.8,0.1s0.4,0.4,0.6,0.4c-0.3,0.1-0.5,0.1-0.5,0.1s0,0.6,0.2,0.6c-0.3-0.1-0.5-0.2-0.8-0.4
	c-0.2-0.2-0.8-0.3-1.1-0.2c-0.3,0.1-0.8,0.5-1,0.6c-0.2,0.2-0.5,0.3-1,0.6c-0.5,0.2-0.6,0.7-1,0.7c-0.4,0-1.1,0.4-1.4,0.3
	c-1,0.7-1.3,0.9-1.2,0.7c0.1-0.2,0.5-0.6,0.3-0.4C83.8,68,83.3,68.3,83.5,68"/>
<path class="st0" d="M175.2,64.3c0,0-0.3,0.9-0.8,1.3c0,0-0.5,0.4-0.3,1.5c0.1,1.1,0.3,1.5,0.5,2.2c0.2,0.7,1.1,2.5,1.5,2.4
	c0.1,0.3,0.9,1.1,1,1c0-0.2-0.5-0.9-0.5-1c0.2,0.2,0.8,1.1,0.9,1c0.1-0.1-0.2-0.7-0.2-0.7s0.3,0.1,0.2-0.2c-0.1-0.3-0.2-0.5-0.2-0.5
	s0.3,0.1,0.2-0.3c-0.1-0.3-0.1-0.6-0.1-0.6s0.2-0.3,0-0.7c0.2,0,0.3-0.4,0.1-0.8c0.3,0.1,0.3-0.2,0.1-0.6c0.1,0,0.4,0,0.2-0.2
	c-0.1-0.2-0.2-0.3-0.2-0.3s0.1-0.4,0.1-0.6c0.1-0.4,0.1-0.8,0.1-0.9c0-0.1,0.1-0.2,0.1-0.3c0-0.2,0.2-0.3,0.2-0.5
	c0-0.2,0.1-0.4,0.1-0.6c0-0.2,0.3-0.5,0.3-0.7c0.5-0.1,1.5-0.1,1.7-0.1c0.2,0,2.6,0.7,3.6,1c1.1,0.3,2,0.6,1.8,0.3
	c-0.2-0.3-0.5-0.3-0.8-0.4c-0.2-0.1-0.5-0.1-0.7-0.3c-0.2-0.2-0.6-0.4-0.9-0.4c-0.3-0.1-0.8-0.3-1.1-0.4c-0.3-0.1-0.3-0.3-0.4-0.4
	c-0.1-0.1-0.1-0.4-0.3-0.4c-0.1,0,0-0.2,0.2-0.3c0.2-0.1,0.2-0.2,0.2-0.4c0.3-0.2,0.3-0.3,0.3-0.4c0.4-0.2,1.8-0.8,1.9-1.1
	c0.3-0.2,1.6-0.9,1.4-1.1c-0.2-0.2-3.3,1.4-3.3,1.4l-2.6,1l-0.4,0c0,0,0-0.4-0.5-0.4c-0.1-0.4-0.2-1.7-0.5-1.8c0-0.7,0-1.1,0-1.1
	s0.1-0.3,0-0.4c0.3-0.4,0.3-0.4,0.3-0.4H178l0.2-0.4l-0.1,0c0,0,0.2-0.4,0.1-0.5c-0.1-0.1,0-0.2,0.1-0.3c0-0.1,0.1-0.3,0.1-0.4
	c0,0,0.4-0.5,0.3-0.5s-0.1-0.1-0.1-0.1s0.5-0.6,0.4-0.6c-0.1,0-0.2,0-0.2,0s0.6-0.6,0.5-0.6c-0.1,0-1.4,1.1-1.2,0.9
	c0.1-0.2,1-1,0.8-1c-0.2,0-2.1,2.1-1.9,1.8c0.2-0.3,0.9-1.2,0.7-1.1c-0.3,0.2-2.1,2.6-2.5,3.1c-0.4,0.4-0.7,1.2-0.7,1.5
	c0,0.4,0.1,0.7,0.2,0.7c0.1,0.1,0.6,0.6,0.8,1.1c0.2,0.5,0,0.9-0.1,0.9c-0.1,0-1.3,0.5-1.3,1.1c-0.2,0.2-0.2,0.4,0,0.5
	c0-0.2,0-0.3,0.2-0.2C174.3,64.2,175.2,64.2,175.2,64.3"/>
<path class="st0" d="M85.4,105.6c0.1-0.1-0.3-0.3-0.3-0.3s0.1-0.1,0.3-0.1c0.1-0.1-0.3-0.2-0.3-0.2s0.2-0.1,0.2-0.2
	c0-0.1-0.6-0.1-0.6-0.1l0.2-0.3l-0.7,0.1l0.1-0.4c0,0-0.2,0.1-0.6,0.3c-0.4,0.2-0.8,0.4-1.2,0.4c-0.4,0-1.2-0.4-1.2-0.4
	s0-0.3,0.4-0.9c0.3-0.6,0.5-1.1,0.7-1.4c0.2-0.2,0.3-0.6,0.3-0.6s0.3-0.2,0.7-0.7c0.4-0.5,0.7-0.9,0.7-0.9l-0.8,0.2l0.6-0.6
	c0,0-0.3,0.1-1.6,0.8c-1.3,0.6-2.2,0.8-2.7,1c-0.5,0.1-1.2,0.9-1.2,1.1s-0.2,0.9-0.4,1.5c-0.1,0.6-0.3,0.7-0.3,0.7l-1.1,0.7
	c0,0-0.1,0-0.9,0.2c-0.8,0.3-0.5,0.8-0.5,0.8s-0.6,0.2-1.1,0.6c-0.5,0.4-1.1,1.5-1.1,1.5l0.4-0.4c0,0-0.1,0.3-0.5,1.6
	c-0.4,1.3-0.3,1.8-0.3,2.6c0,0.8,0.2,1.1,0.2,1.1s0.2-0.1,0.2-0.5c0.3,0,0.2-0.7,0.2-0.7s0.2,0,0.3,0c0.1,0,0.1-0.4,0.1-0.4
	s0.3,0,0.3-0.3c0.1-0.3,0.6-0.7,1-1.3c0.4-0.6,1.2-1.2,1.4-1.5c0.2-0.3,0.4-0.5,0.6-0.6c0.2,0,0.4-0.5,0.4-0.5
	c1.6,0.1,2.8-0.4,3.4-0.7c0.5-0.3,1.2-0.8,1.2-0.8s0.4,0,0.8,0.2c0.4,0.2,0.3,0.1,0.6,0.1c0.3,0,0.6-0.1,1-0.2
	c0.4-0.1,0.2-0.1,0.2-0.1s-0.6-0.1-1-0.1c-0.4,0-0.7-0.2-0.7-0.2s0.3,0,0.7,0.1c0.5,0.1,0.9,0,1.1,0.1c0.2,0.1,0.3,0.1,0.5,0.1
	c0.2-0.1,0.1-0.2,0.1-0.2S85.2,105.7,85.4,105.6 M82.9,105.9c-0.3,0-0.5,0-0.5,0l0-0.1L82.9,105.9z"/>
<path class="st0" d="M95,85.6C95,85.6,95.1,85.6,95,85.6c0.1,0,0.2-0.1,0.2-0.2c0.3-0.3,0.7-0.4,0.9-0.4c0,0,0,0,0,0
	c0.2,0,0.2,0,0.1,0.1c0,0,0,0,0,0.1c0,0,0.1,0,0.1,0c0.1,0,0.1,0,0,0.1c0,0.1,0,0.1-0.1,0.1c0,0,0,0.1,0,0.1
	c-0.1,0.1-0.1,0.1,0.1,0.1c0.1,0,0.1,0,0,0.1c0.3,0,0.8,0.1,0.5,0.2c-0.1,0-0.2,0.1-0.4,0.1c0.2,0.1,0.4,0.2,0.7,0.4
	c1.4,0.8,2.7,1.5,2.7,1.5s0.8-1.3,0.9-2c0.1-0.7,1.7-1.2,2.8-1.5c1.1-0.2,1.8-0.3,2.5-0.5c0.7-0.2,2.7-0.9,2.6-0.7
	c-0.1,0.2-2.5,1-2.5,1s4.3-0.6,3.8-0.3c-0.5,0.3-1.8,0.4-1.4,0.4c0.4,0.1,2.1,0,1.5,0.2c-0.5,0.2-1.5,0.1-1.3,0.1
	c0.2,0.1,1.8,0.2,1.3,0.3c-0.5,0.1-0.9,0-0.9,0s0.2,0.2-0.3,0.2c-0.5,0-0.8,0-0.8,0s0.2,0.3-0.5,0.2c0.1,0.2-0.4,0.4-0.7,0.3
	c0,0.1-0.1,0.3-0.7,0.3c0,0.2-0.1,0.2-0.5,0.2c0.3,0.2-0.4,0.4-0.7,0.3c-0.2,0.4,0,0.3-0.2,0.3c-0.2,0-0.1,0.3-0.2,0.3
	c-0.1,0,0,0.2-0.2,0.2c-0.2,0-0.2,0.3-0.2,0.3s-0.1,0.3-0.2,0.3c-0.1,0,0,0.3-0.1,0.3c-0.2,0,0,0.2-0.2,0.3c-0.2,0,0,0.3-0.1,0.3
	c-0.2,0,0.2,0.2-0.2,0.3c-0.4,0.1-0.3,0.1-0.3,0.3c0,0.2,0,0.3-0.2,0.4c-0.2,0-0.4,0.1-0.4,0.2c0.1,0.2,2.2,1,2.7,1.1
	c-0.3,0.2-0.5,0.2-0.5,0.2s0.3,0.2-0.6,0.1c-0.9,0-1.2-0.3-1.2-0.3s-0.1,0.2-0.4,0.2c-0.4,0-0.5-0.1-0.5-0.1s0.1,0.5-1.6,0.3
	c-1.7-0.2-1.6-0.6-2-0.7c-0.5-0.1-1.3-0.4-1.5-0.7c-0.1,0-0.2,0.2-0.2,0.2s-0.3-0.3,0.1-0.6c-0.1-0.2-0.1-0.2,0.2-0.3
	c0.3-0.1,0.7-0.2,0.7-0.2s0.2-0.8-0.6-1.5c-0.8-0.7-1.5-1.1-1.7-1.3C95.1,86.1,95,85.6,95,85.6"/>
<path class="st0" d="M168.8,2.3C168.8,2.3,168.8,2.3,168.8,2.3c0.1,0,0.2-0.1,0.2-0.2c0.3-0.3,0.7-0.4,0.9-0.4c0,0,0,0,0,0
	c0.2,0,0.2,0,0.1,0.1c0,0,0,0,0,0.1c0,0,0.1,0,0.1,0c0.1,0,0.1,0,0,0.1c0,0.1,0,0.1-0.1,0.1c0,0,0,0.1,0,0.1
	c-0.1,0.1-0.1,0.1,0.1,0.1c0.1,0,0.1,0,0,0.1c0.3,0,0.8,0.1,0.5,0.2c-0.1,0-0.2,0.1-0.4,0.1c0.2,0.1,0.4,0.2,0.7,0.4
	c1.4,0.8,2.7,1.5,2.7,1.5s0.8-1.3,0.9-2c0.1-0.7,1.7-1.2,2.8-1.5c1.1-0.2,1.8-0.3,2.5-0.5c0.7-0.2,2.7-0.9,2.6-0.7
	c-0.1,0.2-2.5,1-2.5,1s4.3-0.6,3.8-0.3c-0.5,0.3-1.8,0.4-1.4,0.4c0.4,0.1,2.1,0,1.5,0.2c-0.5,0.2-1.5,0.1-1.3,0.1
	c0.2,0.1,1.8,0.2,1.3,0.3c-0.5,0.1-0.9,0-0.9,0S183,2,182.5,2c-0.5,0-0.8,0-0.8,0s0.2,0.3-0.5,0.2c0.1,0.2-0.4,0.4-0.7,0.3
	c0,0.1-0.1,0.3-0.7,0.3c0,0.2-0.1,0.2-0.5,0.2c0.3,0.2-0.4,0.4-0.7,0.3c-0.2,0.4,0,0.3-0.2,0.3c-0.2,0-0.1,0.3-0.2,0.3
	c-0.1,0,0,0.2-0.2,0.2C178,4,178,4.3,178,4.3s-0.1,0.3-0.2,0.3c-0.1,0,0,0.3-0.1,0.3c-0.2,0,0,0.2-0.2,0.3c-0.2,0,0,0.3-0.1,0.3
	c-0.2,0,0.2,0.2-0.2,0.3c-0.4,0.1-0.3,0.1-0.3,0.3c0,0.2,0,0.3-0.2,0.4c-0.2,0-0.4,0.1-0.4,0.2c0.1,0.2,2.2,1,2.7,1.1
	c-0.3,0.2-0.5,0.2-0.5,0.2s0.3,0.2-0.6,0.1c-0.9,0-1.2-0.3-1.2-0.3s-0.1,0.2-0.4,0.2c-0.4,0-0.5-0.1-0.5-0.1s0.1,0.5-1.6,0.3
	c-1.7-0.2-1.6-0.6-2-0.7c-0.5-0.1-1.3-0.4-1.5-0.7c-0.1,0-0.2,0.2-0.2,0.2s-0.3-0.3,0.1-0.6c-0.1-0.2-0.1-0.2,0.2-0.3
	c0.3-0.1,0.7-0.2,0.7-0.2s0.2-0.8-0.6-1.5C170,3.6,169.2,3.2,169,3C168.8,2.8,168.7,2.3,168.8,2.3"/>
<path class="st0" d="M182.4,111.7C182.4,111.7,182.4,111.7,182.4,111.7c0.1,0,0.2-0.1,0.2-0.2c0.3-0.3,0.7-0.4,0.9-0.4c0,0,0,0,0,0
	c0.2,0,0.2,0,0.1,0.1c0,0,0,0,0,0.1c0,0,0.1,0,0.1,0c0.1,0,0.1,0,0,0.1c0,0.1,0,0.1-0.1,0.1c0,0,0,0.1,0,0.1
	c-0.1,0.1-0.1,0.1,0.1,0.1c0.1,0,0.1,0,0,0.1c0.3,0,0.8,0.1,0.5,0.2c-0.1,0-0.2,0.1-0.4,0.1c0.2,0.1,0.4,0.2,0.7,0.4
	c1.4,0.8,2.7,1.5,2.7,1.5s0.8-1.3,0.9-2c0.1-0.7,1.7-1.2,2.8-1.5c1.1-0.2,1.8-0.3,2.5-0.5c0.7-0.2,2.7-0.9,2.6-0.7
	c-0.1,0.2-2.5,1-2.5,1s4.3-0.6,3.8-0.3c-0.5,0.3-1.8,0.4-1.4,0.4c0.4,0.1,2.1,0,1.5,0.2c-0.5,0.2-1.5,0.1-1.3,0.1
	c0.2,0.1,1.8,0.2,1.3,0.3c-0.5,0.1-0.9,0-0.9,0s0.2,0.2-0.3,0.2c-0.5,0-0.8,0-0.8,0s0.2,0.3-0.5,0.2c0.1,0.2-0.4,0.4-0.7,0.3
	c0,0.1-0.1,0.3-0.7,0.3c0,0.2-0.1,0.2-0.5,0.2c0.3,0.2-0.4,0.4-0.7,0.3c-0.2,0.4,0,0.3-0.2,0.3c-0.2,0-0.1,0.3-0.2,0.3
	c-0.1,0,0,0.2-0.2,0.2c-0.2,0-0.2,0.3-0.2,0.3s-0.1,0.3-0.2,0.3c-0.1,0,0,0.3-0.1,0.3c-0.2,0,0,0.2-0.2,0.3c-0.2,0,0,0.3-0.1,0.3
	c-0.2,0,0.2,0.2-0.2,0.3c-0.4,0.1-0.3,0.1-0.3,0.3c0,0.2,0,0.3-0.2,0.4c-0.2,0-0.4,0.1-0.4,0.2c0.1,0.2,2.2,1,2.7,1.1
	c-0.3,0.2-0.5,0.2-0.5,0.2s0.3,0.2-0.6,0.1c-0.9,0-1.2-0.3-1.2-0.3s-0.1,0.2-0.4,0.2s-0.5-0.1-0.5-0.1s0.1,0.5-1.6,0.3
	c-1.7-0.2-1.6-0.6-2-0.7c-0.5-0.1-1.3-0.4-1.5-0.7c-0.1,0-0.2,0.2-0.2,0.2s-0.3-0.3,0.1-0.6c-0.1-0.2-0.1-0.2,0.2-0.3
	c0.3-0.1,0.7-0.2,0.7-0.2s0.2-0.8-0.6-1.5c-0.8-0.7-1.5-1.1-1.7-1.3C182.4,112.2,182.3,111.7,182.4,111.7"/>
<path class="st0" d="M169.3,23.1c0,0.1-0.3,0.5-0.5,0.1c-0.2-0.3-0.6-1.6-0.6-1.6s-0.5-0.7-0.7-0.9c-0.1-0.1-0.6-0.6-0.6-0.6
	s-0.3-0.1-0.4-0.4c-0.4,0-0.5-0.2-0.5-0.2s-0.6-0.3-0.7-0.6c-0.2,0-0.5-0.4-0.5-0.4s-0.4-0.2-0.5-0.3c-0.2-0.1-0.5-0.5-0.5-0.5
	s-0.7-0.4-0.8-0.6c-0.2-0.1-0.5-0.4-0.5-0.4s-0.5-0.3-0.6-0.4c-0.2-0.1-0.4-0.3-0.6-0.5c-0.2-0.1-0.4-0.3-0.5-0.4
	c-0.1-0.1-0.2-0.1-0.4-0.3c-0.2-0.1-1.4-0.8-1-0.7s1.6,1,1.1,0.5c-0.6-0.4-0.9-0.6-1.1-0.9c-0.3-0.2-0.6-0.6-0.3-0.5
	c0.3,0.1,1.1,1.1,0.8,0.7c-0.3-0.4-1-1.3-0.7-1.1c0.3,0.2,1,1.3,0.8,0.9c-0.2-0.4-0.4-1.1-0.2-0.8c0.2,0.3,0.3,0.7,0.6,1.1
	c0.3,0.4,0.7,1,0.6,0.7c-0.2-0.3-0.4-1-0.2-0.9c0.1,0.2,0.2,0.9,0.7,1.3c0.5,0.4,1.1,0.6,1.4,0.8c0.3,0.1,1.8,0.8,2.4,1.3l2.3,1.6
	c0,0,0.4-0.2,0.9,0.1c0.5,0.3,0.8,0.5,1,0.5c0.2,0,2.2,0.2,3.1,0.4c0.9,0.2,2.8,0.9,3.3,1c0.5,0.1,0.4,0.1,0.9-0.1
	c0.5-0.2,0.7-0.3,0.7-0.3s0,0.1-0.2,0.2c-0.2,0.1-0.8,0.4-0.8,0.4s0.4,0.2,1.3-0.1c0.9-0.3,1.2-0.3,1.1-0.2c0,0.1-1.2,0.4-1.2,0.4
	s2-0.2,1.8,0.1c-0.6,0-1,0.1-1,0.1s1,0.1,0.9,0.2c-0.4,0-2.1-0.2-2.1-0.2s1.6,0.3,1.5,0.4c-0.1,0.1-1.4-0.2-1.9-0.2
	c-0.5,0-1.6,0-2.7,0c-1.2,0-1.7-0.1-2.7-0.2c-1-0.1-2.2-0.2-2.2-0.2s-0.1,0.2,0,0.5c0.1,0.2,0.5,1,0.7,1.3c0.2,0.2,0.1,0.4,0,0.4
	c-0.1,0-0.2,0.2-0.4,0C169.5,23.3,169.3,23.1,169.3,23.1"/>
<path class="st0" d="M217.3,37.8C217.3,37.8,217.3,37.8,217.3,37.8c0.1,0,0.2-0.1,0.2-0.2c0.3-0.3,0.7-0.4,0.9-0.4c0,0,0,0,0,0
	c0.2,0,0.2,0,0.1,0.1c0,0,0,0,0,0.1c0,0,0.1,0,0.1,0c0.1,0,0.1,0,0,0.1c0,0.1,0,0.1-0.1,0.1c0,0,0,0.1,0,0.1
	c-0.1,0.1-0.1,0.1,0.1,0.1c0.1,0,0.1,0,0,0.1c0.3,0,0.8,0.1,0.5,0.2c-0.1,0-0.2,0.1-0.4,0.1c0.2,0.1,0.4,0.2,0.7,0.4
	c1.4,0.8,2.7,1.5,2.7,1.5s0.8-1.3,0.9-2c0.1-0.7,1.7-1.2,2.8-1.5c1.1-0.2,1.8-0.3,2.5-0.5c0.7-0.2,2.7-0.9,2.6-0.7
	c-0.1,0.2-2.5,1-2.5,1s4.3-0.6,3.8-0.3c-0.5,0.3-1.8,0.4-1.4,0.4c0.4,0.1,2.1,0,1.5,0.2c-0.5,0.2-1.5,0.1-1.3,0.1
	c0.2,0.1,1.8,0.2,1.3,0.3c-0.5,0.1-0.9,0-0.9,0s0.2,0.2-0.3,0.2c-0.5,0-0.8,0-0.8,0s0.2,0.3-0.5,0.2c0.1,0.2-0.4,0.4-0.7,0.3
	c0,0.1-0.1,0.3-0.7,0.3c0,0.2-0.1,0.2-0.5,0.2c0.3,0.2-0.4,0.4-0.7,0.3c-0.2,0.4,0,0.3-0.2,0.3c-0.2,0-0.1,0.3-0.2,0.3
	c-0.1,0,0,0.2-0.2,0.2c-0.2,0-0.2,0.3-0.2,0.3s-0.1,0.3-0.2,0.3c-0.1,0,0,0.3-0.1,0.3c-0.2,0,0,0.2-0.2,0.3c-0.2,0,0,0.3-0.1,0.3
	c-0.2,0,0.2,0.2-0.2,0.3c-0.4,0.1-0.3,0.1-0.3,0.3c0,0.2,0,0.3-0.2,0.4c-0.2,0-0.4,0.1-0.4,0.2c0.1,0.2,2.2,1,2.7,1.1
	c-0.3,0.2-0.5,0.2-0.5,0.2s0.3,0.2-0.6,0.1c-0.9,0-1.2-0.3-1.2-0.3s-0.1,0.2-0.4,0.2c-0.4,0-0.5-0.1-0.5-0.1s0.1,0.5-1.6,0.3
	c-1.7-0.2-1.6-0.6-2-0.7c-0.5-0.1-1.3-0.4-1.5-0.7c-0.1,0-0.2,0.2-0.2,0.2s-0.3-0.3,0.1-0.6c-0.1-0.2-0.1-0.2,0.2-0.3
	c0.3-0.1,0.7-0.2,0.7-0.2s0.2-0.8-0.6-1.5c-0.8-0.7-1.5-1.1-1.7-1.3C217.3,38.3,217.2,37.8,217.3,37.8"/>
<path class="st0" d="M53.6,147.8C53.6,147.8,53.7,147.8,53.6,147.8c0.1,0,0.2-0.1,0.2-0.2c0.3-0.3,0.7-0.4,0.9-0.4c0,0,0,0,0,0
	c0.2,0,0.2,0,0.1,0.1c0,0,0,0,0,0.1c0,0,0.1,0,0.1,0c0.1,0,0.1,0,0,0.1c0,0.1,0,0.1-0.1,0.1c0,0,0,0.1,0,0.1
	c-0.1,0.1-0.1,0.1,0.1,0.1c0.1,0,0.1,0,0,0.1c0.3,0,0.8,0.1,0.5,0.2c-0.1,0-0.2,0.1-0.4,0.1c0.2,0.1,0.4,0.2,0.7,0.4
	c1.4,0.8,2.7,1.5,2.7,1.5s0.8-1.3,0.9-2c0.1-0.7,1.7-1.2,2.8-1.5c1.1-0.2,1.8-0.3,2.5-0.5c0.7-0.2,2.7-0.9,2.6-0.7
	c-0.1,0.2-2.5,1-2.5,1s4.3-0.6,3.8-0.3c-0.5,0.3-1.8,0.4-1.4,0.4c0.4,0.1,2.1,0,1.5,0.2c-0.5,0.2-1.5,0.1-1.3,0.1
	c0.2,0.1,1.8,0.2,1.3,0.3c-0.5,0.1-0.9,0-0.9,0s0.2,0.2-0.3,0.2c-0.5,0-0.8,0-0.8,0s0.2,0.3-0.5,0.2c0.1,0.2-0.4,0.4-0.7,0.3
	c0,0.1-0.1,0.3-0.7,0.3c0,0.2-0.1,0.2-0.5,0.2c0.3,0.2-0.4,0.4-0.7,0.3c-0.2,0.4,0,0.3-0.2,0.3c-0.2,0-0.1,0.3-0.2,0.3
	c-0.1,0,0,0.2-0.2,0.2c-0.2,0-0.2,0.3-0.2,0.3s-0.1,0.3-0.2,0.3c-0.1,0,0,0.3-0.1,0.3c-0.2,0,0,0.2-0.2,0.3c-0.2,0,0,0.3-0.1,0.3
	c-0.2,0,0.2,0.2-0.2,0.3c-0.4,0.1-0.3,0.1-0.3,0.3c0,0.2,0,0.3-0.2,0.4c-0.2,0-0.4,0.1-0.4,0.2c0.1,0.2,2.2,1,2.7,1.1
	c-0.3,0.2-0.5,0.2-0.5,0.2s0.3,0.2-0.6,0.1c-0.9,0-1.2-0.3-1.2-0.3s-0.1,0.2-0.4,0.2c-0.4,0-0.5-0.1-0.5-0.1s0.1,0.5-1.6,0.3
	c-1.7-0.2-1.6-0.6-2-0.7c-0.5-0.1-1.3-0.4-1.5-0.7c-0.1,0-0.2,0.2-0.2,0.2s-0.3-0.3,0.1-0.6c-0.1-0.2-0.1-0.2,0.2-0.3
	c0.3-0.1,0.7-0.2,0.7-0.2s0.2-0.8-0.6-1.5c-0.8-0.7-1.5-1.1-1.7-1.3C53.7,148.3,53.6,147.8,53.6,147.8"/>
<path class="st0" d="M39.4,134.2C39.4,134.2,39.5,134.2,39.4,134.2c0.1,0,0.2-0.1,0.2-0.2c0.3-0.3,0.7-0.4,0.9-0.4c0,0,0,0,0,0
	c0.2,0,0.2,0,0.1,0.1c0,0,0,0,0,0.1c0,0,0.1,0,0.1,0c0.1,0,0.1,0,0,0.1c0,0.1,0,0.1-0.1,0.1c0,0,0,0.1,0,0.1
	c-0.1,0.1-0.1,0.1,0.1,0.1c0.1,0,0.1,0,0,0.1c0.3,0,0.8,0.1,0.5,0.2c-0.1,0-0.2,0.1-0.4,0.1c0.2,0.1,0.4,0.2,0.7,0.4
	c1.4,0.8,2.7,1.5,2.7,1.5s0.8-1.3,0.9-2c0.1-0.7,1.7-1.2,2.8-1.5c1.1-0.2,1.8-0.3,2.5-0.5c0.7-0.2,2.7-0.9,2.6-0.7
	c-0.1,0.2-2.5,1-2.5,1s4.3-0.6,3.8-0.3c-0.5,0.3-1.8,0.4-1.4,0.4c0.4,0.1,2.1,0,1.5,0.2c-0.5,0.2-1.5,0.1-1.3,0.1
	c0.2,0.1,1.8,0.2,1.3,0.3c-0.5,0.1-0.9,0-0.9,0s0.2,0.2-0.3,0.2c-0.5,0-0.8,0-0.8,0s0.2,0.3-0.5,0.2c0.1,0.2-0.4,0.4-0.7,0.3
	c0,0.1-0.1,0.3-0.7,0.3c0,0.2-0.1,0.2-0.5,0.2c0.3,0.2-0.4,0.4-0.7,0.3c-0.2,0.4,0,0.3-0.2,0.3c-0.2,0-0.1,0.3-0.2,0.3
	c-0.1,0,0,0.2-0.2,0.2c-0.2,0-0.2,0.3-0.2,0.3s-0.1,0.3-0.2,0.3c-0.1,0,0,0.3-0.1,0.3c-0.2,0,0,0.2-0.2,0.3c-0.2,0,0,0.3-0.1,0.3
	c-0.2,0,0.2,0.2-0.2,0.3c-0.4,0.1-0.3,0.1-0.3,0.3c0,0.2,0,0.3-0.2,0.4c-0.2,0-0.4,0.1-0.4,0.2c0.1,0.2,2.2,1,2.7,1.1
	c-0.3,0.2-0.5,0.2-0.5,0.2s0.3,0.2-0.6,0.1c-0.9,0-1.2-0.3-1.2-0.3s-0.1,0.2-0.4,0.2c-0.4,0-0.5-0.1-0.5-0.1s0.1,0.5-1.6,0.3
	c-1.7-0.2-1.6-0.6-2-0.7c-0.5-0.1-1.3-0.4-1.5-0.7c-0.1,0-0.2,0.2-0.2,0.2s-0.3-0.3,0.1-0.6c-0.1-0.2-0.1-0.2,0.2-0.3
	c0.3-0.1,0.7-0.2,0.7-0.2s0.2-0.8-0.6-1.5c-0.8-0.7-1.5-1.1-1.7-1.3C39.5,134.7,39.4,134.2,39.4,134.2"/>
</svg>
