<?xml version="1.0" encoding="utf-8"?>
<!-- Generator: Adobe Illustrator 19.0.1, SVG Export Plug-In . SVG Version: 6.00 Build 0)  -->
<svg version="1.1" id="Layer_1" xmlns="http://www.w3.org/2000/svg" xmlns:xlink="http://www.w3.org/1999/xlink" x="0px" y="0px"
	 viewBox="0 0 359 1630" style="enable-background:new 0 0 359 1630;" xml:space="preserve">
<style type="text/css">
	.st0{fill:none;}
	.st1{fill:url(#SVGID_1_);}
	.st2{fill:url(#SVGID_2_);}
	.st3{fill:url(#SVGID_3_);}
	.st4{fill:url(#SVGID_4_);}
	.st5{fill:url(#SVGID_5_);}
	.st6{fill:url(#SVGID_6_);}
	.st7{fill:url(#SVGID_7_);}
	.st8{fill:url(#SVGID_8_);}
	.st9{fill:url(#SVGID_9_);}
	.st10{fill:url(#SVGID_10_);}
	.st11{fill:url(#SVGID_11_);}
	.st12{fill:url(#SVGID_12_);}
	.st13{fill:url(#SVGID_13_);}
	.st14{fill:url(#SVGID_14_);}
	.st15{fill:url(#SVGID_15_);}
	.st16{fill:url(#SVGID_16_);}
	.st17{fill:url(#SVGID_17_);}
	.st18{fill:url(#SVGID_18_);}
	.st19{fill:url(#SVGID_19_);}
	.st20{fill:#91C13E;}
	.st21{fill:#010101;}
	.st22{fill:#637F37;}
	.st23{fill:url(#SVGID_20_);}
	.st24{fill:url(#SVGID_21_);}
	.st25{fill:url(#SVGID_22_);}
	.st26{fill:url(#SVGID_23_);}
	.st27{fill:url(#SVGID_24_);}
	.st28{fill:url(#SVGID_25_);}
	.st29{fill:url(#SVGID_26_);}
	.st30{fill:url(#SVGID_27_);}
	.st31{fill:url(#SVGID_28_);}
	.st32{fill:url(#SVGID_29_);}
	.st33{fill:url(#SVGID_30_);}
	.st34{fill:url(#SVGID_31_);}
	.st35{fill:url(#SVGID_32_);}
	.st36{fill:url(#SVGID_33_);}
	.st37{fill:url(#SVGID_34_);}
	.st38{fill:url(#SVGID_35_);}
	.st39{fill:url(#SVGID_36_);}
	.st40{fill:url(#SVGID_37_);}
	.st41{fill:url(#SVGID_38_);}
	.st42{fill:url(#SVGID_39_);}
</style>
<g>
	<path class="st0" d="M43.5,108.4v4.7h6.3v-0.3v-5.4C48.5,107,43.5,108.4,43.5,108.4z"/>
	<path class="st0" d="M38.3,112.9l4.2,0.1v-4.4C39.5,108.1,38.3,112.9,38.3,112.9z"/>
	<path class="st0" d="M50.9,107.3v5.4v0.3h6.3v-4.7C57.2,108.4,52.3,107,50.9,107.3z"/>
	<path class="st0" d="M66.2,117.1h1.5v2.2h0.6v-4.7c-0.6,0.1-1.2,0.2-2.1,0.3V117.1z"/>
	<rect x="33.3" y="113.9" class="st0" width="1.7" height="6"/>
	<polygon class="st0" points="256.3,185.9 257.6,185.9 257.6,183.3 259.7,183.3 259.7,181.4 256.3,181.8 	"/>
	<path class="st0" d="M58.3,108.7v4.4l4.2-0.1C62.5,112.9,61.3,108.1,58.3,108.7z"/>
	<path class="st0" d="M260.5,185.3l2.6-0.1l1.4-5.7C261.8,177.8,260.5,185.3,260.5,185.3z"/>
	<path class="st0" d="M289,185.4h2.1v-4.8C289,180,289,185.4,289,185.4z"/>
</g>
<g>
	<linearGradient id="SVGID_1_" gradientUnits="userSpaceOnUse" x1="186.8359" y1="3.5237" x2="190.3867" y2="3.5237">
		<stop  offset="0.1966" style="stop-color:#AAD037"/>
		<stop  offset="0.809" style="stop-color:#91C13E"/>
	</linearGradient>
	<polygon class="st1" points="187,2.2 186.8,4.6 186.8,4.8 187.1,4.8 190.2,4.8 190.4,4.8 190.4,4.6 190.2,2.2 190.1,2.2 190,4.6 
		190.2,4.4 187.1,4.4 187.3,4.6 187.1,2.2 	"/>
</g>
<g>
	<linearGradient id="SVGID_2_" gradientUnits="userSpaceOnUse" x1="186.9814" y1="9.1033" x2="190.5313" y2="9.1033">
		<stop  offset="0.1966" style="stop-color:#AAD037"/>
		<stop  offset="0.809" style="stop-color:#91C13E"/>
	</linearGradient>
	<polygon class="st2" points="187.1,7.8 187,10.2 187,10.4 187.2,10.4 190.3,10.4 190.5,10.4 190.5,10.2 190.4,7.8 190.2,7.8 
		190.1,10.2 190.3,10 187.2,10 187.4,10.2 187.3,7.8 	"/>
</g>
<g>
	<linearGradient id="SVGID_3_" gradientUnits="userSpaceOnUse" x1="187.0547" y1="12.0017" x2="190.6045" y2="12.0017">
		<stop  offset="0.1966" style="stop-color:#AAD037"/>
		<stop  offset="0.809" style="stop-color:#91C13E"/>
	</linearGradient>
	<polygon class="st3" points="187.2,10.7 187.1,13.1 187.1,13.3 187.3,13.3 190.4,13.3 190.6,13.3 190.6,13.1 190.5,10.7 
		190.3,10.7 190.2,13.1 190.4,12.9 187.3,12.9 187.5,13.1 187.3,10.7 	"/>
</g>
<linearGradient id="SVGID_4_" gradientUnits="userSpaceOnUse" x1="186.7754" y1="5.8272" x2="190.4785" y2="5.8272">
	<stop  offset="0.1966" style="stop-color:#AAD037"/>
	<stop  offset="0.809" style="stop-color:#91C13E"/>
</linearGradient>
<polygon class="st4" points="190.2,5.4 190.2,5.7 187.1,5.7 187.1,5.4 186.8,5.4 186.8,6.2 187.1,6.2 187.1,6 190.2,6 190.2,6.2 
	190.5,6.2 190.5,5.4 "/>
<linearGradient id="SVGID_5_" gradientUnits="userSpaceOnUse" x1="186.7754" y1="7.0965" x2="190.4775" y2="7.0965">
	<stop  offset="0.1966" style="stop-color:#AAD037"/>
	<stop  offset="0.809" style="stop-color:#91C13E"/>
</linearGradient>
<polygon class="st5" points="190.2,6.7 190.2,6.9 187.1,6.9 187.1,6.7 186.8,6.7 186.8,7.5 187.1,7.5 187.1,7.2 190.2,7.2 
	190.2,7.5 190.5,7.5 190.5,6.7 "/>
<linearGradient id="SVGID_6_" gradientUnits="userSpaceOnUse" x1="187.1621" y1="13.9927" x2="190.4336" y2="13.9927">
	<stop  offset="0.1966" style="stop-color:#AAD037"/>
	<stop  offset="0.809" style="stop-color:#91C13E"/>
</linearGradient>
<polygon class="st6" points="190.2,13.6 190.2,13.9 187.4,13.9 187.4,13.6 187.2,13.6 187.2,14.3 187.4,14.3 187.4,14.1 190.2,14.1 
	190.2,14.3 190.4,14.3 190.4,13.6 "/>
<linearGradient id="SVGID_7_" gradientUnits="userSpaceOnUse" x1="187.1602" y1="15.114" x2="190.4336" y2="15.114">
	<stop  offset="0.1966" style="stop-color:#AAD037"/>
	<stop  offset="0.809" style="stop-color:#91C13E"/>
</linearGradient>
<polygon class="st7" points="190.2,14.8 190.2,15 187.4,15 187.4,14.8 187.2,14.8 187.2,15.5 187.4,15.5 187.4,15.2 190.2,15.2 
	190.2,15.5 190.4,15.5 190.4,14.8 "/>
<linearGradient id="SVGID_8_" gradientUnits="userSpaceOnUse" x1="187.1621" y1="16.0694" x2="190.4336" y2="16.0694">
	<stop  offset="0.1966" style="stop-color:#AAD037"/>
	<stop  offset="0.809" style="stop-color:#91C13E"/>
</linearGradient>
<polygon class="st8" points="190.2,15.7 190.2,15.9 187.4,15.9 187.4,15.7 187.2,15.7 187.2,16.4 187.4,16.4 187.4,16.2 190.2,16.2 
	190.2,16.4 190.4,16.4 190.4,15.7 "/>
<linearGradient id="SVGID_9_" gradientUnits="userSpaceOnUse" x1="187.1602" y1="17.1912" x2="190.4336" y2="17.1912">
	<stop  offset="0.1966" style="stop-color:#AAD037"/>
	<stop  offset="0.809" style="stop-color:#91C13E"/>
</linearGradient>
<polygon class="st9" points="190.2,16.8 190.2,17 187.4,17 187.4,16.8 187.2,16.8 187.2,17.5 187.4,17.5 187.4,17.3 190.2,17.3 
	190.2,17.5 190.4,17.5 190.4,16.8 "/>
<g>
	<linearGradient id="SVGID_10_" gradientUnits="userSpaceOnUse" x1="187.1504" y1="22.8225" x2="190.7012" y2="22.8225">
		<stop  offset="0.1966" style="stop-color:#AAD037"/>
		<stop  offset="0.809" style="stop-color:#91C13E"/>
	</linearGradient>
	<polygon class="st10" points="187.3,21.5 187.2,23.9 187.2,24.1 187.4,24.1 190.5,24.1 190.7,24.1 190.7,23.9 190.6,21.5 
		190.4,21.5 190.3,23.9 190.5,23.7 187.4,23.7 187.6,23.9 187.4,21.5 	"/>
</g>
<linearGradient id="SVGID_11_" gradientUnits="userSpaceOnUse" x1="187.3066" y1="24.8721" x2="190.5781" y2="24.8721">
	<stop  offset="0.1966" style="stop-color:#AAD037"/>
	<stop  offset="0.809" style="stop-color:#91C13E"/>
</linearGradient>
<polygon class="st11" points="190.3,24.5 190.3,24.7 187.6,24.7 187.6,24.5 187.3,24.5 187.3,25.2 187.6,25.2 187.6,25 190.3,25 
	190.3,25.2 190.6,25.2 190.6,24.5 "/>
<linearGradient id="SVGID_12_" gradientUnits="userSpaceOnUse" x1="187.0547" y1="19.1695" x2="190.7988" y2="19.1695">
	<stop  offset="0.1966" style="stop-color:#AAD037"/>
	<stop  offset="0.809" style="stop-color:#91C13E"/>
</linearGradient>
<path class="st12" d="M187.7,20.5h-0.6l0-2.6l0.2,2.3h0.3l0.1-1.2l0.1,0l0,1.2c0,0,0.3-0.2,0.4-0.2c0.1,0,1.1-0.1,1.2,0
	c0.1,0.1,0.1-1,0.1-1l0.1,0l0.1,1l0.4,0v-1.4h0.1l0.1,1.4l0.3,0l0.1-2.2l0.2,2.5l-1.2,0C189.6,20.3,188.4,20,187.7,20.5z"/>
<g>
	<linearGradient id="SVGID_13_" gradientUnits="userSpaceOnUse" x1="187.3438" y1="33.4803" x2="191.5947" y2="33.4803">
		<stop  offset="0.1966" style="stop-color:#AAD037"/>
		<stop  offset="0.809" style="stop-color:#91C13E"/>
	</linearGradient>
	<rect x="187.3" y="33.1" class="st13" width="4.3" height="0.7"/>
	<linearGradient id="SVGID_14_" gradientUnits="userSpaceOnUse" x1="185.4121" y1="31.9585" x2="192.5127" y2="31.9585">
		<stop  offset="0.1966" style="stop-color:#AAD037"/>
		<stop  offset="0.809" style="stop-color:#91C13E"/>
	</linearGradient>
	<path class="st14" d="M192.2,31.1v1.8h-0.3v-1h-0.3v1h-4.3v-0.4h3.6h0.1v-0.1v-2.5h-0.3v2.4h-3.5v-0.5h-0.3v0.5h-0.5v-2.3h-0.3v2.4
		v0.1h0.1h0.6v0.4h-1.4v-1.6h-0.3V33v0.1h0.1h1.5V34v0.1h0.1h4.5h0.1V34v-0.8h0.5h0.1V33v-1.9H192.2z M191.6,33.8h-4.3v-0.7h4.3
		V33.8z"/>
</g>
<g>
	<linearGradient id="SVGID_15_" gradientUnits="userSpaceOnUse" x1="186.957" y1="37.7767" x2="188.2129" y2="37.7767">
		<stop  offset="0.1966" style="stop-color:#AAD037"/>
		<stop  offset="0.809" style="stop-color:#91C13E"/>
	</linearGradient>
	<path class="st15" d="M188.2,34.5l-1.1,0v1.4h1v0.5h-1v1.5h1v0.6H187v1.8h1l0.3,0.7L188.2,34.5z M188,35.6h-0.8v-0.2h0.8V35.6z
		 M188,35.3h-0.8v-0.2h0.8V35.3z M188,35h-0.8v-0.2h0.8V35z M188,37.6h-0.8v-0.2h0.8V37.6z M188,37.2h-0.8V37h0.8V37.2z M188,36.9
		h-0.8v-0.2h0.8V36.9z M188,39.9h-0.8v-0.2h0.8V39.9z M188,39.6h-0.8v-0.2h0.8V39.6z M188,39.2h-0.8V39h0.8V39.2z M188,38.9h-0.8
		v-0.2h0.8V38.9z"/>
</g>
<g>
	<linearGradient id="SVGID_16_" gradientUnits="userSpaceOnUse" x1="189.8926" y1="37.7944" x2="191.1299" y2="37.7944">
		<stop  offset="0.1966" style="stop-color:#AAD037"/>
		<stop  offset="0.809" style="stop-color:#91C13E"/>
	</linearGradient>
	<path class="st16" d="M189.9,41.1l0.2-0.7h1v-1.8H190v-0.6h1v-1.5h-1v-0.5h1v-1.4l-1.1,0L189.9,41.1z M190.1,35.4h0.8v0.2h-0.8
		V35.4z M190.1,35.1h0.8v0.2h-0.8V35.1z M190.1,34.8h0.8V35h-0.8V34.8z M190.1,37.4h0.8v0.2h-0.8V37.4z M190.1,37h0.8v0.2h-0.8V37z
		 M190.1,36.7h0.8V37h-0.8V36.7z M190.1,39.7h0.8v0.2h-0.8V39.7z M190.1,39.4h0.8v0.2h-0.8V39.4z M190.1,39h0.8v0.2h-0.8V39z
		 M190.1,38.7h0.8v0.2h-0.8V38.7z"/>
</g>
<g>
	<linearGradient id="SVGID_17_" gradientUnits="userSpaceOnUse" x1="186.7031" y1="53.4278" x2="188.1172" y2="53.4278">
		<stop  offset="0.1966" style="stop-color:#AAD037"/>
		<stop  offset="0.809" style="stop-color:#91C13E"/>
	</linearGradient>
	<path class="st17" d="M188,50.5l-1.2,0v1.4h1v0.5h-1v1.5h1v0.6h-1.1v1.8h1l0.4,0L188,50.5z M187.8,51.6H187v-0.2h0.8V51.6z
		 M187.8,51.3H187v-0.2h0.8V51.3z M187.8,51H187v-0.2h0.8V51z M187.8,53.6H187v-0.2h0.8V53.6z M187.8,53.3H187V53h0.8V53.3z
		 M187.8,52.9H187v-0.2h0.8V52.9z M187.7,55.9H187v-0.2h0.8V55.9z M187.7,55.6H187v-0.2h0.8V55.6z M187.7,55.2H187V55h0.8V55.2z
		 M187.7,54.9H187v-0.2h0.8V54.9z"/>
</g>
<g>
	<linearGradient id="SVGID_18_" gradientUnits="userSpaceOnUse" x1="186.7031" y1="59.889" x2="188.1914" y2="59.889">
		<stop  offset="0.1966" style="stop-color:#AAD037"/>
		<stop  offset="0.809" style="stop-color:#91C13E"/>
	</linearGradient>
	<path class="st18" d="M188.1,57l-1.3,0v1.4h1v0.5h-1v1.5h1V61h-1.1v1.8h1l0.5,0L188.1,57z M187.8,58.1H187v-0.2h0.8V58.1z
		 M187.8,57.8H187v-0.2h0.8V57.8z M187.8,57.4H187v-0.2h0.8V57.4z M187.8,60.1H187v-0.2h0.8V60.1z M187.8,59.7H187v-0.2h0.8V59.7z
		 M187.8,59.4H187v-0.2h0.8V59.4z M187.7,62.4H187v-0.2h0.8V62.4z M187.7,62H187v-0.2h0.8V62z M187.7,61.7H187v-0.2h0.8V61.7z
		 M187.7,61.4H187v-0.2h0.8V61.4z"/>
</g>
<g>
	<linearGradient id="SVGID_19_" gradientUnits="userSpaceOnUse" x1="186.7402" y1="66.3894" x2="188.2676" y2="66.3894">
		<stop  offset="0.1966" style="stop-color:#AAD037"/>
		<stop  offset="0.809" style="stop-color:#91C13E"/>
	</linearGradient>
	<path class="st19" d="M188.2,63.5l-1.4,0v1.4h1v0.5h-1v1.5h1v0.6h-1.1v1.8h1l0.6,0L188.2,63.5z M187.8,64.6H187v-0.2h0.8V64.6z
		 M187.8,64.2H187V64h0.8V64.2z M187.8,63.9H187v-0.2h0.8V63.9z M187.8,66.6H187v-0.2h0.8V66.6z M187.8,66.2H187V66h0.8V66.2z
		 M187.8,65.9H187v-0.2h0.8V65.9z M187.8,68.9H187v-0.2h0.8V68.9z M187.8,68.5H187v-0.2h0.8V68.5z M187.8,68.2H187V68h0.8V68.2z
		 M187.8,67.9H187v-0.2h0.8V67.9z"/>
</g>
<g>
	<path class="st20" d="M190.8,56.4l0.4,0h1v-1.8h-1.1V54h1v-1.5h-1V52h1v-1.4l-1.3,0L190.8,56.4z M191.2,51.5h0.8v0.2h-0.8V51.5z
		 M191.2,51.1h0.8v0.2h-0.8V51.1z M191.2,50.8h0.8V51h-0.8V50.8z M191.2,53.5h0.8v0.2h-0.8V53.5z M191.2,53.1h0.8v0.2h-0.8V53.1z
		 M191.2,52.8h0.8V53h-0.8V52.8z M191.2,55.8h0.8V56h-0.8V55.8z M191.2,55.4h0.8v0.2h-0.8V55.4z M191.2,55.1h0.8v0.2h-0.8V55.1z
		 M191.2,54.8h0.8V55h-0.8V54.8z"/>
</g>
<g>
	<path class="st20" d="M190.8,62.9l0.4,0h1v-1.8h-1.1v-0.6h1v-1.5h-1v-0.5h1v-1.4l-1.3,0L190.8,62.9z M191.2,58h0.8v0.2h-0.8V58z
		 M191.2,57.6h0.8v0.2h-0.8V57.6z M191.2,57.3h0.8v0.2h-0.8V57.3z M191.2,59.9h0.8v0.2h-0.8V59.9z M191.2,59.6h0.8v0.2h-0.8V59.6z
		 M191.2,59.3h0.8v0.2h-0.8V59.3z M191.2,62.3h0.8v0.2h-0.8V62.3z M191.2,61.9h0.8v0.2h-0.8V61.9z M191.2,61.6h0.8v0.2h-0.8V61.6z
		 M191.2,61.3h0.8v0.2h-0.8V61.3z"/>
</g>
<g>
	<path class="st20" d="M190.8,69.4l0.4,0h1v-1.8h-1.1V67h1v-1.5h-1v-0.5h1v-1.4l-1.3,0L190.8,69.4z M191.2,64.4h0.8v0.2h-0.8V64.4z
		 M191.2,64.1h0.8v0.2h-0.8V64.1z M191.2,63.8h0.8V64h-0.8V63.8z M191.2,66.4h0.8v0.2h-0.8V66.4z M191.2,66.1h0.8v0.2h-0.8V66.1z
		 M191.2,65.8h0.8V66h-0.8V65.8z M191.2,68.8h0.8V69h-0.8V68.8z M191.2,68.4h0.8v0.2h-0.8V68.4z M191.2,68h0.8v0.2h-0.8V68z
		 M191.2,67.7h0.8V68h-0.8V67.7z"/>
</g>
<line class="st21" x1="340.3" y1="163.5" x2="344.8" y2="163.5"/>
<line class="st21" x1="340.3" y1="165.7" x2="344.8" y2="165.7"/>
<g>
	<path class="st0" d="M50.9,107.3v5.4v0.3h6.3v-4.7C57.2,108.4,52.3,107,50.9,107.3z"/>
	<path class="st0" d="M43.5,108.4v4.7h6.3v-0.3v-5.4C48.5,107,43.5,108.4,43.5,108.4z"/>
	<path class="st0" d="M58.3,108.7v4.4l4.2-0.1C62.5,112.9,61.3,108.1,58.3,108.7z"/>
	<path class="st0" d="M66.2,117.1h1.5v2.2h0.6v-4.7c-0.6,0.1-1.2,0.2-2.1,0.3V117.1z"/>
	<rect x="33.3" y="113.9" class="st0" width="1.7" height="6"/>
	<polygon class="st0" points="181.2,128.6 181.1,131.1 182.6,130.4 181.8,128.1 	"/>
	<path class="st0" d="M197.5,129.7c0.2-0.1,1.7,0.7,1.7,0.7l-0.1-2l-1.4-0.4C197.8,128,197.3,129.8,197.5,129.7z"/>
	<path class="st0" d="M38.3,112.9l4.2,0.1v-4.4C39.5,108.1,38.3,112.9,38.3,112.9z"/>
	<path class="st0" d="M289,185.4h2.1v-4.8C289,180,289,185.4,289,185.4z"/>
	<path class="st0" d="M260.5,185.3l2.6-0.1l1.4-5.7C261.8,177.8,260.5,185.3,260.5,185.3z"/>
	<polygon class="st0" points="183.2,127.7 183.3,130 185.6,129.5 185.1,127.2 	"/>
	<polygon class="st0" points="256.3,185.9 257.6,185.9 257.6,183.3 259.7,183.3 259.7,181.4 256.3,181.8 	"/>
	<path class="st0" d="M190.1,126.8c0,0-0.1,2.5-0.1,2.3c0.1-0.2,3.1,0.1,3.1,0.1l-0.1-2.2L190.1,126.8z"/>
	<path class="st0" d="M194.3,127.1l-0.1,2.2c0,0,2.2,0.2,2.4,0.4c0.1,0.1,0.1-2,0.1-2L194.3,127.1z"/>
	<path class="st0" d="M186.3,127.1l-0.1,2.2c0,0,3-0.3,3.1-0.1c0.1,0.2-0.1-2.3-0.1-2.3L186.3,127.1z"/>
	<path class="st22" d="M2,1628h356.4V197.8c-2.5-0.6-7.6,0.3-7.6,0.3H343V198h-1.5v-1.2h1.5v-1h-1.5v-1.2h1.5v-1h-1.5v-1.2h1.5v0v-1
		h-1.5v-1.2h1.5V190v-0.8h-1.6V188h1.6v-0.9V187h-1.6v-1.2h1.6v-1h-1.6v-1.2h1.6v-1h-1.6v-1.2h1.6v-0.9h-1.6v-1.2h1.6v-0.5v-0.5
		h-1.6v-1.2h1.6v-0.9v-0.1h-1.6v-1.2h1.6v-1h-1.6v-1.2h1.6v-1h-1.7v-1.2h1.7v-0.1v-0.9h-1.7v-1.2h1.7v-0.6v-0.4h-1.7v-1.2h1.7v-1
		h-1.7v-1.2h1.7v-9c-3-0.6-5.1,1.8-7.2,3.9c-2.1,2.1-6,2.4-6,2.4l-4.8-2.7v-13.2h-8.7v-6.6h-6.9c-0.3-2.4-2.7-4.8-5.4-4.8
		c-2.7,0-5.4,4.8-5.4,4.8h-6.6v25.2c-2.7-0.6-5.1,11.1-5.7,13.2c-0.6,2.1-2.1,10.5-4.2,10.5c-2.1,0-1.2-10.2-1.2-10.2h-6.3L270,184
		l5.4-20.1c-3.6-1.5-6.3,2.7-8.4,8.1c-2.1,5.4-3.6,9-5.1,7.5c-1.5-1.5-4.8,0.6-4.8,0.6l-1.7-0.1v-1.2v-4.4h-1.1v5v0.2v0.6
		c-1,0.8-1.8,2-1.8,2h1.8l-1.1,2.8l-1.6,3.8h-1.9H246v4.5v6.3h-5.7h-2.7v-2.1h-4.5v7.8c-4.2,5.1-7.8-0.6-7.8-0.6
		c-3.9-1.2-0.3-2.7-0.3-2.7l-1.8-4.8h-3v-2.4h-6.3v2.7c0,0-3.3,0.3-6.9,0c-3.6-0.3-2.4-4.2-2.4-4.2h-2.4V181l-4.2,0.5v-9.1
		c0.4-0.7,2-13.9,2-13.9c0.4-0.2,0.4-1.4,0.4-1.4c1.2-1.5,0.9-24.2,1-24.4c0.1-0.2,1.5-3.9,1.5-3.9c7.8-2.2,3-4.8,3-4.8
		c10.8-4.1-0.8-7.7-0.8-7.7c-0.7-0.6-1.7-0.8-1.7-0.8c0-0.5-2.3-1.4-2.3-1.4c0-2.2-2.5-2.8-2.5-2.8c1.1-0.8,0.4-1.1,0.5-1.4
		c0.1-0.4-1.8-11.1-1.8-11.1c3.8-1,0.6-2.7,0.6-2.7s-1.4,0.4,1.4-1.2c2.8-1.5,1-2.2,0.5-2.7c-0.5-0.5-4.1-1.3-4.1-1.3
		c-1.2-5.6-1.1-6.6-1.1-6.6c3-1.4,1.4-1.7,1.4-2c0-0.3-3.3-1.2-3.3-1.2l-0.2-9.7l-0.7-0.9l0.1-19.8c2.3-1-0.5-1.7-0.5-1.7L190.9,35
		c1.8-0.4-0.1-1.2-0.1-1.2l-0.3-11.3c1.7-0.8-0.1-1.1-0.1-1.1l-0.6-18.7l-0.2,0l-0.3,18.7c-1.6,0.4,0,1.2,0,1.2L189.1,34
		c-1.7,0.5,0.1,0.9,0.1,0.9l-0.1,14.3c0,0,0-0.1-0.9,0.7c-0.9,0.7,0.8,1.2,0.8,1.2l0.2,19.7l-0.7,0.9l0.1,9.9c0,0-2,0.1-3.2,1.2
		c-1.3,1.1,1,1.7,1.4,1.8c0.4,0.1-1,6.6-1,6.6s-0.5,0-3.2,1c-2.7,1-1.4,2.7-0.9,2.9c0.5,0.2,1.5,1.4,1.5,1.4c-2,2.5,1.6,2.6,1.3,2.6
		c-0.3,0-1.5,10-1.7,11c-0.2,1,0.6,1.7,0.6,1.7c-3,1-2.6,2.9-2.6,2.9c-1.7,0.5-1.7,1.1-1.7,1.1c-1.6,0.4-2.4,1.2-2.4,1.2
		c-10.8,4.1-0.2,7.6-0.2,7.6c-4.3,3.1,3.3,4.6,3,4.6c-0.2,0.1,1.9,4.8,1.9,4.8l0.2,10.7c0,0,1,11.2,1.2,12.3
		c0.1,1.1,0.6,1.7,0.6,1.7c-0.7,0.3,0.2,1.4,0.2,1.4l2.2,13l0.1,8.7l-19.3-1.1v-8.4h-18l-0.9-14.4l-1.2,14.7h-16.8
		c0,4.5,0.9,20.4-1.8,20.4c-2.7,0-1.5-5.1-1.5-5.1c-2.4-1.8-21-0.6-21-0.6c-0.3,7.2-2.1,1.2-2.1,1.2l-4.2,0.6v19.2H98v-55.6
		c-2.7-1.8,0.8-2.7,0.8-2.7v-5.7H96v-3h2.7v-1.7H94v-2.2h-1.4V135H74v1.2h-1.7v-14.5h-1.1v-6.9c1.9-2-3.1-5.7-3.1-5.7
		c-7-5.1-17.7-4.2-17.7-4.2s-6.6,0-14.6,3.2c-8.5,3.4-3,6.4-3,6.4v6.8H30v53.9h-3.4v-18.8h-3.2v-3.4h-2v-3.4h-4.8l-0.8-1.1h-2.2
		c-1.1-11-8.7-13.7-8.7-13.7l-1.4-14.4l-0.4,14.4L2,1628z M198.8,129l1.4,0.4l0.1,2c0,0-1.5-0.8-1.7-0.7
		C198.3,130.8,198.8,129,198.8,129z M182.1,132.1l0.1-2.5l0.7-0.5l0.8,2.3L182.1,132.1z M35.9,120.9h-1.7v-6h1.7V120.9z M43.5,114
		l-4.2-0.1c0,0,1.2-4.8,4.2-4.2V114z M50.8,113.7v0.3h-6.3v-4.7c0,0,5-1.4,6.3-1.1V113.7z M58.2,114h-6.3v-0.3v-5.4
		c1.4-0.3,6.3,1.1,6.3,1.1V114z M59.3,114v-4.4c3-0.6,4.2,4.2,4.2,4.2L59.3,114z M69.3,120.3h-0.6v-2.2h-1.5v-2.2
		c0.8-0.1,1.5-0.1,2.1-0.3V120.3z M184.3,131l-0.1-2.2l1.9-0.5l0.5,2.3L184.3,131z M190.3,130.2c-0.1-0.2-3.1,0.1-3.1,0.1l0.1-2.2
		l3-0.1C190.2,127.9,190.4,130.5,190.3,130.2z M191,130.1c-0.1,0.2,0.1-2.3,0.1-2.3l3,0.1l0.1,2.2
		C194.2,130.2,191.1,129.9,191,130.1z M197.5,130.6c-0.1-0.1-2.4-0.4-2.4-0.4l0.1-2.2l2.3,0.6C197.6,128.7,197.7,130.8,197.5,130.6z
		 M260.7,184.3h-2.1v2.6h-1.4v-4.1l3.5-0.5V184.3z M264,186.1l-2.6,0.1c0,0,1.4-7.5,3.9-5.9L264,186.1z M292.1,186.4H290
		c0,0,0-5.4,2.1-4.8V186.4z"/>
	<polygon class="st20" points="340.3,164.1 342,164.1 344.8,164.1 344.8,162.9 342,162.9 340.3,162.9 	"/>
	<polygon class="st20" points="340.3,166.3 342,166.3 344.8,166.3 344.8,165.1 342,165.1 340.3,165.1 	"/>
	<polygon class="st20" points="340.3,168.5 342,168.5 344.8,168.5 344.8,167.3 342,167.3 340.3,167.3 	"/>
	<polygon class="st20" points="340.3,170.7 342,170.7 344.8,170.7 344.8,169.5 342,169.5 340.3,169.5 	"/>
	<polygon class="st20" points="340.4,172.9 342,172.9 344.9,172.9 344.9,171.7 342,171.7 340.4,171.7 	"/>
	<polygon class="st20" points="340.4,175.1 342,175.1 344.9,175.1 344.9,173.9 342,173.9 340.4,173.9 	"/>
	<polygon class="st20" points="340.4,177.3 342,177.3 344.9,177.3 344.9,176.1 342,176.1 340.4,176.1 	"/>
	<polygon class="st20" points="340.4,179.5 342,179.5 344.9,179.5 344.9,178.3 342,178.3 340.4,178.3 	"/>
	<polygon class="st20" points="340.4,181.6 342,181.6 344.9,181.6 344.9,180.4 342,180.4 340.4,180.4 	"/>
	<polygon class="st20" points="340.4,183.8 342,183.8 344.9,183.8 344.9,182.6 342,182.6 340.4,182.6 	"/>
	<polygon class="st20" points="340.4,186 342,186 344.9,186 344.9,184.8 342,184.8 340.4,184.8 	"/>
	<polygon class="st20" points="340.4,188.2 342,188.2 344.9,188.2 344.9,187 342,187 340.4,187 	"/>
	<polygon class="st20" points="340.5,190.4 342,190.4 345,190.4 345,189.2 342,189.2 340.5,189.2 	"/>
	<polygon class="st20" points="340.5,192.6 342,192.6 345,192.6 345,191.4 342,191.4 340.5,191.4 	"/>
	<polygon class="st20" points="340.5,194.8 342,194.8 345,194.8 345,193.6 342,193.6 340.5,193.6 	"/>
	<polygon class="st20" points="340.5,197 342,197 345,197 345,195.8 342,195.8 340.5,195.8 	"/>
</g>
<path class="st20" d="M209.1,116.2l-0.3,0c0-0.2,0-0.4-0.1-0.6l0.2,0l0-0.3l-0.3,0c-0.1-0.2-0.2-0.4-0.4-0.6c0,0-0.1-0.1-0.1-0.1
	l0.3,0l0-0.3l-0.5,0.1c-0.3-0.3-0.6-0.5-0.9-0.7l0.3-0.1l-0.1-0.3l-0.6,0.1c-0.5-0.3-1-0.5-1.5-0.7l0.3-0.1l-0.1-0.3l-0.7,0.2
	c-0.7-0.2-1.4-0.4-2.1-0.6l0.5-0.2l-0.1-0.3l-0.8,0.4c-2-0.4-4.2-0.7-5.8-0.8c-5.4-0.5-11.7-0.2-15.9,0.6c-1.5,0.3-2.8,0.6-3.9,1
	l-0.5-0.2l-0.1,0.3l0.2,0.1c-0.7,0.2-1.2,0.5-1.7,0.7l-0.7-0.1l-0.1,0.3l0.3,0.1c-0.4,0.2-0.7,0.5-1,0.7l-0.6-0.1l0,0.3l0.4,0.1
	c-0.3,0.3-0.5,0.5-0.7,0.8l-0.3,0l0,0.3l0.2,0c0,0.1-0.1,0.1-0.1,0.2c-0.1,0.2-0.1,0.3-0.1,0.5l-0.4,0l0,0.3l0.4,0
	c0,0.8,0.3,1.3,0.3,1.4l0.2-0.2v0c0,0-0.3-0.5-0.3-1.2l2.9,0.1l0-0.3l-2.9-0.1c0-0.1,0.1-0.3,0.1-0.4c0-0.1,0.1-0.2,0.1-0.3l3.9,0.4
	l0-0.3l-3.8-0.4c0.2-0.2,0.4-0.5,0.7-0.8l4.8,0.7l0-0.3l-4.5-0.6c0.3-0.2,0.6-0.4,1.1-0.7l4.3,0.9l0.1-0.3l-3.9-0.8
	c0.5-0.2,1-0.4,1.7-0.7l3.6,1.3l0.1-0.3l-3.2-1.2c1-0.3,2.1-0.6,3.5-0.9c5.7-1.1,14.9-1.1,21.2,0.2l-2.6,1.2l0.1,0.3l3-1.4
	c0.7,0.2,1.4,0.3,2,0.5l-3.5,1l0.1,0.3l3.9-1.1c0.6,0.2,1.1,0.4,1.6,0.7l-4.3,0.9l0.1,0.3l4.6-0.9c0.4,0.2,0.7,0.4,1,0.7l-4.6,0.5
	l0,0.3l4.9-0.6c0.1,0.1,0.2,0.2,0.2,0.3c0.1,0.2,0.2,0.3,0.3,0.5l-3.8,0.2l0,0.3l3.9-0.2c0.1,0.2,0.1,0.4,0.1,0.6l-2.2-0.1l0,0.3
	l2.2,0.1c0,0.3-0.1,0.6-0.3,0.9l0.3,0.1c0.2-0.3,0.3-0.7,0.3-1l0.3,0L209.1,116.2z"/>
<g>
	<path class="st0" d="M43.5,108.4v4.7h6.3v-0.3v-5.4C48.5,107,43.5,108.4,43.5,108.4z"/>
	<path class="st0" d="M38.3,112.9l4.2,0.1v-4.4C39.5,108.1,38.3,112.9,38.3,112.9z"/>
	<path class="st0" d="M50.9,107.3v5.4v0.3h6.3v-4.7C57.2,108.4,52.3,107,50.9,107.3z"/>
	<path class="st0" d="M66.2,117.1h1.5v2.2h0.6v-4.7c-0.6,0.1-1.2,0.2-2.1,0.3V117.1z"/>
	<rect x="33.3" y="113.9" class="st0" width="1.7" height="6"/>
	<polygon class="st0" points="256.3,185.9 257.6,185.9 257.6,183.3 259.7,183.3 259.7,181.4 256.3,181.8 	"/>
	<path class="st0" d="M58.3,108.7v4.4l4.2-0.1C62.5,112.9,61.3,108.1,58.3,108.7z"/>
	<path class="st0" d="M260.5,185.3l2.6-0.1l1.4-5.7C261.8,177.8,260.5,185.3,260.5,185.3z"/>
	<path class="st0" d="M289,185.4h2.1v-4.8C289,180,289,185.4,289,185.4z"/>
</g>
<g>
	<linearGradient id="SVGID_20_" gradientUnits="userSpaceOnUse" x1="186.8359" y1="3.5237" x2="190.3867" y2="3.5237">
		<stop  offset="0.1966" style="stop-color:#AAD037"/>
		<stop  offset="0.809" style="stop-color:#91C13E"/>
	</linearGradient>
	<polygon class="st23" points="187,2.2 186.8,4.6 186.8,4.8 187.1,4.8 190.2,4.8 190.4,4.8 190.4,4.6 190.2,2.2 190.1,2.2 190,4.6 
		190.2,4.4 187.1,4.4 187.3,4.6 187.1,2.2 	"/>
</g>
<g>
	<linearGradient id="SVGID_21_" gradientUnits="userSpaceOnUse" x1="186.9814" y1="9.1033" x2="190.5313" y2="9.1033">
		<stop  offset="0.1966" style="stop-color:#AAD037"/>
		<stop  offset="0.809" style="stop-color:#91C13E"/>
	</linearGradient>
	<polygon class="st24" points="187.1,7.8 187,10.2 187,10.4 187.2,10.4 190.3,10.4 190.5,10.4 190.5,10.2 190.4,7.8 190.2,7.8 
		190.1,10.2 190.3,10 187.2,10 187.4,10.2 187.3,7.8 	"/>
</g>
<g>
	<linearGradient id="SVGID_22_" gradientUnits="userSpaceOnUse" x1="187.0547" y1="12.0017" x2="190.6045" y2="12.0017">
		<stop  offset="0.1966" style="stop-color:#AAD037"/>
		<stop  offset="0.809" style="stop-color:#91C13E"/>
	</linearGradient>
	<polygon class="st25" points="187.2,10.7 187.1,13.1 187.1,13.3 187.3,13.3 190.4,13.3 190.6,13.3 190.6,13.1 190.5,10.7 
		190.3,10.7 190.2,13.1 190.4,12.9 187.3,12.9 187.5,13.1 187.3,10.7 	"/>
</g>
<linearGradient id="SVGID_23_" gradientUnits="userSpaceOnUse" x1="186.7754" y1="5.8272" x2="190.4785" y2="5.8272">
	<stop  offset="0.1966" style="stop-color:#AAD037"/>
	<stop  offset="0.809" style="stop-color:#91C13E"/>
</linearGradient>
<polygon class="st26" points="190.2,5.4 190.2,5.7 187.1,5.7 187.1,5.4 186.8,5.4 186.8,6.2 187.1,6.2 187.1,6 190.2,6 190.2,6.2 
	190.5,6.2 190.5,5.4 "/>
<linearGradient id="SVGID_24_" gradientUnits="userSpaceOnUse" x1="186.7754" y1="7.0965" x2="190.4775" y2="7.0965">
	<stop  offset="0.1966" style="stop-color:#AAD037"/>
	<stop  offset="0.809" style="stop-color:#91C13E"/>
</linearGradient>
<polygon class="st27" points="190.2,6.7 190.2,6.9 187.1,6.9 187.1,6.7 186.8,6.7 186.8,7.5 187.1,7.5 187.1,7.2 190.2,7.2 
	190.2,7.5 190.5,7.5 190.5,6.7 "/>
<linearGradient id="SVGID_25_" gradientUnits="userSpaceOnUse" x1="187.1621" y1="13.9927" x2="190.4336" y2="13.9927">
	<stop  offset="0.1966" style="stop-color:#AAD037"/>
	<stop  offset="0.809" style="stop-color:#91C13E"/>
</linearGradient>
<polygon class="st28" points="190.2,13.6 190.2,13.9 187.4,13.9 187.4,13.6 187.2,13.6 187.2,14.3 187.4,14.3 187.4,14.1 
	190.2,14.1 190.2,14.3 190.4,14.3 190.4,13.6 "/>
<linearGradient id="SVGID_26_" gradientUnits="userSpaceOnUse" x1="187.1602" y1="15.114" x2="190.4336" y2="15.114">
	<stop  offset="0.1966" style="stop-color:#AAD037"/>
	<stop  offset="0.809" style="stop-color:#91C13E"/>
</linearGradient>
<polygon class="st29" points="190.2,14.8 190.2,15 187.4,15 187.4,14.8 187.2,14.8 187.2,15.5 187.4,15.5 187.4,15.2 190.2,15.2 
	190.2,15.5 190.4,15.5 190.4,14.8 "/>
<linearGradient id="SVGID_27_" gradientUnits="userSpaceOnUse" x1="187.1621" y1="16.0694" x2="190.4336" y2="16.0694">
	<stop  offset="0.1966" style="stop-color:#AAD037"/>
	<stop  offset="0.809" style="stop-color:#91C13E"/>
</linearGradient>
<polygon class="st30" points="190.2,15.7 190.2,15.9 187.4,15.9 187.4,15.7 187.2,15.7 187.2,16.4 187.4,16.4 187.4,16.2 
	190.2,16.2 190.2,16.4 190.4,16.4 190.4,15.7 "/>
<linearGradient id="SVGID_28_" gradientUnits="userSpaceOnUse" x1="187.1602" y1="17.1912" x2="190.4336" y2="17.1912">
	<stop  offset="0.1966" style="stop-color:#AAD037"/>
	<stop  offset="0.809" style="stop-color:#91C13E"/>
</linearGradient>
<polygon class="st31" points="190.2,16.8 190.2,17 187.4,17 187.4,16.8 187.2,16.8 187.2,17.5 187.4,17.5 187.4,17.3 190.2,17.3 
	190.2,17.5 190.4,17.5 190.4,16.8 "/>
<g>
	<linearGradient id="SVGID_29_" gradientUnits="userSpaceOnUse" x1="187.1504" y1="22.8225" x2="190.7012" y2="22.8225">
		<stop  offset="0.1966" style="stop-color:#AAD037"/>
		<stop  offset="0.809" style="stop-color:#91C13E"/>
	</linearGradient>
	<polygon class="st32" points="187.3,21.5 187.2,23.9 187.2,24.1 187.4,24.1 190.5,24.1 190.7,24.1 190.7,23.9 190.6,21.5 
		190.4,21.5 190.3,23.9 190.5,23.7 187.4,23.7 187.6,23.9 187.4,21.5 	"/>
</g>
<linearGradient id="SVGID_30_" gradientUnits="userSpaceOnUse" x1="187.3066" y1="24.8721" x2="190.5781" y2="24.8721">
	<stop  offset="0.1966" style="stop-color:#AAD037"/>
	<stop  offset="0.809" style="stop-color:#91C13E"/>
</linearGradient>
<polygon class="st33" points="190.3,24.5 190.3,24.7 187.6,24.7 187.6,24.5 187.3,24.5 187.3,25.2 187.6,25.2 187.6,25 190.3,25 
	190.3,25.2 190.6,25.2 190.6,24.5 "/>
<linearGradient id="SVGID_31_" gradientUnits="userSpaceOnUse" x1="187.0547" y1="19.1695" x2="190.7988" y2="19.1695">
	<stop  offset="0.1966" style="stop-color:#AAD037"/>
	<stop  offset="0.809" style="stop-color:#91C13E"/>
</linearGradient>
<path class="st34" d="M187.7,20.5h-0.6l0-2.6l0.2,2.3h0.3l0.1-1.2l0.1,0l0,1.2c0,0,0.3-0.2,0.4-0.2c0.1,0,1.1-0.1,1.2,0
	c0.1,0.1,0.1-1,0.1-1l0.1,0l0.1,1l0.4,0v-1.4h0.1l0.1,1.4l0.3,0l0.1-2.2l0.2,2.5l-1.2,0C189.6,20.3,188.4,20,187.7,20.5z"/>
<g>
	<linearGradient id="SVGID_32_" gradientUnits="userSpaceOnUse" x1="187.3438" y1="33.4803" x2="191.5947" y2="33.4803">
		<stop  offset="0.1966" style="stop-color:#AAD037"/>
		<stop  offset="0.809" style="stop-color:#91C13E"/>
	</linearGradient>
	<rect x="187.3" y="33.1" class="st35" width="4.3" height="0.7"/>
	<linearGradient id="SVGID_33_" gradientUnits="userSpaceOnUse" x1="185.4121" y1="31.9585" x2="192.5127" y2="31.9585">
		<stop  offset="0.1966" style="stop-color:#AAD037"/>
		<stop  offset="0.809" style="stop-color:#91C13E"/>
	</linearGradient>
	<path class="st36" d="M192.2,31.1v1.8h-0.3v-1h-0.3v1h-4.3v-0.4h3.6h0.1v-0.1v-2.5h-0.3v2.4h-3.5v-0.5h-0.3v0.5h-0.5v-2.3h-0.3v2.4
		v0.1h0.1h0.6v0.4h-1.4v-1.6h-0.3V33v0.1h0.1h1.5V34v0.1h0.1h4.5h0.1V34v-0.8h0.5h0.1V33v-1.9H192.2z M191.6,33.8h-4.3v-0.7h4.3
		V33.8z"/>
</g>
<g>
	<linearGradient id="SVGID_34_" gradientUnits="userSpaceOnUse" x1="186.957" y1="37.7767" x2="188.2129" y2="37.7767">
		<stop  offset="0.1966" style="stop-color:#AAD037"/>
		<stop  offset="0.809" style="stop-color:#91C13E"/>
	</linearGradient>
	<path class="st37" d="M188.2,34.5l-1.1,0v1.4h1v0.5h-1v1.5h1v0.6H187v1.8h1l0.3,0.7L188.2,34.5z M188,35.6h-0.8v-0.2h0.8V35.6z
		 M188,35.3h-0.8v-0.2h0.8V35.3z M188,35h-0.8v-0.2h0.8V35z M188,37.6h-0.8v-0.2h0.8V37.6z M188,37.2h-0.8V37h0.8V37.2z M188,36.9
		h-0.8v-0.2h0.8V36.9z M188,39.9h-0.8v-0.2h0.8V39.9z M188,39.6h-0.8v-0.2h0.8V39.6z M188,39.2h-0.8V39h0.8V39.2z M188,38.9h-0.8
		v-0.2h0.8V38.9z"/>
</g>
<g>
	<linearGradient id="SVGID_35_" gradientUnits="userSpaceOnUse" x1="189.8926" y1="37.7944" x2="191.1299" y2="37.7944">
		<stop  offset="0.1966" style="stop-color:#AAD037"/>
		<stop  offset="0.809" style="stop-color:#91C13E"/>
	</linearGradient>
	<path class="st38" d="M189.9,41.1l0.2-0.7h1v-1.8H190v-0.6h1v-1.5h-1v-0.5h1v-1.4l-1.1,0L189.9,41.1z M190.1,35.4h0.8v0.2h-0.8
		V35.4z M190.1,35.1h0.8v0.2h-0.8V35.1z M190.1,34.8h0.8V35h-0.8V34.8z M190.1,37.4h0.8v0.2h-0.8V37.4z M190.1,37h0.8v0.2h-0.8V37z
		 M190.1,36.7h0.8V37h-0.8V36.7z M190.1,39.7h0.8v0.2h-0.8V39.7z M190.1,39.4h0.8v0.2h-0.8V39.4z M190.1,39h0.8v0.2h-0.8V39z
		 M190.1,38.7h0.8v0.2h-0.8V38.7z"/>
</g>
<g>
	<linearGradient id="SVGID_36_" gradientUnits="userSpaceOnUse" x1="186.7031" y1="53.4278" x2="188.1172" y2="53.4278">
		<stop  offset="0.1966" style="stop-color:#AAD037"/>
		<stop  offset="0.809" style="stop-color:#91C13E"/>
	</linearGradient>
	<path class="st39" d="M188,50.5l-1.2,0v1.4h1v0.5h-1v1.5h1v0.6h-1.1v1.8h1l0.4,0L188,50.5z M187.8,51.6H187v-0.2h0.8V51.6z
		 M187.8,51.3H187v-0.2h0.8V51.3z M187.8,51H187v-0.2h0.8V51z M187.8,53.6H187v-0.2h0.8V53.6z M187.8,53.3H187V53h0.8V53.3z
		 M187.8,52.9H187v-0.2h0.8V52.9z M187.7,55.9H187v-0.2h0.8V55.9z M187.7,55.6H187v-0.2h0.8V55.6z M187.7,55.2H187V55h0.8V55.2z
		 M187.7,54.9H187v-0.2h0.8V54.9z"/>
</g>
<g>
	<linearGradient id="SVGID_37_" gradientUnits="userSpaceOnUse" x1="186.7031" y1="59.889" x2="188.1914" y2="59.889">
		<stop  offset="0.1966" style="stop-color:#AAD037"/>
		<stop  offset="0.809" style="stop-color:#91C13E"/>
	</linearGradient>
	<path class="st40" d="M188.1,57l-1.3,0v1.4h1v0.5h-1v1.5h1V61h-1.1v1.8h1l0.5,0L188.1,57z M187.8,58.1H187v-0.2h0.8V58.1z
		 M187.8,57.8H187v-0.2h0.8V57.8z M187.8,57.4H187v-0.2h0.8V57.4z M187.8,60.1H187v-0.2h0.8V60.1z M187.8,59.7H187v-0.2h0.8V59.7z
		 M187.8,59.4H187v-0.2h0.8V59.4z M187.7,62.4H187v-0.2h0.8V62.4z M187.7,62H187v-0.2h0.8V62z M187.7,61.7H187v-0.2h0.8V61.7z
		 M187.7,61.4H187v-0.2h0.8V61.4z"/>
</g>
<g>
	<linearGradient id="SVGID_38_" gradientUnits="userSpaceOnUse" x1="186.7402" y1="66.3894" x2="188.2676" y2="66.3894">
		<stop  offset="0.1966" style="stop-color:#AAD037"/>
		<stop  offset="0.809" style="stop-color:#91C13E"/>
	</linearGradient>
	<path class="st41" d="M188.2,63.5l-1.4,0v1.4h1v0.5h-1v1.5h1v0.6h-1.1v1.8h1l0.6,0L188.2,63.5z M187.8,64.6H187v-0.2h0.8V64.6z
		 M187.8,64.2H187V64h0.8V64.2z M187.8,63.9H187v-0.2h0.8V63.9z M187.8,66.6H187v-0.2h0.8V66.6z M187.8,66.2H187V66h0.8V66.2z
		 M187.8,65.9H187v-0.2h0.8V65.9z M187.8,68.9H187v-0.2h0.8V68.9z M187.8,68.5H187v-0.2h0.8V68.5z M187.8,68.2H187V68h0.8V68.2z
		 M187.8,67.9H187v-0.2h0.8V67.9z"/>
</g>
<g>
	<path class="st20" d="M190.8,56.4l0.4,0h1v-1.8h-1.1V54h1v-1.5h-1V52h1v-1.4l-1.3,0L190.8,56.4z M191.2,51.5h0.8v0.2h-0.8V51.5z
		 M191.2,51.1h0.8v0.2h-0.8V51.1z M191.2,50.8h0.8V51h-0.8V50.8z M191.2,53.5h0.8v0.2h-0.8V53.5z M191.2,53.1h0.8v0.2h-0.8V53.1z
		 M191.2,52.8h0.8V53h-0.8V52.8z M191.2,55.8h0.8V56h-0.8V55.8z M191.2,55.4h0.8v0.2h-0.8V55.4z M191.2,55.1h0.8v0.2h-0.8V55.1z
		 M191.2,54.8h0.8V55h-0.8V54.8z"/>
</g>
<g>
	<path class="st20" d="M190.8,62.9l0.4,0h1v-1.8h-1.1v-0.6h1v-1.5h-1v-0.5h1v-1.4l-1.3,0L190.8,62.9z M191.2,58h0.8v0.2h-0.8V58z
		 M191.2,57.6h0.8v0.2h-0.8V57.6z M191.2,57.3h0.8v0.2h-0.8V57.3z M191.2,59.9h0.8v0.2h-0.8V59.9z M191.2,59.6h0.8v0.2h-0.8V59.6z
		 M191.2,59.3h0.8v0.2h-0.8V59.3z M191.2,62.3h0.8v0.2h-0.8V62.3z M191.2,61.9h0.8v0.2h-0.8V61.9z M191.2,61.6h0.8v0.2h-0.8V61.6z
		 M191.2,61.3h0.8v0.2h-0.8V61.3z"/>
</g>
<g>
	<path class="st20" d="M190.8,69.4l0.4,0h1v-1.8h-1.1V67h1v-1.5h-1v-0.5h1v-1.4l-1.3,0L190.8,69.4z M191.2,64.4h0.8v0.2h-0.8V64.4z
		 M191.2,64.1h0.8v0.2h-0.8V64.1z M191.2,63.8h0.8V64h-0.8V63.8z M191.2,66.4h0.8v0.2h-0.8V66.4z M191.2,66.1h0.8v0.2h-0.8V66.1z
		 M191.2,65.8h0.8V66h-0.8V65.8z M191.2,68.8h0.8V69h-0.8V68.8z M191.2,68.4h0.8v0.2h-0.8V68.4z M191.2,68h0.8v0.2h-0.8V68z
		 M191.2,67.7h0.8V68h-0.8V67.7z"/>
</g>
<line class="st21" x1="340.3" y1="163.5" x2="344.8" y2="163.5"/>
<line class="st21" x1="340.3" y1="165.7" x2="344.8" y2="165.7"/>
<g>
	<path class="st0" d="M50.9,109.3v5.4v0.3h6.3v-4.7C57.2,110.4,52.3,109,50.9,109.3z"/>
	<path class="st0" d="M43.5,110.4v4.7h6.3v-0.3v-5.4C48.5,109,43.5,110.4,43.5,110.4z"/>
	<path class="st0" d="M58.3,110.7v4.4l4.2-0.1C62.5,114.9,61.3,110.1,58.3,110.7z"/>
	<path class="st0" d="M66.2,119.1h1.5v2.2h0.6v-4.7c-0.6,0.1-1.2,0.2-2.1,0.3V119.1z"/>
	<rect x="33.3" y="115.9" class="st0" width="1.7" height="6"/>
	<polygon class="st0" points="181.2,130.6 181.1,133.1 182.6,132.4 181.8,130.1 	"/>
	<path class="st0" d="M197.5,131.7c0.2-0.1,1.7,0.7,1.7,0.7l-0.1-2l-1.4-0.4C197.8,130,197.3,131.8,197.5,131.7z"/>
	<path class="st0" d="M38.3,114.9l4.2,0.1v-4.4C39.5,110.1,38.3,114.9,38.3,114.9z"/>
	<path class="st0" d="M289,187.4h2.1v-4.8C289,182,289,187.4,289,187.4z"/>
	<path class="st0" d="M260.5,187.3l2.6-0.1l1.4-5.7C261.8,179.8,260.5,187.3,260.5,187.3z"/>
	<polygon class="st0" points="183.2,129.7 183.3,132 185.6,131.5 185.1,129.2 	"/>
	<polygon class="st0" points="256.3,187.9 257.6,187.9 257.6,185.3 259.7,185.3 259.7,183.4 256.3,183.8 	"/>
	<path class="st0" d="M190.1,128.8c0,0-0.1,2.5-0.1,2.3c0.1-0.2,3.1,0.1,3.1,0.1l-0.1-2.2L190.1,128.8z"/>
	<path class="st0" d="M194.3,129.1l-0.1,2.2c0,0,2.2,0.2,2.4,0.4c0.1,0.1,0.1-2,0.1-2L194.3,129.1z"/>
	<path class="st0" d="M186.3,129.1l-0.1,2.2c0,0,3-0.3,3.1-0.1c0.1,0.2-0.1-2.3-0.1-2.3L186.3,129.1z"/>
	<linearGradient id="SVGID_39_" gradientUnits="userSpaceOnUse" x1="179.6982" y1="3.6338" x2="179.6982" y2="1630">
		<stop  offset="0.1966" style="stop-color:#AAD037"/>
		<stop  offset="0.809" style="stop-color:#91C13E"/>
	</linearGradient>
	<path class="st42" d="M1,1630h357.4l0-1430.9c-2.7-0.2-8.6,0-8.6,0H342V199h-1.5v-1.2h1.5v-1h-1.5v-1.2h1.5v-1h-1.5v-1.2h1.5v0v-1
		h-1.5v-1.2h1.5V191v-0.8h-1.6V189h1.6v-0.9V188h-1.6v-1.2h1.6v-1h-1.6v-1.2h1.6v-1h-1.6v-1.2h1.6v-0.9h-1.6v-1.2h1.6v-0.5v-0.5
		h-1.6v-1.2h1.6v-0.9v-0.1h-1.6v-1.2h1.6v-1h-1.6v-1.2h1.6v-1h-1.7v-1.2h1.7v-0.1v-0.9h-1.7v-1.2h1.7v-0.6v-0.4h-1.7v-1.2h1.7v-1
		h-1.7v-1.2h1.7v-9c-3-0.6-5.1,1.8-7.2,3.9c-2.1,2.1-6,2.4-6,2.4l-4.8-2.7v-13.2h-8.7v-6.6h-6.9c-0.3-2.4-2.7-4.8-5.4-4.8
		c-2.7,0-5.4,4.8-5.4,4.8h-6.6v25.2c-2.7-0.6-5.1,11.1-5.7,13.2c-0.6,2.1-2.1,10.5-4.2,10.5c-2.1,0-1.2-10.2-1.2-10.2h-6.3L269,185
		l5.4-20.1c-3.6-1.5-6.3,2.7-8.4,8.1c-2.1,5.4-3.6,9-5.1,7.5c-1.5-1.5-4.8,0.6-4.8,0.6l-1.7-0.1v-1.2v-4.4h-1.1v5v0.2v0.6
		c-1,0.8-1.8,2-1.8,2h1.8l-1.1,2.8l-1.6,3.8h-1.9H245v4.5v6.3h-5.7h-2.7v-2.1h-4.5v7.8c-4.2,5.1-7.8-0.6-7.8-0.6
		c-3.9-1.2-0.3-2.7-0.3-2.7l-1.8-4.8h-3v-2.4h-6.3v2.7c0,0-3.3,0.3-6.9,0c-3.6-0.3-2.4-4.2-2.4-4.2h-2.4V182l-4.2,0.5v-9.1
		c0.4-0.7,2-13.9,2-13.9c0.4-0.2,0.4-1.4,0.4-1.4c1.2-1.5,0.9-24.2,1-24.4c0.1-0.2,1.5-3.9,1.5-3.9c7.8-2.2,3-4.8,3-4.8
		c10.8-4.1-0.8-7.7-0.8-7.7c-0.7-0.6-1.7-0.8-1.7-0.8c0-0.5-2.3-1.4-2.3-1.4c0-2.2-2.5-2.8-2.5-2.8c1.1-0.8,0.4-1.1,0.5-1.4
		c0.1-0.4-1.8-11.1-1.8-11.1c3.8-1,0.6-2.7,0.6-2.7s-1.4,0.4,1.4-1.2c2.8-1.5,1-2.2,0.5-2.7c-0.5-0.5-4.1-1.3-4.1-1.3
		c-1.2-5.6-1.1-6.6-1.1-6.6c3-1.4,1.4-1.7,1.4-2c0-0.3-3.3-1.2-3.3-1.2l-0.2-9.7l-0.7-0.9l0.1-19.8c2.3-1-0.5-1.7-0.5-1.7L189.9,36
		c1.8-0.4-0.1-1.2-0.1-1.2l-0.3-11.3c1.7-0.8-0.1-1.1-0.1-1.1l-0.6-18.7l-0.2,0l-0.3,18.7c-1.6,0.4,0,1.2,0,1.2L188.1,35
		c-1.7,0.5,0.1,0.9,0.1,0.9l-0.1,14.3c0,0,0-0.1-0.9,0.7c-0.9,0.7,0.8,1.2,0.8,1.2l0.2,19.7l-0.7,0.9l0.1,9.9c0,0-2,0.1-3.2,1.2
		c-1.3,1.1,1,1.7,1.4,1.8c0.4,0.1-1,6.6-1,6.6s-0.5,0-3.2,1c-2.7,1-1.4,2.7-0.9,2.9c0.5,0.2,1.5,1.4,1.5,1.4c-2,2.5,1.6,2.6,1.3,2.6
		c-0.3,0-1.5,10-1.7,11c-0.2,1,0.6,1.7,0.6,1.7c-3,1-2.6,2.9-2.6,2.9c-1.7,0.5-1.7,1.1-1.7,1.1c-1.6,0.4-2.4,1.2-2.4,1.2
		c-10.8,4.1-0.2,7.6-0.2,7.6c-4.3,3.1,3.3,4.6,3,4.6c-0.2,0.1,1.9,4.8,1.9,4.8l0.2,10.7c0,0,1,11.2,1.2,12.3
		c0.1,1.1,0.6,1.7,0.6,1.7c-0.7,0.3,0.2,1.4,0.2,1.4l2.2,13l0.1,8.7l-19.3-1.1v-8.4h-18l-0.3-14.4l-1.8,14.7h-16.8
		c0,4.5,0.9,20.4-1.8,20.4c-2.7,0-1.5-5.1-1.5-5.1c-2.4-1.8-21-0.6-21-0.6c-0.3,7.2-2.1,1.2-2.1,1.2l-4.2,0.6v19.2H97v-55.6
		c-2.7-1.8,0.8-2.7,0.8-2.7v-5.7H95v-3h2.7v-1.7H93v-2.2h-1.4V136H73v1.2h-1.7v-14.5h-1.1v-6.9c1.9-2-3.1-5.7-3.1-5.7
		c-7-5.1-17.7-4.2-17.7-4.2s-6.6,0-14.6,3.2c-8.5,3.4-3,6.4-3,6.4v6.8H29v53.9h-3.4v-18.8h-3.2v-3.4h-2v-3.4h-4.8l-0.8-1.1h-2.2
		c-1.1-11-8.7-13.7-8.7-13.7L3,121.3l-0.9,14.4L1,1630z M197.8,130l1.4,0.4l0.1,2c0,0-1.5-0.8-1.7-0.7
		C197.3,131.8,197.8,130,197.8,130z M181.1,133.1l0.1-2.5l0.7-0.5l0.8,2.3L181.1,133.1z M34.9,121.9h-1.7v-6h1.7V121.9z M42.5,115
		l-4.2-0.1c0,0,1.2-4.8,4.2-4.2V115z M49.8,114.7v0.3h-6.3v-4.7c0,0,5-1.4,6.3-1.1V114.7z M57.2,115h-6.3v-0.3v-5.4
		c1.4-0.3,6.3,1.1,6.3,1.1V115z M58.3,115v-4.4c3-0.6,4.2,4.2,4.2,4.2L58.3,115z M68.3,121.3h-0.6v-2.2h-1.5v-2.2
		c0.8-0.1,1.5-0.1,2.1-0.3V121.3z M183.3,132l-0.1-2.2l1.9-0.5l0.5,2.3L183.3,132z M189.3,131.2c-0.1-0.2-3.1,0.1-3.1,0.1l0.1-2.2
		l3-0.1C189.2,128.9,189.4,131.5,189.3,131.2z M190,131.1c-0.1,0.2,0.1-2.3,0.1-2.3l3,0.1l0.1,2.2
		C193.2,131.2,190.1,130.9,190,131.1z M196.5,131.6c-0.1-0.1-2.4-0.4-2.4-0.4l0.1-2.2l2.3,0.6C196.6,129.7,196.7,131.8,196.5,131.6z
		 M259.7,185.3h-2.1v2.6h-1.4v-4.1l3.5-0.5V185.3z M263,187.1l-2.6,0.1c0,0,1.4-7.5,3.9-5.9L263,187.1z M291.1,187.4H289
		c0,0,0-5.4,2.1-4.8V187.4z"/>
	<polygon class="st20" points="340.3,166.1 342,166.1 344.8,166.1 344.8,164.9 342,164.9 340.3,164.9 	"/>
	<polygon class="st20" points="340.3,168.3 342,168.3 344.8,168.3 344.8,167.1 342,167.1 340.3,167.1 	"/>
	<polygon class="st20" points="340.3,170.5 342,170.5 344.8,170.5 344.8,169.3 342,169.3 340.3,169.3 	"/>
	<polygon class="st20" points="340.3,172.7 342,172.7 344.8,172.7 344.8,171.5 342,171.5 340.3,171.5 	"/>
	<polygon class="st20" points="340.4,174.9 342,174.9 344.9,174.9 344.9,173.7 342,173.7 340.4,173.7 	"/>
	<polygon class="st20" points="340.4,177.1 342,177.1 344.9,177.1 344.9,175.9 342,175.9 340.4,175.9 	"/>
	<polygon class="st20" points="340.4,179.3 342,179.3 344.9,179.3 344.9,178.1 342,178.1 340.4,178.1 	"/>
	<polygon class="st20" points="340.4,181.5 342,181.5 344.9,181.5 344.9,180.3 342,180.3 340.4,180.3 	"/>
	<polygon class="st20" points="340.4,183.6 342,183.6 344.9,183.6 344.9,182.4 342,182.4 340.4,182.4 	"/>
	<polygon class="st20" points="340.4,185.8 342,185.8 344.9,185.8 344.9,184.6 342,184.6 340.4,184.6 	"/>
	<polygon class="st20" points="340.4,188 342,188 344.9,188 344.9,186.8 342,186.8 340.4,186.8 	"/>
	<polygon class="st20" points="340.4,190.2 342,190.2 344.9,190.2 344.9,189 342,189 340.4,189 	"/>
	<polygon class="st20" points="340.5,192.4 342,192.4 345,192.4 345,191.2 342,191.2 340.5,191.2 	"/>
	<polygon class="st20" points="340.5,194.6 342,194.6 345,194.6 345,193.4 342,193.4 340.5,193.4 	"/>
	<polygon class="st20" points="340.5,196.8 342,196.8 345,196.8 345,195.6 342,195.6 340.5,195.6 	"/>
	<polygon class="st20" points="340.5,199 342,199 345,199 345,197.8 342,197.8 340.5,197.8 	"/>
</g>
<path class="st20" d="M209.1,116.2l-0.3,0c0-0.2,0-0.4-0.1-0.6l0.2,0l0-0.3l-0.3,0c-0.1-0.2-0.2-0.4-0.4-0.6c0,0-0.1-0.1-0.1-0.1
	l0.3,0l0-0.3l-0.5,0.1c-0.3-0.3-0.6-0.5-0.9-0.7l0.3-0.1l-0.1-0.3l-0.6,0.1c-0.5-0.3-1-0.5-1.5-0.7l0.3-0.1l-0.1-0.3l-0.7,0.2
	c-0.7-0.2-1.4-0.4-2.1-0.6l0.5-0.2l-0.1-0.3l-0.8,0.4c-2-0.4-4.2-0.7-5.8-0.8c-5.4-0.5-11.7-0.2-15.9,0.6c-1.5,0.3-2.8,0.6-3.9,1
	l-0.5-0.2l-0.1,0.3l0.2,0.1c-0.7,0.2-1.2,0.5-1.7,0.7l-0.7-0.1l-0.1,0.3l0.3,0.1c-0.4,0.2-0.7,0.5-1,0.7l-0.6-0.1l0,0.3l0.4,0.1
	c-0.3,0.3-0.5,0.5-0.7,0.8l-0.3,0l0,0.3l0.2,0c0,0.1-0.1,0.1-0.1,0.2c-0.1,0.2-0.1,0.3-0.1,0.5l-0.4,0l0,0.3l0.4,0
	c0,0.8,0.3,1.3,0.3,1.4l0.2-0.2v0c0,0-0.3-0.5-0.3-1.2l2.9,0.1l0-0.3l-2.9-0.1c0-0.1,0.1-0.3,0.1-0.4c0-0.1,0.1-0.2,0.1-0.3l3.9,0.4
	l0-0.3l-3.8-0.4c0.2-0.2,0.4-0.5,0.7-0.8l4.8,0.7l0-0.3l-4.5-0.6c0.3-0.2,0.6-0.4,1.1-0.7l4.3,0.9l0.1-0.3l-3.9-0.8
	c0.5-0.2,1-0.4,1.7-0.7l3.6,1.3l0.1-0.3l-3.2-1.2c1-0.3,2.1-0.6,3.5-0.9c5.7-1.1,14.9-1.1,21.2,0.2l-2.6,1.2l0.1,0.3l3-1.4
	c0.7,0.2,1.4,0.3,2,0.5l-3.5,1l0.1,0.3l3.9-1.1c0.6,0.2,1.1,0.4,1.6,0.7l-4.3,0.9l0.1,0.3l4.6-0.9c0.4,0.2,0.7,0.4,1,0.7l-4.6,0.5
	l0,0.3l4.9-0.6c0.1,0.1,0.2,0.2,0.2,0.3c0.1,0.2,0.2,0.3,0.3,0.5l-3.8,0.2l0,0.3l3.9-0.2c0.1,0.2,0.1,0.4,0.1,0.6l-2.2-0.1l0,0.3
	l2.2,0.1c0,0.3-0.1,0.6-0.3,0.9l0.3,0.1c0.2-0.3,0.3-0.7,0.3-1l0.3,0L209.1,116.2z"/>
</svg>
