<?xml version="1.0" encoding="utf-8"?>
<!-- Generator: Adobe Illustrator 19.0.1, SVG Export Plug-In . SVG Version: 6.00 Build 0)  -->
<svg version="1.1" id="Layer_1" xmlns="http://www.w3.org/2000/svg" xmlns:xlink="http://www.w3.org/1999/xlink" x="0px" y="0px" xml:space="preserve">
<style type="text/css">
	.st0{fill:url(#SVGID_1_);}
	.st1{fill:none;}
	.st2{fill:url(#SVGID_2_);}
	.st3{fill:url(#SVGID_3_);}
	.st4{fill:url(#SVGID_4_);}
	.st5{fill:url(#SVGID_5_);}
	.st6{fill:url(#SVGID_6_);}
	.st7{fill:url(#SVGID_7_);}
	.st8{fill:url(#SVGID_8_);}
	.st9{fill:url(#SVGID_9_);}
	.st10{fill:url(#SVGID_10_);}
	.st11{fill:url(#SVGID_11_);}
	.st12{fill:url(#SVGID_12_);}
	.st13{fill:url(#SVGID_13_);}
	.st14{fill:url(#SVGID_14_);}
	.st15{fill:url(#SVGID_15_);}
	.st16{fill:url(#SVGID_16_);}
	.st17{fill:url(#SVGID_17_);}
	.st18{fill:url(#SVGID_18_);}
	.st19{fill:url(#SVGID_19_);}
	.st20{fill:url(#SVGID_20_);}
	.st21{fill:#91C13E;}
	.st22{fill:#637F37;}
	.st23{fill:url(#SVGID_21_);}
	.st24{fill:url(#SVGID_22_);}
	.st25{fill:url(#SVGID_23_);}
	.st26{fill:url(#SVGID_24_);}
	.st27{fill:url(#SVGID_25_);}
	.st28{fill:url(#SVGID_26_);}
	.st29{fill:url(#SVGID_27_);}
	.st30{fill:url(#SVGID_28_);}
	.st31{fill:url(#SVGID_29_);}
	.st32{fill:url(#SVGID_30_);}
	.st33{fill:url(#SVGID_31_);}
	.st34{fill:url(#SVGID_32_);}
	.st35{fill:url(#SVGID_33_);}
	.st36{fill:url(#SVGID_34_);}
	.st37{fill:url(#SVGID_35_);}
	.st38{fill:url(#SVGID_36_);}
	.st39{fill:url(#SVGID_37_);}
	.st40{fill:url(#SVGID_38_);}
	.st41{fill:url(#SVGID_39_);}
	.st42{fill:url(#SVGID_40_);}
</style>
<radialGradient id="SVGID_1_" cx="294.2" cy="1401" r="229.3002" gradientTransform="matrix(1 0 0 -1 0 1630)" gradientUnits="userSpaceOnUse">
	<stop  offset="0" style="stop-color:#F9F5B2"/>
	<stop  offset="1" style="stop-color:#F3ED62"/>
</radialGradient>
<path class="st0" d="M294.2,0C421,0,523.8,102.5,523.8,229S421,458,294.2,458S64.6,355.5,64.6,229C64.6,102.5,167.4,0,294.2,0z"/>
<g>
	<path class="st1" d="M63,170.6v7.1h10.2v-0.5V169C71,168.5,63,170.6,63,170.6z"/>
	<path class="st1" d="M54.5,177.5l6.8,0.2v-6.6C56.4,170.1,54.5,177.5,54.5,177.5z"/>
	<path class="st1" d="M75,169v8.3v0.5h10.2v-7.1C85.2,170.6,77.2,168.5,75,169z"/>
	<path class="st1" d="M99.7,184h2.4v3.4h0.9v-7.2c-0.9,0.2-2,0.3-3.3,0.4V184z"/>
	<rect x="46.5" y="179.1" class="st1" width="2.7" height="9.2"/>
	<polygon class="st1" points="407,288.9 409.2,288.9 409.2,285 412.6,285 412.6,282.1 407,282.7 	"/>
	<path class="st1" d="M86.9,171.1v6.6l6.8-0.2C93.7,177.5,91.8,170.1,86.9,171.1z"/>
	<path class="st1" d="M413.8,288l4.1-0.2l2.2-8.7C416,276.6,413.8,288,413.8,288z"/>
	<path class="st1" d="M460,288.3h3.4V281C460,280,460,288.3,460,288.3z"/>
</g>
<g>
	
		<linearGradient id="SVGID_2_" gradientUnits="userSpaceOnUse" x1="294.7745" y1="1619.6" x2="300.5158" y2="1619.6" gradientTransform="matrix(1 0 0 -1 0 1630)">
		<stop  offset="0.1966" style="stop-color:#AAD037"/>
		<stop  offset="0.809" style="stop-color:#91C13E"/>
	</linearGradient>
	<polygon class="st2" points="295,8.5 294.8,12.1 294.8,12.4 295.1,12.4 300.2,12.4 300.5,12.4 300.5,12.1 300.3,8.4 300.1,8.4 
		299.8,12.1 300.2,11.8 295.1,11.8 295.5,12.1 295.2,8.5 	"/>
</g>
<g>
	
		<linearGradient id="SVGID_3_" gradientUnits="userSpaceOnUse" x1="295.0092" y1="1611" x2="300.7496" y2="1611" gradientTransform="matrix(1 0 0 -1 0 1630)">
		<stop  offset="0.1966" style="stop-color:#AAD037"/>
		<stop  offset="0.809" style="stop-color:#91C13E"/>
	</linearGradient>
	<polygon class="st3" points="295.2,17 295,20.6 295,21 295.4,21 300.4,21 300.7,21 300.7,20.6 300.5,17 300.3,17 300,20.6 
		300.4,20.3 295.4,20.3 295.7,20.6 295.5,17 	"/>
</g>
<g>
	
		<linearGradient id="SVGID_4_" gradientUnits="userSpaceOnUse" x1="295.1275" y1="1606.6" x2="300.8679" y2="1606.6" gradientTransform="matrix(1 0 0 -1 0 1630)">
		<stop  offset="0.1966" style="stop-color:#AAD037"/>
		<stop  offset="0.809" style="stop-color:#91C13E"/>
	</linearGradient>
	<polygon class="st4" points="295.4,21.4 295.1,25.1 295.1,25.4 295.5,25.4 300.5,25.4 300.9,25.4 300.9,25.1 300.6,21.4 
		300.4,21.4 300.2,25.1 300.5,24.7 295.5,24.7 295.8,25.1 295.6,21.4 	"/>
</g>
<linearGradient id="SVGID_5_" gradientUnits="userSpaceOnUse" x1="294.6758" y1="1616.05" x2="300.6644" y2="1616.05" gradientTransform="matrix(1 0 0 -1 0 1630)">
	<stop  offset="0.1966" style="stop-color:#AAD037"/>
	<stop  offset="0.809" style="stop-color:#91C13E"/>
</linearGradient>
<polygon class="st5" points="300.2,13.3 300.2,13.7 295.1,13.7 295.1,13.3 294.7,13.3 294.7,14.6 295.1,14.6 295.1,14.2 300.2,14.2 
	300.2,14.6 300.7,14.6 300.7,13.3 "/>
<linearGradient id="SVGID_6_" gradientUnits="userSpaceOnUse" x1="294.6758" y1="1614.1" x2="300.6623" y2="1614.1" gradientTransform="matrix(1 0 0 -1 0 1630)">
	<stop  offset="0.1966" style="stop-color:#AAD037"/>
	<stop  offset="0.809" style="stop-color:#91C13E"/>
</linearGradient>
<polygon class="st6" points="300.2,15.3 300.2,15.6 295.1,15.6 295.1,15.3 294.7,15.3 294.7,16.5 295.1,16.5 295.1,16.1 300.2,16.1 
	300.2,16.5 300.7,16.5 300.7,15.3 "/>
<linearGradient id="SVGID_7_" gradientUnits="userSpaceOnUse" x1="295.3" y1="1603.55" x2="300.5897" y2="1603.55" gradientTransform="matrix(1 0 0 -1 0 1630)">
	<stop  offset="0.1966" style="stop-color:#AAD037"/>
	<stop  offset="0.809" style="stop-color:#91C13E"/>
</linearGradient>
<polygon class="st7" points="300.2,25.9 300.2,26.2 295.7,26.2 295.7,25.9 295.3,25.9 295.3,27 295.7,27 295.7,26.6 300.2,26.6 
	300.2,27 300.6,27 300.6,25.9 "/>
<linearGradient id="SVGID_8_" gradientUnits="userSpaceOnUse" x1="295.3" y1="1601.85" x2="300.5938" y2="1601.85" gradientTransform="matrix(1 0 0 -1 0 1630)">
	<stop  offset="0.1966" style="stop-color:#AAD037"/>
	<stop  offset="0.809" style="stop-color:#91C13E"/>
</linearGradient>
<polygon class="st8" points="300.2,27.6 300.2,27.9 295.7,27.9 295.7,27.6 295.3,27.6 295.3,28.7 295.7,28.7 295.7,28.3 300.2,28.3 
	300.2,28.7 300.6,28.7 300.6,27.6 "/>
<linearGradient id="SVGID_9_" gradientUnits="userSpaceOnUse" x1="295.3" y1="1600.4" x2="300.5897" y2="1600.4" gradientTransform="matrix(1 0 0 -1 0 1630)">
	<stop  offset="0.1966" style="stop-color:#AAD037"/>
	<stop  offset="0.809" style="stop-color:#91C13E"/>
</linearGradient>
<polygon class="st9" points="300.2,29.1 300.2,29.4 295.7,29.4 295.7,29.1 295.3,29.1 295.3,30.1 295.7,30.1 295.7,29.8 300.2,29.8 
	300.2,30.1 300.6,30.1 300.6,29.1 "/>
<linearGradient id="SVGID_10_" gradientUnits="userSpaceOnUse" x1="295.3" y1="1598.65" x2="300.5938" y2="1598.65" gradientTransform="matrix(1 0 0 -1 0 1630)">
	<stop  offset="0.1966" style="stop-color:#AAD037"/>
	<stop  offset="0.809" style="stop-color:#91C13E"/>
</linearGradient>
<polygon class="st10" points="300.2,30.8 300.2,31.1 295.7,31.1 295.7,30.8 295.3,30.8 295.3,31.8 295.7,31.8 295.7,31.5 
	300.2,31.5 300.2,31.9 300.6,31.9 300.6,30.8 "/>
<g>
	
		<linearGradient id="SVGID_11_" gradientUnits="userSpaceOnUse" x1="295.2823" y1="1590.1" x2="301.0247" y2="1590.1" gradientTransform="matrix(1 0 0 -1 0 1630)">
		<stop  offset="0.1966" style="stop-color:#AAD037"/>
		<stop  offset="0.809" style="stop-color:#91C13E"/>
	</linearGradient>
	<polygon class="st11" points="295.5,37.9 295.3,41.6 295.3,41.9 295.6,41.9 300.7,41.9 301,41.9 301,41.6 300.8,37.9 300.6,37.9 
		300.3,41.6 300.7,41.3 295.6,41.3 296,41.6 295.7,37.9 	"/>
</g>
<linearGradient id="SVGID_12_" gradientUnits="userSpaceOnUse" x1="295.5346" y1="1586.95" x2="300.8253" y2="1586.95" gradientTransform="matrix(1 0 0 -1 0 1630)">
	<stop  offset="0.1966" style="stop-color:#AAD037"/>
	<stop  offset="0.809" style="stop-color:#91C13E"/>
</linearGradient>
<polygon class="st12" points="300.4,42.5 300.4,42.8 295.9,42.8 295.9,42.5 295.5,42.5 295.5,43.6 295.9,43.6 295.9,43.2 
	300.4,43.2 300.4,43.6 300.8,43.6 300.8,42.5 "/>
<linearGradient id="SVGID_13_" gradientUnits="userSpaceOnUse" x1="295.1275" y1="1595.6" x2="301.1826" y2="1595.6" gradientTransform="matrix(1 0 0 -1 0 1630)">
	<stop  offset="0.1966" style="stop-color:#AAD037"/>
	<stop  offset="0.809" style="stop-color:#91C13E"/>
</linearGradient>
<path class="st13" d="M296.1,36.4h-0.9v-3.9l0.3,3.6h0.5l0.2-1.8h0.2v1.8c0,0,0.5-0.3,0.6-0.3s1.8-0.1,1.9,0s0.1-1.6,0.1-1.6h0.2
	l0.1,1.5l0.6,0.1v-2.2h0.2l0.2,2.2h0.5l0.1-3.4l0.3,3.9h-2C299.2,36.1,297.4,35.6,296.1,36.4z"/>
<g>
	
		<linearGradient id="SVGID_14_" gradientUnits="userSpaceOnUse" x1="295.6" y1="1573.8" x2="302.4754" y2="1573.8" gradientTransform="matrix(1 0 0 -1 0 1630)">
		<stop  offset="0.1966" style="stop-color:#AAD037"/>
		<stop  offset="0.809" style="stop-color:#91C13E"/>
	</linearGradient>
	<rect x="295.6" y="55.7" class="st14" width="6.9" height="1"/>
	
		<linearGradient id="SVGID_15_" gradientUnits="userSpaceOnUse" x1="292.4713" y1="1576.15" x2="303.954" y2="1576.15" gradientTransform="matrix(1 0 0 -1 0 1630)">
		<stop  offset="0.1966" style="stop-color:#AAD037"/>
		<stop  offset="0.809" style="stop-color:#91C13E"/>
	</linearGradient>
	<path class="st15" d="M303.5,52.5v2.7H303v-1.5h-0.5v1.5h-6.9v-0.6h5.9h0.2v-0.2v-3.8h-0.5v3.6h-5.6v-0.8h-0.5v0.8h-0.8v-3.5h-0.5
		v3.7v0.2h0.2h1v0.6h-2.2v-2.5h-0.5v2.7v0.2h0.2h2.4v1.3v0.2h0.2h7.3h0.2v-0.2v-1.3h0.8h0.2v-0.2v-3L303.5,52.5L303.5,52.5z
		 M302.5,56.7h-6.9v-1h6.9V56.7z"/>
</g>
<g>
	
		<linearGradient id="SVGID_16_" gradientUnits="userSpaceOnUse" x1="294.9697" y1="1567.25" x2="297.0009" y2="1567.25" gradientTransform="matrix(1 0 0 -1 0 1630)">
		<stop  offset="0.1966" style="stop-color:#AAD037"/>
		<stop  offset="0.809" style="stop-color:#91C13E"/>
	</linearGradient>
	<path class="st16" d="M297,57.7h-1.8v2.1h1.6v0.7h-1.6V63h1.6v0.9H295v2.8h1.6l0.5,1.1L297,57.7z M296.7,59.4h-1.2v-0.3h1.2V59.4z
		 M296.7,58.9h-1.2v-0.3h1.2V58.9z M296.7,58.5h-1.2v-0.3h1.2V58.5z M296.7,62.5h-1.2v-0.3h1.2V62.5z M296.7,61.9h-1.2v-0.3h1.2
		V61.9z M296.7,61.5h-1.2v-0.3h1.2V61.5z M296.6,66h-1.2v-0.3h1.2V66z M296.6,65.5h-1.2v-0.3h1.2V65.5z M296.6,65h-1.2v-0.3h1.2V65z
		 M296.6,64.5h-1.2v-0.3h1.2V64.5z"/>
</g>
<g>
	
		<linearGradient id="SVGID_17_" gradientUnits="userSpaceOnUse" x1="299.7163" y1="1567.2" x2="301.7163" y2="1567.2" gradientTransform="matrix(1 0 0 -1 0 1630)">
		<stop  offset="0.1966" style="stop-color:#AAD037"/>
		<stop  offset="0.809" style="stop-color:#91C13E"/>
	</linearGradient>
	<path class="st17" d="M299.8,67.8l0.4-1.1h1.6v-2.8H300V63h1.6v-2.4H300v-0.7h1.6v-2.1h-1.8L299.8,67.8z M300,59.1h1.2v0.3H300
		V59.1z M300,58.6h1.2v0.3H300V58.6z M300,58.1h1.2v0.3H300V58.1z M300,62.2h1.2v0.3H300V62.2z M300,61.6h1.2V62H300V61.6z
		 M300,61.2h1.2v0.3H300V61.2z M300.1,65.7h1.2V66h-1.2V65.7z M300.1,65.2h1.2v0.3h-1.2V65.2z M300.1,64.6h1.2V65h-1.2V64.6z
		 M300.1,64.2h1.2v0.3h-1.2V64.2z"/>
</g>
<g>
	
		<linearGradient id="SVGID_18_" gradientUnits="userSpaceOnUse" x1="294.5585" y1="1543.35" x2="296.8462" y2="1543.35" gradientTransform="matrix(1 0 0 -1 0 1630)">
		<stop  offset="0.1966" style="stop-color:#AAD037"/>
		<stop  offset="0.809" style="stop-color:#91C13E"/>
	</linearGradient>
	<path class="st18" d="M296.7,82.2h-2v2.1h1.6V85h-1.6v2.4h1.6v0.9h-1.8v2.8h1.6h0.7L296.7,82.2z M296.3,83.9H295v-0.3h1.2
		L296.3,83.9L296.3,83.9z M296.3,83.4H295V83h1.2L296.3,83.4L296.3,83.4z M296.3,82.9H295v-0.3h1.2L296.3,82.9L296.3,82.9z
		 M296.3,86.9H295v-0.3h1.2L296.3,86.9L296.3,86.9z M296.3,86.4H295v-0.3h1.2L296.3,86.4L296.3,86.4z M296.3,85.9H295v-0.3h1.2
		L296.3,85.9L296.3,85.9z M296.2,90.5H295v-0.3h1.2V90.5z M296.2,89.9H295v-0.3h1.2V89.9z M296.2,89.4H295v-0.3h1.2V89.4z
		 M296.2,88.9H295v-0.3h1.2V88.9z"/>
</g>
<g>
	
		<linearGradient id="SVGID_19_" gradientUnits="userSpaceOnUse" x1="294.5585" y1="1533.45" x2="296.9656" y2="1533.45" gradientTransform="matrix(1 0 0 -1 0 1630)">
		<stop  offset="0.1966" style="stop-color:#AAD037"/>
		<stop  offset="0.809" style="stop-color:#91C13E"/>
	</linearGradient>
	<path class="st19" d="M296.9,92h-2.2v2.1h1.6V95h-1.6v2.4h1.6v0.9h-1.8v2.8h1.6h0.8V92z M296.3,93.8H295v-0.3h1.2L296.3,93.8
		L296.3,93.8z M296.3,93.3H295V93h1.2L296.3,93.3L296.3,93.3z M296.3,92.8H295v-0.3h1.2L296.3,92.8L296.3,92.8z M296.3,96.8H295
		v-0.3h1.2L296.3,96.8L296.3,96.8z M296.3,96.3H295V96h1.2L296.3,96.3L296.3,96.3z M296.3,95.8H295v-0.3h1.2L296.3,95.8L296.3,95.8z
		 M296.2,100.4H295V100h1.2V100.4z M296.2,99.8H295v-0.3h1.2V99.8z M296.2,99.3H295V99h1.2V99.3z M296.2,98.8H295v-0.3h1.2V98.8z"/>
</g>
<g>
	
		<linearGradient id="SVGID_20_" gradientUnits="userSpaceOnUse" x1="294.6198" y1="1523.55" x2="297.0891" y2="1523.55" gradientTransform="matrix(1 0 0 -1 0 1630)">
		<stop  offset="0.1966" style="stop-color:#AAD037"/>
		<stop  offset="0.809" style="stop-color:#91C13E"/>
	</linearGradient>
	<path class="st20" d="M297,102h-2.2v2.1h1.6v0.7h-1.6v2.4h1.6v0.9h-1.8v2.8h1.6l0.9-0.1L297,102z M296.3,103.7h-1.2v-0.3h1.2V103.7
		z M296.3,103.2h-1.2v-0.3h1.2V103.2z M296.3,102.7h-1.2v-0.3h1.2V102.7z M296.3,106.7h-1.2v-0.3h1.2V106.7z M296.3,106.2h-1.2v-0.3
		h1.2V106.2z M296.3,105.7h-1.2v-0.3h1.2V105.7z M296.3,110.3H295V110h1.2L296.3,110.3L296.3,110.3z M296.3,109.7H295v-0.3h1.2
		L296.3,109.7L296.3,109.7z M296.3,109.2H295v-0.3h1.2L296.3,109.2L296.3,109.2z M296.3,108.7H295v-0.3h1.2L296.3,108.7L296.3,108.7
		z"/>
</g>
<g>
	<path class="st21" d="M301.2,91.2h0.7h1.6v-2.8h-1.8v-0.9h1.6v-2.4h-1.6v-0.7h1.6v-2.1h-2.2L301.2,91.2z M301.8,83.7h1.2V84h-1.2
		V83.7z M301.8,83.2h1.2v0.3h-1.2V83.2z M301.8,82.7h1.2V83h-1.2V82.7z M301.8,86.7h1.2V87h-1.2V86.7z M301.8,86.2h1.2v0.3h-1.2
		V86.2z M301.8,85.7h1.2V86h-1.2V85.7z M301.9,90.3h1.2v0.3h-1.2V90.3z M301.9,89.7h1.2V90h-1.2V89.7z M301.9,89.2h1.2v0.3h-1.2
		V89.2z M301.9,88.7h1.2V89h-1.2V88.7z"/>
</g>
<g>
	<path class="st21" d="M301.2,101.1h0.7h1.6v-2.8h-1.8v-0.9h1.6V95h-1.6v-0.7h1.6v-2.1h-2.1L301.2,101.1z M301.8,93.6h1.2v0.3h-1.2
		V93.6z M301.8,93h1.2v0.3h-1.2V93z M301.8,92.6h1.2v0.3h-1.2V92.6z M301.8,96.6h1.2v0.3h-1.2V96.6z M301.8,96.1h1.2v0.3h-1.2V96.1z
		 M301.8,95.6h1.2v0.3h-1.2V95.6z M301.9,100.2h1.2v0.3h-1.2V100.2z M301.9,99.6h1.2v0.3h-1.2V99.6z M301.9,99.1h1.2v0.3h-1.2V99.1z
		 M301.9,98.6h1.2v0.3h-1.2V98.6z"/>
</g>
<g>
	<path class="st21" d="M301.2,111h0.7h1.6v-2.8h-1.8v-0.9h1.6V105h-1.6v-0.7h1.6v-2.1h-2.2L301.2,111z M301.8,103.5h1.2v0.3h-1.2
		V103.5z M301.8,103h1.2v0.3h-1.2V103z M301.8,102.5h1.2v0.3h-1.2V102.5z M301.8,106.5h1.2v0.3h-1.2V106.5z M301.8,106h1.2v0.3h-1.2
		V106z M301.8,105.5h1.2v0.3h-1.2V105.5z M301.8,110.1h1.2v0.3h-1.2V110.1z M301.8,109.5h1.2v0.3h-1.2V109.5z M301.8,109h1.2v0.3
		h-1.2V109z M301.8,108.5h1.2v0.3h-1.2V108.5z"/>
</g>
<line class="st1" x1="542.9" y1="254.8" x2="550.2" y2="254.8"/>
<line class="st1" x1="542.9" y1="258.2" x2="550.2" y2="258.2"/>
<g>
	<path class="st1" d="M75,169v8.3v0.5h10.2v-7.1C85.2,170.6,77.2,168.5,75,169z"/>
	<path class="st1" d="M63,170.6v7.1h10.2v-0.5V169C71,168.5,63,170.6,63,170.6z"/>
	<path class="st1" d="M86.9,171.1v6.6l6.8-0.2C93.7,177.5,91.8,170.1,86.9,171.1z"/>
	<path class="st1" d="M99.7,184h2.4v3.4h0.9v-7.2c-0.9,0.2-2,0.3-3.3,0.4V184z"/>
	<rect x="46.5" y="179.1" class="st1" width="2.7" height="9.2"/>
	<polygon class="st1" points="285.6,201.5 285.5,205.2 288,204.2 286.7,200.7 	"/>
	<path class="st1" d="M312,203.1c0.4-0.1,2.8,1.1,2.8,1.1l-0.1-3l-2.2-0.7C312.5,200.6,311.6,203.2,312,203.1z"/>
	<path class="st1" d="M54.5,177.5l6.8,0.2v-6.6C56.4,170.1,54.5,177.5,54.5,177.5z"/>
	<path class="st1" d="M460,288.3h3.4V281C460,280,460,288.3,460,288.3z"/>
	<path class="st1" d="M413.8,288l4.1-0.2l2.2-8.7C416,276.6,413.8,288,413.8,288z"/>
	<polygon class="st1" points="288.9,200.1 289,203.6 292.8,202.9 292,199.4 	"/>
	<polygon class="st1" points="407,288.9 409.2,288.9 409.2,285 412.6,285 412.6,282.1 407,282.7 	"/>
	<path class="st1" d="M300.1,198.7c0,0-0.2,3.9-0.1,3.5c0.1-0.3,5,0.1,5,0.1l-0.1-3.4L300.1,198.7z"/>
	<path class="st1" d="M306.8,199.1l-0.2,3.3c0,0,3.6,0.3,3.9,0.6c0.2,0.2,0.1-3,0.1-3L306.8,199.1z"/>
	<path class="st1" d="M293.8,199.1l-0.1,3.4c0,0,4.9-0.4,5-0.1c0.1,0.3-0.1-3.5-0.1-3.5L293.8,199.1z"/>
	<path class="st22" d="M-4.1,1630h576.3V307.2c-4.1-0.9-12.3,0.5-12.3,0.5h-12.6v-0.1h-2.4v-1.8h2.4v-1.5h-2.4v-1.8h2.4V301h-2.4v-2
		h2.4l0,0v-1.5h-2.4v-1.8h2.4v-0.3v-1.2h-2.6v-1.8h2.6V291v-0.1h-2.6v-1.8h2.6v-1.5h-2.6v-1.8h2.6V284h-2.6v-1.8h2.6v-1.4h-2.6V279
		h2.6v-0.8v-0.7h-2.6v-1.8h2.6v-1.4v-0.1h-2.6v-1.8h2.6v-1.5h-2.6v-1.8h2.6v-1.5h-2.8v-1.8h2.8v-0.2V264h-2.8v-1.8h2.8v-0.9v-0.6
		h-2.8v-1.8h2.8v-1.5h-2.8v-1.8h2.8v-13.8c-4.9-0.9-8.3,2.8-11.7,6s-9.7,3.7-9.7,3.7l-7.8-4.1v-20.2H504v-10.1h-11.2
		c-0.5-3.7-4.4-7.3-8.7-7.3c-4.4,0-8.7,7.3-8.7,7.3h-10.7v38.5c-4.4-0.9-8.3,17-9.2,20.2c-1,3.2-3.4,16.1-6.8,16.1
		s-1.9-15.6-1.9-15.6h-10.2l-7.3,10.1l8.7-30.7c-5.8-2.3-10.2,4.1-13.6,12.4c-3.4,8.3-5.8,13.8-8.3,11.5c-2.4-2.3-7.8,0.9-7.8,0.9
		l-2.7-0.1v-1.9v-6.7H404v7.7v0.3v0.9c-1.6,1.2-2.8,3-2.8,3h2.9l-1.8,4.2l-2.5,5.8h-3.1h-6.1v6.9v9.6h-9.3H377V307h-7.3v11.9
		c-6.8,7.8-12.6-0.9-12.6-0.9c-6.3-1.8-0.5-4.1-0.5-4.1l-2.9-7.3h-4.9v-3.7h-10.2v4.1c0,0-5.3,0.5-11.2,0c-5.8-0.5-3.9-6.4-3.9-6.4
		h-3.9v-18.8l-6.7,0.8v-13.9c0.6-1,3.3-21.3,3.3-21.3c0.7-0.3,0.6-2.1,0.6-2.1c2-2.3,1.4-37,1.6-37.3s2.5-6,2.5-6
		c12.7-3.3,4.9-7.3,4.9-7.3c17.5-6.3-1.3-11.7-1.3-11.7c-1.2-0.9-2.7-1.2-2.7-1.2c0-0.8-3.8-2.1-3.8-2.1c0-3.3-4-4.2-4-4.2
		c1.8-1.2,0.7-1.7,0.8-2.2c0.1-0.6-2.9-16.9-2.9-16.9c6.1-1.6,0.9-4.1,0.9-4.1s-2.3,0.6,2.2-1.8c4.6-2.3,1.6-3.3,0.8-4.1
		c-0.8-0.8-6.7-2-6.7-2c-1.9-8.5-1.8-10.1-1.8-10.1c4.8-2.1,2.2-2.5,2.2-3c0-0.4-5.4-1.8-5.4-1.8l-0.3-14.9l-1.1-1.3l0.1-30.3
		c3.7-1.6-0.8-2.6-0.8-2.6l-0.8-21.7c2.9-0.6-0.2-1.8-0.2-1.8l-0.5-17.3c2.8-1.2-0.1-1.7-0.1-1.7l-1-28.6H299l-0.5,28.6
		c-2.6,0.7,0.1,1.8,0.1,1.8L298.5,57c-2.7,0.8,0.1,1.4,0.1,1.4l-0.1,21.8c0,0,0-0.1-1.5,1s1.3,1.8,1.3,1.8l0.4,30.1l-1.2,1.3
		l0.2,15.2c0,0-3.2,0.2-5.2,1.8c-2.2,1.7,1.6,2.5,2.2,2.8c0.6,0.2-1.6,10.1-1.6,10.1s-0.8,0-5.2,1.6c-4.3,1.5-2.2,4.1-1.4,4.4
		c0.8,0.3,2.5,2.1,2.5,2.1c-3.3,3.8,2.6,4,2.1,4s-2.3,15.3-2.7,16.8c-0.4,1.6,0.9,2.5,0.9,2.5c-4.8,1.5-4.2,4.4-4.2,4.4
		c-2.7,0.8-2.7,1.7-2.7,1.7c-2.6,0.7-3.9,1.8-3.9,1.8c-17.5,6.3-0.4,11.6-0.4,11.6c-7,4.8,5.3,7,4.9,7.1s3,7.3,3,7.3l0.4,16.4
		c0,0,1.6,17.2,1.9,18.8c0.2,1.7,0.9,2.5,0.9,2.5c-1.2,0.4,0.4,2.2,0.4,2.2l3.5,19.9l0.2,13.3l-31.2-1.6v-12.8H233l-1.4-22l-2,22.5
		h-27.2c0,6.9,1.5,31.2-2.9,31.2s-2.4-7.8-2.4-7.8c-3.9-2.8-34-0.9-34-0.9c-0.5,11-3.4,1.8-3.4,1.8l-6.8,0.9v29.4H151v-84.9
		c-4.4-2.8,1.3-4.1,1.3-4.1v-8.7h-4.5V221h4.4v-2.6h-7.6V215h-2.3v-3.8h-29.9v1.8h-2.8v-22.2h-1.8v-10.6c3-3.1-5-8.7-5-8.7
		c-11.3-7.8-28.7-6.4-28.7-6.4s-10.7,0-23.6,4.9c-13.7,5.2-4.9,9.8-4.9,9.8v10.4h-4.5v82.3h-5.5v-28.7h-5.2v-5.2h-3.2v-5.2h-7.8
		l-1.3-1.6h-3.6c-1.8-16.9-14.1-20.9-14.1-20.9l-2.3-22l-0.6,22L-4.1,1630z M314.1,202.1l2.2,0.7l0.1,3c0,0-2.5-1.2-2.8-1.1
		C313.3,204.8,314.1,202.1,314.1,202.1z M287.1,206.8l0.1-3.8l1.1-0.8l1.3,3.5L287.1,206.8z M50.8,189.8h-2.7v-9.2h2.7V189.8z
		 M62.9,179.2l-6.8-0.2c0,0,1.9-7.3,6.8-6.4V179.2z M74.8,178.8v0.5H64.6v-7.1c0,0,8-2.1,10.2-1.6C74.8,170.6,74.8,178.8,74.8,178.8
		z M86.8,179.2H76.6v-0.5v-8.3c2.2-0.5,10.2,1.6,10.2,1.6S86.8,179.2,86.8,179.2z M88.5,179.2v-6.6c4.9-0.9,6.8,6.4,6.8,6.4
		L88.5,179.2z M104.7,188.9h-0.9v-3.4h-2.4v-3.4c1.3-0.1,2.4-0.2,3.3-0.4V188.9z M290.7,205.1l-0.1-3.4l3-0.8l0.8,3.5L290.7,205.1z
		 M300.4,204c-0.1-0.3-5,0.1-5,0.1l0.1-3.4l4.8-0.2C300.3,200.5,300.5,204.3,300.4,204z M301.6,203.8c-0.1,0.3,0.1-3.5,0.1-3.5
		l4.8,0.2l0.1,3.4C306.6,203.9,301.7,203.4,301.6,203.8z M312.1,204.6c-0.2-0.2-3.9-0.6-3.9-0.6l0.2-3.3l3.7,0.9
		C312.2,201.6,312.3,204.8,312.1,204.6z M414.2,286.6h-3.4v3.9h-2.2v-6.2l5.6-0.7V286.6z M419.6,289.3l-4.1,0.2
		c0,0,2.2-11.5,6.3-8.9L419.6,289.3z M465,289.8h-3.4c0,0,0-8.3,3.4-7.3V289.8z"/>
	<polygon class="st21" points="542.9,255.7 545.7,255.7 550.2,255.7 550.2,253.9 545.7,253.9 542.9,253.9 	"/>
	<polygon class="st21" points="542.9,259.1 545.7,259.1 550.2,259.1 550.2,257.2 545.7,257.2 542.9,257.2 	"/>
	<polygon class="st21" points="542.9,262.4 545.7,262.4 550.2,262.4 550.2,260.6 545.7,260.6 542.9,260.6 	"/>
	<polygon class="st21" points="542.9,265.8 545.7,265.8 550.2,265.8 550.2,264 545.7,264 542.9,264 	"/>
	<polygon class="st21" points="543.1,269.2 545.7,269.2 550.4,269.2 550.4,267.3 545.7,267.3 543.1,267.3 	"/>
	<polygon class="st21" points="543.1,272.5 545.7,272.5 550.4,272.5 550.4,270.7 545.7,270.7 543.1,270.7 	"/>
	<polygon class="st21" points="543.1,275.9 545.7,275.9 550.4,275.9 550.4,274.1 545.7,274.1 543.1,274.1 	"/>
	<polygon class="st21" points="543.1,279.2 545.7,279.2 550.4,279.2 550.4,277.4 545.7,277.4 543.1,277.4 	"/>
	<polygon class="st21" points="543.1,282.5 545.7,282.5 550.4,282.5 550.4,280.6 545.7,280.6 543.1,280.6 	"/>
	<polygon class="st21" points="543.1,285.8 545.7,285.8 550.4,285.8 550.4,284 545.7,284 543.1,284 	"/>
	<polygon class="st21" points="543.1,289.2 545.7,289.2 550.4,289.2 550.4,287.4 545.7,287.4 543.1,287.4 	"/>
	<polygon class="st21" points="543.1,292.5 545.7,292.5 550.4,292.5 550.4,290.7 545.7,290.7 543.1,290.7 	"/>
	<polygon class="st21" points="543.2,295.9 545.7,295.9 550.5,295.9 550.5,294.1 545.7,294.1 543.2,294.1 	"/>
	<polygon class="st21" points="543.2,299.3 545.7,299.3 550.5,299.3 550.5,297.4 545.7,297.4 543.2,297.4 	"/>
	<polygon class="st21" points="543.2,302.6 545.7,302.6 550.5,302.6 550.5,300.8 545.7,300.8 543.2,300.8 	"/>
	<polygon class="st21" points="543.2,306 545.7,306 550.5,306 550.5,304.2 545.7,304.2 543.2,304.2 	"/>
</g>
<path class="st21" d="M330.8,182.5h-0.5c0-0.3,0-0.7-0.1-1h0.4v-0.4h-0.5c-0.1-0.3-0.3-0.7-0.6-1c-0.1-0.1-0.1-0.1-0.2-0.2l0.5-0.1
	l-0.1-0.4l-0.8,0.1c-0.4-0.4-0.9-0.8-1.5-1.1l0.5-0.1l-0.1-0.4l-1,0.2c-0.8-0.4-1.6-0.8-2.5-1.1l0.5-0.1l-0.1-0.4l-1.1,0.3
	c-1.1-0.3-2.2-0.6-3.3-0.9l0.7-0.3l-0.2-0.4l-1.3,0.6c-3.3-0.7-6.7-1.1-9.3-1.3c-8.8-0.7-18.8-0.3-25.7,0.9c-2.5,0.5-4.6,1-6.3,1.5
	l-0.9-0.3l-0.2,0.4l0.3,0.1c-1.1,0.4-2,0.7-2.7,1.1l-1.1-0.2l-0.1,0.4l0.5,0.1c-0.6,0.3-1.2,0.7-1.6,1l-1-0.1l-0.1,0.4l0.6,0.1
	c-0.5,0.4-0.8,0.8-1.1,1.2l-0.5-0.1l-0.1,0.4h0.3c-0.1,0.1-0.1,0.2-0.2,0.3c-0.1,0.3-0.2,0.5-0.2,0.8h-0.7v0.4h0.7
	c-0.1,1.2,0.5,2,0.5,2.1l0.4-0.3l0,0c0,0-0.5-0.8-0.5-1.8l4.7,0.2v-0.4l-4.7-0.2c0-0.2,0.1-0.4,0.2-0.6c0.1-0.1,0.1-0.3,0.2-0.4
	l6.3,0.7l0.1-0.4l-6.1-0.7c0.3-0.4,0.7-0.8,1.2-1.2l7.8,1.1l0.1-0.4l-7.4-1c0.5-0.3,1-0.7,1.7-1l7,1.3l0.1-0.4l-6.4-1.2
	c0.8-0.3,1.7-0.7,2.7-1l5.8,2l0.2-0.4l-5.2-1.8c1.6-0.5,3.4-0.9,5.7-1.3c9.3-1.7,24.1-1.8,34.2,0.2l-4.2,1.9l0.2,0.4l4.8-2.1
	c1.1,0.2,2.2,0.5,3.2,0.8l-5.6,1.6l0.1,0.4l6.3-1.8c0.9,0.3,1.8,0.6,2.5,1l-6.9,1.3l0.1,0.4l7.5-1.4c0.6,0.3,1.1,0.7,1.6,1l-7.5,0.8
	l0.1,0.4l7.9-0.9c0.1,0.1,0.3,0.3,0.4,0.4c0.2,0.2,0.3,0.5,0.5,0.7l-6.1,0.3v0.4l6.3-0.3c0.1,0.3,0.1,0.6,0.1,0.9l-3.6-0.1v0.4
	l3.6,0.1c-0.1,0.4-0.2,0.9-0.5,1.4l0.4,0.2c0.3-0.5,0.5-1.1,0.6-1.6h0.5L330.8,182.5z"/>
<g>
	<path class="st1" d="M63,170.6v7.1h10.2v-0.5V169C71,168.5,63,170.6,63,170.6z"/>
	<path class="st1" d="M54.5,177.5l6.8,0.2v-6.6C56.4,170.1,54.5,177.5,54.5,177.5z"/>
	<path class="st1" d="M75,169v8.3v0.5h10.2v-7.1C85.2,170.6,77.2,168.5,75,169z"/>
	<path class="st1" d="M99.7,184h2.4v3.4h0.9v-7.2c-0.9,0.2-2,0.3-3.3,0.4V184z"/>
	<rect x="46.5" y="179.1" class="st1" width="2.7" height="9.2"/>
	<polygon class="st1" points="407,288.9 409.2,288.9 409.2,285 412.6,285 412.6,282.1 407,282.7 	"/>
	<path class="st1" d="M86.9,171.1v6.6l6.8-0.2C93.7,177.5,91.8,170.1,86.9,171.1z"/>
	<path class="st1" d="M413.8,288l4.1-0.2l2.2-8.7C416,276.6,413.8,288,413.8,288z"/>
	<path class="st1" d="M460,288.3h3.4V281C460,280,460,288.3,460,288.3z"/>
</g>
<g>
	
		<linearGradient id="SVGID_21_" gradientUnits="userSpaceOnUse" x1="294.7745" y1="1619.6" x2="300.5158" y2="1619.6" gradientTransform="matrix(1 0 0 -1 0 1630)">
		<stop  offset="0.1966" style="stop-color:#AAD037"/>
		<stop  offset="0.809" style="stop-color:#91C13E"/>
	</linearGradient>
	<polygon class="st23" points="295,8.5 294.8,12.1 294.8,12.4 295.1,12.4 300.2,12.4 300.5,12.4 300.5,12.1 300.3,8.4 300.1,8.4 
		299.8,12.1 300.2,11.8 295.1,11.8 295.5,12.1 295.2,8.5 	"/>
</g>
<g>
	
		<linearGradient id="SVGID_22_" gradientUnits="userSpaceOnUse" x1="295.0092" y1="1611" x2="300.7496" y2="1611" gradientTransform="matrix(1 0 0 -1 0 1630)">
		<stop  offset="0.1966" style="stop-color:#AAD037"/>
		<stop  offset="0.809" style="stop-color:#91C13E"/>
	</linearGradient>
	<polygon class="st24" points="295.2,17 295,20.6 295,21 295.4,21 300.4,21 300.7,21 300.7,20.6 300.5,17 300.3,17 300,20.6 
		300.4,20.3 295.4,20.3 295.7,20.6 295.5,17 	"/>
</g>
<g>
	
		<linearGradient id="SVGID_23_" gradientUnits="userSpaceOnUse" x1="295.1275" y1="1606.6" x2="300.8679" y2="1606.6" gradientTransform="matrix(1 0 0 -1 0 1630)">
		<stop  offset="0.1966" style="stop-color:#AAD037"/>
		<stop  offset="0.809" style="stop-color:#91C13E"/>
	</linearGradient>
	<polygon class="st25" points="295.4,21.4 295.1,25.1 295.1,25.4 295.5,25.4 300.5,25.4 300.9,25.4 300.9,25.1 300.6,21.4 
		300.4,21.4 300.2,25.1 300.5,24.7 295.5,24.7 295.8,25.1 295.6,21.4 	"/>
</g>
<linearGradient id="SVGID_24_" gradientUnits="userSpaceOnUse" x1="294.6758" y1="1616.05" x2="300.6644" y2="1616.05" gradientTransform="matrix(1 0 0 -1 0 1630)">
	<stop  offset="0.1966" style="stop-color:#AAD037"/>
	<stop  offset="0.809" style="stop-color:#91C13E"/>
</linearGradient>
<polygon class="st26" points="300.2,13.3 300.2,13.7 295.1,13.7 295.1,13.3 294.7,13.3 294.7,14.6 295.1,14.6 295.1,14.2 
	300.2,14.2 300.2,14.6 300.7,14.6 300.7,13.3 "/>
<linearGradient id="SVGID_25_" gradientUnits="userSpaceOnUse" x1="294.6758" y1="1614.1" x2="300.6623" y2="1614.1" gradientTransform="matrix(1 0 0 -1 0 1630)">
	<stop  offset="0.1966" style="stop-color:#AAD037"/>
	<stop  offset="0.809" style="stop-color:#91C13E"/>
</linearGradient>
<polygon class="st27" points="300.2,15.3 300.2,15.6 295.1,15.6 295.1,15.3 294.7,15.3 294.7,16.5 295.1,16.5 295.1,16.1 
	300.2,16.1 300.2,16.5 300.7,16.5 300.7,15.3 "/>
<linearGradient id="SVGID_26_" gradientUnits="userSpaceOnUse" x1="295.3" y1="1603.55" x2="300.5897" y2="1603.55" gradientTransform="matrix(1 0 0 -1 0 1630)">
	<stop  offset="0.1966" style="stop-color:#AAD037"/>
	<stop  offset="0.809" style="stop-color:#91C13E"/>
</linearGradient>
<polygon class="st28" points="300.2,25.9 300.2,26.2 295.7,26.2 295.7,25.9 295.3,25.9 295.3,27 295.7,27 295.7,26.6 300.2,26.6 
	300.2,27 300.6,27 300.6,25.9 "/>
<linearGradient id="SVGID_27_" gradientUnits="userSpaceOnUse" x1="295.3" y1="1601.85" x2="300.5938" y2="1601.85" gradientTransform="matrix(1 0 0 -1 0 1630)">
	<stop  offset="0.1966" style="stop-color:#AAD037"/>
	<stop  offset="0.809" style="stop-color:#91C13E"/>
</linearGradient>
<polygon class="st29" points="300.2,27.6 300.2,27.9 295.7,27.9 295.7,27.6 295.3,27.6 295.3,28.7 295.7,28.7 295.7,28.3 
	300.2,28.3 300.2,28.7 300.6,28.7 300.6,27.6 "/>
<linearGradient id="SVGID_28_" gradientUnits="userSpaceOnUse" x1="295.3" y1="1600.4" x2="300.5897" y2="1600.4" gradientTransform="matrix(1 0 0 -1 0 1630)">
	<stop  offset="0.1966" style="stop-color:#AAD037"/>
	<stop  offset="0.809" style="stop-color:#91C13E"/>
</linearGradient>
<polygon class="st30" points="300.2,29.1 300.2,29.4 295.7,29.4 295.7,29.1 295.3,29.1 295.3,30.1 295.7,30.1 295.7,29.8 
	300.2,29.8 300.2,30.1 300.6,30.1 300.6,29.1 "/>
<linearGradient id="SVGID_29_" gradientUnits="userSpaceOnUse" x1="295.3" y1="1598.65" x2="300.5938" y2="1598.65" gradientTransform="matrix(1 0 0 -1 0 1630)">
	<stop  offset="0.1966" style="stop-color:#AAD037"/>
	<stop  offset="0.809" style="stop-color:#91C13E"/>
</linearGradient>
<polygon class="st31" points="300.2,30.8 300.2,31.1 295.7,31.1 295.7,30.8 295.3,30.8 295.3,31.8 295.7,31.8 295.7,31.5 
	300.2,31.5 300.2,31.9 300.6,31.9 300.6,30.8 "/>
<g>
	
		<linearGradient id="SVGID_30_" gradientUnits="userSpaceOnUse" x1="295.2823" y1="1590.1" x2="301.0247" y2="1590.1" gradientTransform="matrix(1 0 0 -1 0 1630)">
		<stop  offset="0.1966" style="stop-color:#AAD037"/>
		<stop  offset="0.809" style="stop-color:#91C13E"/>
	</linearGradient>
	<polygon class="st32" points="295.5,37.9 295.3,41.6 295.3,41.9 295.6,41.9 300.7,41.9 301,41.9 301,41.6 300.8,37.9 300.6,37.9 
		300.3,41.6 300.7,41.3 295.6,41.3 296,41.6 295.7,37.9 	"/>
</g>
<linearGradient id="SVGID_31_" gradientUnits="userSpaceOnUse" x1="295.5346" y1="1586.95" x2="300.8253" y2="1586.95" gradientTransform="matrix(1 0 0 -1 0 1630)">
	<stop  offset="0.1966" style="stop-color:#AAD037"/>
	<stop  offset="0.809" style="stop-color:#91C13E"/>
</linearGradient>
<polygon class="st33" points="300.4,42.5 300.4,42.8 295.9,42.8 295.9,42.5 295.5,42.5 295.5,43.6 295.9,43.6 295.9,43.2 
	300.4,43.2 300.4,43.6 300.8,43.6 300.8,42.5 "/>
<linearGradient id="SVGID_32_" gradientUnits="userSpaceOnUse" x1="295.1275" y1="1595.6" x2="301.1826" y2="1595.6" gradientTransform="matrix(1 0 0 -1 0 1630)">
	<stop  offset="0.1966" style="stop-color:#AAD037"/>
	<stop  offset="0.809" style="stop-color:#91C13E"/>
</linearGradient>
<path class="st34" d="M296.1,36.4h-0.9v-3.9l0.3,3.6h0.5l0.2-1.8h0.2v1.8c0,0,0.5-0.3,0.6-0.3s1.8-0.1,1.9,0s0.1-1.6,0.1-1.6h0.2
	l0.1,1.5l0.6,0.1v-2.2h0.2l0.2,2.2h0.5l0.1-3.4l0.3,3.9h-2C299.2,36.1,297.4,35.6,296.1,36.4z"/>
<g>
	
		<linearGradient id="SVGID_33_" gradientUnits="userSpaceOnUse" x1="295.6" y1="1573.8" x2="302.4754" y2="1573.8" gradientTransform="matrix(1 0 0 -1 0 1630)">
		<stop  offset="0.1966" style="stop-color:#AAD037"/>
		<stop  offset="0.809" style="stop-color:#91C13E"/>
	</linearGradient>
	<rect x="295.6" y="55.7" class="st35" width="6.9" height="1"/>
	
		<linearGradient id="SVGID_34_" gradientUnits="userSpaceOnUse" x1="292.4713" y1="1576.15" x2="303.954" y2="1576.15" gradientTransform="matrix(1 0 0 -1 0 1630)">
		<stop  offset="0.1966" style="stop-color:#AAD037"/>
		<stop  offset="0.809" style="stop-color:#91C13E"/>
	</linearGradient>
	<path class="st36" d="M303.5,52.5v2.7H303v-1.5h-0.5v1.5h-6.9v-0.6h5.9h0.2v-0.2v-3.8h-0.5v3.6h-5.6v-0.8h-0.5v0.8h-0.8v-3.5h-0.5
		v3.7v0.2h0.2h1v0.6h-2.2v-2.5h-0.5v2.7v0.2h0.2h2.4v1.3v0.2h0.2h7.3h0.2v-0.2v-1.3h0.8h0.2v-0.2v-3L303.5,52.5L303.5,52.5z
		 M302.5,56.7h-6.9v-1h6.9V56.7z"/>
</g>
<g>
	
		<linearGradient id="SVGID_35_" gradientUnits="userSpaceOnUse" x1="294.9697" y1="1567.25" x2="297.0009" y2="1567.25" gradientTransform="matrix(1 0 0 -1 0 1630)">
		<stop  offset="0.1966" style="stop-color:#AAD037"/>
		<stop  offset="0.809" style="stop-color:#91C13E"/>
	</linearGradient>
	<path class="st37" d="M297,57.7h-1.8v2.1h1.6v0.7h-1.6V63h1.6v0.9H295v2.8h1.6l0.5,1.1L297,57.7z M296.7,59.4h-1.2v-0.3h1.2V59.4z
		 M296.7,58.9h-1.2v-0.3h1.2V58.9z M296.7,58.5h-1.2v-0.3h1.2V58.5z M296.7,62.5h-1.2v-0.3h1.2V62.5z M296.7,61.9h-1.2v-0.3h1.2
		V61.9z M296.7,61.5h-1.2v-0.3h1.2V61.5z M296.6,66h-1.2v-0.3h1.2V66z M296.6,65.5h-1.2v-0.3h1.2V65.5z M296.6,65h-1.2v-0.3h1.2V65z
		 M296.6,64.5h-1.2v-0.3h1.2V64.5z"/>
</g>
<g>
	
		<linearGradient id="SVGID_36_" gradientUnits="userSpaceOnUse" x1="299.7163" y1="1567.2" x2="301.7163" y2="1567.2" gradientTransform="matrix(1 0 0 -1 0 1630)">
		<stop  offset="0.1966" style="stop-color:#AAD037"/>
		<stop  offset="0.809" style="stop-color:#91C13E"/>
	</linearGradient>
	<path class="st38" d="M299.8,67.8l0.4-1.1h1.6v-2.8H300V63h1.6v-2.4H300v-0.7h1.6v-2.1h-1.8L299.8,67.8z M300,59.1h1.2v0.3H300
		V59.1z M300,58.6h1.2v0.3H300V58.6z M300,58.1h1.2v0.3H300V58.1z M300,62.2h1.2v0.3H300V62.2z M300,61.6h1.2V62H300V61.6z
		 M300,61.2h1.2v0.3H300V61.2z M300.1,65.7h1.2V66h-1.2V65.7z M300.1,65.2h1.2v0.3h-1.2V65.2z M300.1,64.6h1.2V65h-1.2V64.6z
		 M300.1,64.2h1.2v0.3h-1.2V64.2z"/>
</g>
<g>
	
		<linearGradient id="SVGID_37_" gradientUnits="userSpaceOnUse" x1="294.5585" y1="1543.35" x2="296.8462" y2="1543.35" gradientTransform="matrix(1 0 0 -1 0 1630)">
		<stop  offset="0.1966" style="stop-color:#AAD037"/>
		<stop  offset="0.809" style="stop-color:#91C13E"/>
	</linearGradient>
	<path class="st39" d="M296.7,82.2h-2v2.1h1.6V85h-1.6v2.4h1.6v0.9h-1.8v2.8h1.6h0.7L296.7,82.2z M296.3,83.9H295v-0.3h1.2
		L296.3,83.9L296.3,83.9z M296.3,83.4H295V83h1.2L296.3,83.4L296.3,83.4z M296.3,82.9H295v-0.3h1.2L296.3,82.9L296.3,82.9z
		 M296.3,86.9H295v-0.3h1.2L296.3,86.9L296.3,86.9z M296.3,86.4H295v-0.3h1.2L296.3,86.4L296.3,86.4z M296.3,85.9H295v-0.3h1.2
		L296.3,85.9L296.3,85.9z M296.2,90.5H295v-0.3h1.2V90.5z M296.2,89.9H295v-0.3h1.2V89.9z M296.2,89.4H295v-0.3h1.2V89.4z
		 M296.2,88.9H295v-0.3h1.2V88.9z"/>
</g>
<g>
	
		<linearGradient id="SVGID_38_" gradientUnits="userSpaceOnUse" x1="294.5585" y1="1533.45" x2="296.9656" y2="1533.45" gradientTransform="matrix(1 0 0 -1 0 1630)">
		<stop  offset="0.1966" style="stop-color:#AAD037"/>
		<stop  offset="0.809" style="stop-color:#91C13E"/>
	</linearGradient>
	<path class="st40" d="M296.9,92h-2.2v2.1h1.6V95h-1.6v2.4h1.6v0.9h-1.8v2.8h1.6h0.8V92z M296.3,93.8H295v-0.3h1.2L296.3,93.8
		L296.3,93.8z M296.3,93.3H295V93h1.2L296.3,93.3L296.3,93.3z M296.3,92.8H295v-0.3h1.2L296.3,92.8L296.3,92.8z M296.3,96.8H295
		v-0.3h1.2L296.3,96.8L296.3,96.8z M296.3,96.3H295V96h1.2L296.3,96.3L296.3,96.3z M296.3,95.8H295v-0.3h1.2L296.3,95.8L296.3,95.8z
		 M296.2,100.4H295V100h1.2V100.4z M296.2,99.8H295v-0.3h1.2V99.8z M296.2,99.3H295V99h1.2V99.3z M296.2,98.8H295v-0.3h1.2V98.8z"/>
</g>
<g>
	
		<linearGradient id="SVGID_39_" gradientUnits="userSpaceOnUse" x1="294.6198" y1="1523.55" x2="297.0891" y2="1523.55" gradientTransform="matrix(1 0 0 -1 0 1630)">
		<stop  offset="0.1966" style="stop-color:#AAD037"/>
		<stop  offset="0.809" style="stop-color:#91C13E"/>
	</linearGradient>
	<path class="st41" d="M297,102h-2.2v2.1h1.6v0.7h-1.6v2.4h1.6v0.9h-1.8v2.8h1.6l0.9-0.1L297,102z M296.3,103.7h-1.2v-0.3h1.2V103.7
		z M296.3,103.2h-1.2v-0.3h1.2V103.2z M296.3,102.7h-1.2v-0.3h1.2V102.7z M296.3,106.7h-1.2v-0.3h1.2V106.7z M296.3,106.2h-1.2v-0.3
		h1.2V106.2z M296.3,105.7h-1.2v-0.3h1.2V105.7z M296.3,110.3H295V110h1.2L296.3,110.3L296.3,110.3z M296.3,109.7H295v-0.3h1.2
		L296.3,109.7L296.3,109.7z M296.3,109.2H295v-0.3h1.2L296.3,109.2L296.3,109.2z M296.3,108.7H295v-0.3h1.2L296.3,108.7L296.3,108.7
		z"/>
</g>
<g>
	<path class="st21" d="M301.2,91.2h0.7h1.6v-2.8h-1.8v-0.9h1.6v-2.4h-1.6v-0.7h1.6v-2.1h-2.2L301.2,91.2z M301.8,83.7h1.2V84h-1.2
		V83.7z M301.8,83.2h1.2v0.3h-1.2V83.2z M301.8,82.7h1.2V83h-1.2V82.7z M301.8,86.7h1.2V87h-1.2V86.7z M301.8,86.2h1.2v0.3h-1.2
		V86.2z M301.8,85.7h1.2V86h-1.2V85.7z M301.9,90.3h1.2v0.3h-1.2V90.3z M301.9,89.7h1.2V90h-1.2V89.7z M301.9,89.2h1.2v0.3h-1.2
		V89.2z M301.9,88.7h1.2V89h-1.2V88.7z"/>
</g>
<g>
	<path class="st21" d="M301.2,101.1h0.7h1.6v-2.8h-1.8v-0.9h1.6V95h-1.6v-0.7h1.6v-2.1h-2.1L301.2,101.1z M301.8,93.6h1.2v0.3h-1.2
		V93.6z M301.8,93h1.2v0.3h-1.2V93z M301.8,92.6h1.2v0.3h-1.2V92.6z M301.8,96.6h1.2v0.3h-1.2V96.6z M301.8,96.1h1.2v0.3h-1.2V96.1z
		 M301.8,95.6h1.2v0.3h-1.2V95.6z M301.9,100.2h1.2v0.3h-1.2V100.2z M301.9,99.6h1.2v0.3h-1.2V99.6z M301.9,99.1h1.2v0.3h-1.2V99.1z
		 M301.9,98.6h1.2v0.3h-1.2V98.6z"/>
</g>
<g>
	<path class="st21" d="M301.2,111h0.7h1.6v-2.8h-1.8v-0.9h1.6V105h-1.6v-0.7h1.6v-2.1h-2.2L301.2,111z M301.8,103.5h1.2v0.3h-1.2
		V103.5z M301.8,103h1.2v0.3h-1.2V103z M301.8,102.5h1.2v0.3h-1.2V102.5z M301.8,106.5h1.2v0.3h-1.2V106.5z M301.8,106h1.2v0.3h-1.2
		V106z M301.8,105.5h1.2v0.3h-1.2V105.5z M301.8,110.1h1.2v0.3h-1.2V110.1z M301.8,109.5h1.2v0.3h-1.2V109.5z M301.8,109h1.2v0.3
		h-1.2V109z M301.8,108.5h1.2v0.3h-1.2V108.5z"/>
</g>
<line class="st1" x1="542.9" y1="254.8" x2="550.2" y2="254.8"/>
<line class="st1" x1="542.9" y1="258.2" x2="550.2" y2="258.2"/>
<g>
	<path class="st1" d="M75,169v8.3v0.5h10.2v-7.1C85.2,170.6,77.2,168.5,75,169z"/>
	<path class="st1" d="M63,170.6v7.1h10.2v-0.5V169C71,168.5,63,170.6,63,170.6z"/>
	<path class="st1" d="M86.9,171.1v6.6l6.8-0.2C93.7,177.5,91.8,170.1,86.9,171.1z"/>
	<path class="st1" d="M99.7,184h2.4v3.4h0.9v-7.2c-0.9,0.2-2,0.3-3.3,0.4V184z"/>
	<rect x="46.5" y="179.1" class="st1" width="2.7" height="9.2"/>
	<polygon class="st1" points="285.6,201.5 285.5,205.2 288,204.2 286.7,200.7 	"/>
	<path class="st1" d="M312,203.1c0.4-0.1,2.8,1.1,2.8,1.1l-0.1-3l-2.2-0.7C312.5,200.6,311.6,203.2,312,203.1z"/>
	<path class="st1" d="M54.5,177.5l6.8,0.2v-6.6C56.4,170.1,54.5,177.5,54.5,177.5z"/>
	<path class="st1" d="M460,288.3h3.4V281C460,280,460,288.3,460,288.3z"/>
	<path class="st1" d="M413.8,288l4.1-0.2l2.2-8.7C416,276.6,413.8,288,413.8,288z"/>
	<polygon class="st1" points="288.9,200.1 289,203.6 292.8,202.9 292,199.4 	"/>
	<polygon class="st1" points="407,288.9 409.2,288.9 409.2,285 412.6,285 412.6,282.1 407,282.7 	"/>
	<path class="st1" d="M300.1,198.7c0,0-0.2,3.9-0.1,3.5c0.1-0.3,5,0.1,5,0.1l-0.1-3.4L300.1,198.7z"/>
	<path class="st1" d="M306.8,199.1l-0.2,3.3c0,0,3.6,0.3,3.9,0.6c0.2,0.2,0.1-3,0.1-3L306.8,199.1z"/>
	<path class="st1" d="M293.8,199.1l-0.1,3.4c0,0,4.9-0.4,5-0.1c0.1,0.3-0.1-3.5-0.1-3.5L293.8,199.1z"/>
	
		<linearGradient id="SVGID_40_" gradientUnits="userSpaceOnUse" x1="283.2" y1="1622.5" x2="283.2" y2="-1.297485e-008" gradientTransform="matrix(1 0 0 -1 0 1630)">
		<stop  offset="0.1966" style="stop-color:#AAD037"/>
		<stop  offset="0.809" style="stop-color:#91C13E"/>
	</linearGradient>
	<path class="st42" d="M-5.8,1630h578l-0.1-1323.9c-4.4-0.4-13.8,0.1-13.8,0.1h-12.6V306h-2.4v-1.8h2.4v-1.5h-2.4v-1.8h2.4v-1.5
		h-2.4v-1.8h2.4l0,0v-1.5h-2.4v-1.8h2.4V294v-1.2h-2.6V291h2.6v-1.4v-0.1h-2.6v-1.8h2.6v-1.5h-2.6V284h2.6v-1.5h-2.6v-1.8h2.6v-1.4
		h-2.6v-1.8h2.6v-0.8V276h-2.6v-1.8h2.6v-1.4v-0.1h-2.6v-1.8h2.6v-1.5h-2.6v-1.8h2.6v-1.5h-2.8V264h2.8v-0.2v-1.4h-2.8v-1.8h2.8
		v-0.9v-0.6h-2.8v-1.8h2.8v-1.5h-2.8V254h2.8v-13.8c-4.9-0.9-8.3,2.8-11.7,6s-9.7,3.7-9.7,3.7l-7.8-4.1v-20.2h-14.1v-10.1h-11.2
		c-0.5-3.7-4.4-7.3-8.7-7.3c-4.4,0-8.7,7.3-8.7,7.3h-10.7V254c-4.4-0.9-8.3,17-9.2,20.2c-1,3.2-3.4,16.1-6.8,16.1
		s-1.9-15.6-1.9-15.6H435l-7.3,10.1l8.7-30.7c-5.8-2.3-10.2,4.1-13.6,12.4c-3.4,8.3-5.8,13.8-8.3,11.5c-2.4-2.3-7.8,0.9-7.8,0.9
		l-2.7-0.1v-1.9v-6.7h-1.8v7.7v0.3v0.9c-1.6,1.2-2.8,3-2.8,3h2.9l-1.8,4.2l-2.5,5.8h-3h-6.1v6.9v9.6h-9.3h-4.3v-3.2H368v11.9
		c-6.8,7.8-12.6-0.9-12.6-0.9c-6.3-1.8-0.5-4.1-0.5-4.1L352,305h-4.9v-3.7h-10.2v4.1c0,0-5.3,0.5-11.2,0c-5.8-0.5-3.9-6.4-3.9-6.4
		h-3.9v-19l-6.7,0.8v-13.9c0.6-1,3.3-21.3,3.3-21.3c0.7-0.3,0.6-2.1,0.6-2.1c2-2.3,1.4-37,1.6-37.3s2.5-6,2.5-6
		c12.7-3.3,4.9-7.3,4.9-7.3c17.5-6.3-1.3-11.7-1.3-11.7c-1.2-0.9-2.7-1.2-2.7-1.2c0-0.8-3.8-2.1-3.8-2.1c0-3.3-4-4.2-4-4.2
		c1.8-1.2,0.7-1.7,0.8-2.2c0.1-0.6-2.9-16.9-2.9-16.9c6.1-1.6,0.9-4.1,0.9-4.1s-2.3,0.6,2.2-1.8c4.6-2.3,1.6-3.3,0.8-4.1
		c-0.8-0.8-6.7-2-6.7-2c-1.9-8.5-1.8-10.1-1.8-10.1c4.8-2.1,2.2-2.5,2.2-3c0-0.4-5.4-1.8-5.4-1.8l-0.3-14.9l-1.1-1.3l0.1-30.3
		c3.7-1.6-0.8-2.6-0.8-2.6l-0.8-21.7c2.9-0.6-0.2-1.8-0.2-1.8l-0.5-17.3c2.8-1.2-0.1-1.7-0.1-1.7l-1-28.6h-0.4L297,36.1
		c-2.6,0.7,0.1,1.8,0.1,1.8l-0.2,17.6c-2.7,0.8,0.1,1.4,0.1,1.4l-0.1,21.8c0,0,0-0.1-1.5,1s1.3,1.8,1.3,1.8l0.4,30.1l-1.2,1.3
		l0.2,15.2c0,0-3.2,0.2-5.2,1.8c-2.2,1.7,1.6,2.5,2.2,2.8c0.6,0.2-1.6,10.1-1.6,10.1s-0.8,0-5.2,1.5c-4.3,1.6-2.2,4.1-1.4,4.4
		c0.8,0.3,2.5,2.1,2.5,2.1c-3.3,3.8,2.6,4,2.1,4s-2.3,15.3-2.7,16.8c-0.4,1.6,0.9,2.5,0.9,2.5c-4.8,1.5-4.2,4.4-4.2,4.4
		c-2.7,0.8-2.7,1.7-2.7,1.7c-2.6,0.7-3.9,1.8-3.9,1.8c-17.5,6.3-0.4,11.6-0.4,11.6c-7,4.8,5.3,7,4.9,7.1s3,7.3,3,7.3l0.4,16.4
		c0,0,1.6,17.2,1.9,18.8c0.2,1.7,0.9,2.5,0.9,2.5c-1.2,0.4,0.4,2.2,0.4,2.2l3.5,19.9l0.2,13.3l-31.2-1.6v-12.8h-29.1l-0.5-22
		l-2.9,22.5h-27.2c0,6.9,1.5,31.2-2.9,31.2s-2.4-7.8-2.4-7.8c-3.9-2.8-34-0.9-34-0.9c-0.5,11-3.4,1.8-3.4,1.8l-6.8,0.9v29.4h-1.9
		v-84.9c-4.4-2.8,1.3-4.1,1.3-4.1V224h-4.5v-4.6h4.4v-2.6H143v-3.4h-2.3v-3.8h-29.9v1.8H108v-22.2h-1.8v-10.6c3-3.1-5-8.7-5-8.7
		c-11.3-7.8-28.7-6.4-28.7-6.4s-10.7,0-23.6,4.9c-13.7,5.2-4.9,9.8-4.9,9.8v10.4h-4.5V271H34v-28.7h-5.2V237h-3.2v-5.2h-7.8
		l-1.3-1.6H13c-1.8-16.9-14.1-20.9-14.1-20.9l-1.5-22l-1.5,22L-5.8,1630z M312.5,200.6l2.2,0.7l0.1,3c0,0-2.5-1.2-2.8-1.1
		C311.6,203.2,312.5,200.6,312.5,200.6z M285.5,205.2l0.1-3.8l1.1-0.8l1.3,3.5L285.5,205.2z M49.1,188.3h-2.7v-9.2h2.7V188.3z
		 M61.3,177.7l-6.8-0.2c0,0,1.9-7.3,6.8-6.4V177.7z M73.2,177.3v0.5H63v-7.1c0,0,8-2.1,10.2-1.6V177.3z M85.2,177.7H75v-0.5V169
		c2.2-0.5,10.2,1.6,10.2,1.6V177.7z M86.9,177.7v-6.6c4.9-0.9,6.8,6.4,6.8,6.4L86.9,177.7z M103,187.3h-0.9V184h-2.4v-3.4
		c1.3-0.1,2.4-0.2,3.3-0.4V187.3z M289,203.6l-0.1-3.4l3-0.8l0.8,3.5L289,203.6z M298.8,202.5c-0.1-0.3-5,0.1-5,0.1l0.1-3.4l4.8-0.2
		C298.6,198.9,298.9,202.8,298.8,202.5z M300,202.2c-0.1,0.3,0.1-3.5,0.1-3.5l4.8,0.2l0.1,3.4C305,202.4,300.1,201.9,300,202.2z
		 M310.5,203c-0.2-0.2-3.9-0.6-3.9-0.6l0.2-3.3l3.7,0.9C310.6,200,310.7,203.2,310.5,203z M412.6,285h-3.4v3.9H407v-6.2l5.6-0.7V285
		z M418,287.8l-4.1,0.2c0,0,2.2-11.5,6.3-8.9L418,287.8z M463.4,288.3H460c0,0,0-8.3,3.4-7.3V288.3z"/>
	<polygon class="st21" points="542.9,255.7 545.7,255.7 550.2,255.7 550.2,253.9 545.7,253.9 542.9,253.9 	"/>
	<polygon class="st21" points="542.9,259.1 545.7,259.1 550.2,259.1 550.2,257.2 545.7,257.2 542.9,257.2 	"/>
	<polygon class="st21" points="542.9,262.4 545.7,262.4 550.2,262.4 550.2,260.6 545.7,260.6 542.9,260.6 	"/>
	<polygon class="st21" points="542.9,265.8 545.7,265.8 550.2,265.8 550.2,264 545.7,264 542.9,264 	"/>
	<polygon class="st21" points="543.1,269.2 545.7,269.2 550.4,269.2 550.4,267.3 545.7,267.3 543.1,267.3 	"/>
	<polygon class="st21" points="543.1,272.5 545.7,272.5 550.4,272.5 550.4,270.7 545.7,270.7 543.1,270.7 	"/>
	<polygon class="st21" points="543.1,275.9 545.7,275.9 550.4,275.9 550.4,274.1 545.7,274.1 543.1,274.1 	"/>
	<polygon class="st21" points="543.1,279.2 545.7,279.2 550.4,279.2 550.4,277.4 545.7,277.4 543.1,277.4 	"/>
	<polygon class="st21" points="543.1,282.5 545.7,282.5 550.4,282.5 550.4,280.6 545.7,280.6 543.1,280.6 	"/>
	<polygon class="st21" points="543.1,285.8 545.7,285.8 550.4,285.8 550.4,284 545.7,284 543.1,284 	"/>
	<polygon class="st21" points="543.1,289.2 545.7,289.2 550.4,289.2 550.4,287.4 545.7,287.4 543.1,287.4 	"/>
	<polygon class="st21" points="543.1,292.5 545.7,292.5 550.4,292.5 550.4,290.7 545.7,290.7 543.1,290.7 	"/>
	<polygon class="st21" points="543.2,295.9 545.7,295.9 550.5,295.9 550.5,294.1 545.7,294.1 543.2,294.1 	"/>
	<polygon class="st21" points="543.2,299.3 545.7,299.3 550.5,299.3 550.5,297.4 545.7,297.4 543.2,297.4 	"/>
	<polygon class="st21" points="543.2,302.6 545.7,302.6 550.5,302.6 550.5,300.8 545.7,300.8 543.2,300.8 	"/>
	<polygon class="st21" points="543.2,306 545.7,306 550.5,306 550.5,304.2 545.7,304.2 543.2,304.2 	"/>
</g>
<path class="st21" d="M330.8,182.5h-0.5c0-0.3,0-0.7-0.1-1h0.4v-0.4h-0.5c-0.1-0.3-0.3-0.7-0.6-1c-0.1-0.1-0.1-0.1-0.2-0.2l0.5-0.1
	l-0.1-0.4l-0.8,0.1c-0.4-0.4-0.9-0.8-1.5-1.1l0.5-0.1l-0.1-0.4l-1,0.2c-0.8-0.4-1.6-0.8-2.5-1.1l0.5-0.1l-0.1-0.4l-1.1,0.3
	c-1.1-0.3-2.2-0.6-3.3-0.9l0.7-0.3l-0.2-0.4l-1.3,0.6c-3.3-0.7-6.7-1.1-9.3-1.3c-8.8-0.7-18.8-0.3-25.7,0.9c-2.5,0.5-4.6,1-6.3,1.5
	l-0.9-0.3l-0.2,0.4l0.3,0.1c-1.1,0.4-2,0.7-2.7,1.1l-1.1-0.2l-0.1,0.4l0.5,0.1c-0.6,0.3-1.2,0.7-1.6,1l-1-0.1l-0.1,0.4l0.6,0.1
	c-0.5,0.4-0.8,0.8-1.1,1.2l-0.5-0.1l-0.1,0.4h0.3c-0.1,0.1-0.1,0.2-0.2,0.3c-0.1,0.3-0.2,0.5-0.2,0.8h-0.7v0.4h0.7
	c-0.1,1.2,0.5,2,0.5,2.1l0.4-0.3l0,0c0,0-0.5-0.8-0.5-1.8l4.7,0.2v-0.4l-4.7-0.2c0-0.2,0.1-0.4,0.2-0.6c0.1-0.1,0.1-0.3,0.2-0.4
	l6.3,0.7l0.1-0.4l-6.1-0.7c0.3-0.4,0.7-0.8,1.2-1.2l7.8,1.1l0.1-0.4l-7.4-1c0.5-0.3,1-0.7,1.7-1l7,1.3l0.1-0.4l-6.4-1.2
	c0.8-0.3,1.7-0.7,2.7-1l5.8,2l0.2-0.4l-5.2-1.8c1.6-0.5,3.4-0.9,5.7-1.3c9.3-1.7,24.1-1.8,34.2,0.2l-4.2,1.9l0.2,0.4l4.8-2.1
	c1.1,0.2,2.2,0.5,3.2,0.8l-5.6,1.6l0.1,0.4l6.3-1.8c0.9,0.3,1.8,0.6,2.5,1l-6.9,1.3l0.1,0.4l7.5-1.4c0.6,0.3,1.1,0.7,1.6,1l-7.5,0.8
	l0.1,0.4l7.9-0.9c0.1,0.1,0.3,0.3,0.4,0.4c0.2,0.2,0.3,0.5,0.5,0.7l-6.1,0.3v0.4l6.3-0.3c0.1,0.3,0.1,0.6,0.1,0.9l-3.6-0.1v0.4
	l3.6,0.1c-0.1,0.4-0.2,0.9-0.5,1.4l0.4,0.2c0.3-0.5,0.5-1.1,0.6-1.6h0.5L330.8,182.5z"/>
</svg>
