<?xml version="1.0" encoding="utf-8"?>
<!-- Generator: Adobe Illustrator 19.0.1, SVG Export Plug-In . SVG Version: 6.00 Build 0)  -->
<svg version="1.1" id="Layer_1" xmlns="http://www.w3.org/2000/svg" xmlns:xlink="http://www.w3.org/1999/xlink" x="0px" y="0px" xml:space="preserve">
<style type="text/css">
	.st0{fill:none;}
	.st1{fill:url(#SVGID_1_);}
	.st2{fill:url(#SVGID_2_);}
	.st3{fill:url(#SVGID_3_);}
	.st4{fill:url(#SVGID_4_);}
	.st5{fill:url(#SVGID_5_);}
	.st6{fill:url(#SVGID_6_);}
	.st7{fill:url(#SVGID_7_);}
	.st8{fill:url(#SVGID_8_);}
	.st9{fill:url(#SVGID_9_);}
	.st10{fill:url(#SVGID_10_);}
	.st11{fill:url(#SVGID_11_);}
	.st12{fill:url(#SVGID_12_);}
	.st13{fill:url(#SVGID_13_);}
	.st14{fill:url(#SVGID_14_);}
	.st15{fill:url(#SVGID_15_);}
	.st16{fill:url(#SVGID_16_);}
	.st17{fill:url(#SVGID_17_);}
	.st18{fill:url(#SVGID_18_);}
	.st19{fill:url(#SVGID_19_);}
	.st20{fill:#91C13E;}
	.st21{fill:#010101;}
	.st22{fill:#637F37;}
	.st23{fill:url(#SVGID_20_);}
	.st24{fill:url(#SVGID_21_);}
	.st25{fill:url(#SVGID_22_);}
	.st26{fill:url(#SVGID_23_);}
	.st27{fill:url(#SVGID_24_);}
	.st28{fill:url(#SVGID_25_);}
	.st29{fill:url(#SVGID_26_);}
	.st30{fill:url(#SVGID_27_);}
	.st31{fill:url(#SVGID_28_);}
	.st32{fill:url(#SVGID_29_);}
	.st33{fill:url(#SVGID_30_);}
	.st34{fill:url(#SVGID_31_);}
	.st35{fill:url(#SVGID_32_);}
	.st36{fill:url(#SVGID_33_);}
	.st37{fill:url(#SVGID_34_);}
	.st38{fill:url(#SVGID_35_);}
	.st39{fill:url(#SVGID_36_);}
	.st40{fill:url(#SVGID_37_);}
	.st41{fill:url(#SVGID_38_);}
	.st42{fill:url(#SVGID_39_);}
</style>
<g>
	<path class="st0" d="M461.5,184.3v7.8h10v-0.5v-9C469.3,182,461.5,184.3,461.5,184.3z"/>
	<path class="st0" d="M453.1,191.8l6.7,0.3v-7.3C455,183.8,453.1,191.8,453.1,191.8z"/>
	<path class="st0" d="M473.3,182.5v9v0.5h10v-7.8C483.3,184.3,475.4,182,473.3,182.5z"/>
	<path class="st0" d="M497.5,198.8h2.4v3.7h0.9v-7.8c-0.9,0.2-2,0.4-3.3,0.5V198.8z"/>
	<rect x="445.3" y="193.5" class="st0" width="2.6" height="10"/>
	<polygon class="st0" points="798.9,313.3 801.1,313.3 801.1,309 804.4,309 804.4,305.8 798.9,306.5 	"/>
	<path class="st0" d="M484.9,184.8v7.3l6.7-0.3C491.6,191.8,489.7,183.8,484.9,184.8z"/>
	<path class="st0" d="M805.6,312.3l4-0.3l2.1-9.5C807.7,299.8,805.6,312.3,805.6,312.3z"/>
	<path class="st0" d="M850.8,312.5h3.3v-8C850.8,303.5,850.8,312.5,850.8,312.5z"/>
</g>
<g>
	<linearGradient id="SVGID_1_" gradientUnits="userSpaceOnUse" x1="688.8168" y1="9.6414" x2="694.4476" y2="9.6414">
		<stop  offset="0.1966" style="stop-color:#AAD037"/>
		<stop  offset="0.809" style="stop-color:#91C13E"/>
	</linearGradient>
	<polygon class="st1" points="689,7.5 688.8,11.5 688.8,11.8 689.2,11.8 694.1,11.8 694.4,11.8 694.4,11.5 694.2,7.5 694,7.5 
		693.8,11.5 694.1,11.1 689.2,11.1 689.5,11.5 689.3,7.5 	"/>
</g>
<g>
	<linearGradient id="SVGID_2_" gradientUnits="userSpaceOnUse" x1="689.0456" y1="18.9317" x2="694.6774" y2="18.9317">
		<stop  offset="0.1966" style="stop-color:#AAD037"/>
		<stop  offset="0.809" style="stop-color:#91C13E"/>
	</linearGradient>
	<polygon class="st2" points="689.3,16.8 689,20.8 689,21.1 689.4,21.1 694.3,21.1 694.7,21.1 694.7,20.8 694.4,16.8 694.2,16.8 
		694,20.8 694.3,20.4 689.4,20.4 689.7,20.8 689.5,16.8 	"/>
</g>
<g>
	<linearGradient id="SVGID_3_" gradientUnits="userSpaceOnUse" x1="689.1609" y1="23.7581" x2="694.7927" y2="23.7581">
		<stop  offset="0.1966" style="stop-color:#AAD037"/>
		<stop  offset="0.809" style="stop-color:#91C13E"/>
	</linearGradient>
	<polygon class="st3" points="689.4,21.6 689.2,25.6 689.2,25.9 689.5,25.9 694.4,25.9 694.8,25.9 694.8,25.6 694.6,21.6 
		694.3,21.6 694.1,25.6 694.4,25.2 689.5,25.2 689.9,25.6 689.6,21.6 	"/>
</g>
<linearGradient id="SVGID_4_" gradientUnits="userSpaceOnUse" x1="688.72" y1="13.4766" x2="694.5936" y2="13.4766">
	<stop  offset="0.1966" style="stop-color:#AAD037"/>
	<stop  offset="0.809" style="stop-color:#91C13E"/>
</linearGradient>
<polygon class="st4" points="694.1,12.8 694.1,13.2 689.2,13.2 689.2,12.8 688.7,12.8 688.7,14.1 689.2,14.1 689.2,13.7 694.1,13.7 
	694.1,14.1 694.6,14.1 694.6,12.8 "/>
<linearGradient id="SVGID_5_" gradientUnits="userSpaceOnUse" x1="688.7181" y1="15.5904" x2="694.5909" y2="15.5904">
	<stop  offset="0.1966" style="stop-color:#AAD037"/>
	<stop  offset="0.809" style="stop-color:#91C13E"/>
</linearGradient>
<polygon class="st5" points="694.1,14.9 694.1,15.3 689.2,15.3 689.2,14.9 688.7,14.9 688.7,16.3 689.2,16.3 689.2,15.8 694.1,15.8 
	694.1,16.3 694.6,16.3 694.6,14.9 "/>
<linearGradient id="SVGID_6_" gradientUnits="userSpaceOnUse" x1="689.3321" y1="27.0728" x2="694.5229" y2="27.0728">
	<stop  offset="0.1966" style="stop-color:#AAD037"/>
	<stop  offset="0.809" style="stop-color:#91C13E"/>
</linearGradient>
<polygon class="st6" points="694.1,26.5 694.1,26.8 689.7,26.8 689.7,26.5 689.3,26.5 689.3,27.7 689.7,27.7 689.7,27.3 694.1,27.3 
	694.1,27.7 694.5,27.7 694.5,26.5 "/>
<linearGradient id="SVGID_7_" gradientUnits="userSpaceOnUse" x1="689.3302" y1="28.9404" x2="694.5211" y2="28.9404">
	<stop  offset="0.1966" style="stop-color:#AAD037"/>
	<stop  offset="0.809" style="stop-color:#91C13E"/>
</linearGradient>
<polygon class="st7" points="694.1,28.4 694.1,28.7 689.7,28.7 689.7,28.3 689.3,28.3 689.3,29.5 689.7,29.5 689.7,29.1 694.1,29.1 
	694.1,29.5 694.5,29.5 694.5,28.4 "/>
<linearGradient id="SVGID_8_" gradientUnits="userSpaceOnUse" x1="689.3321" y1="30.5313" x2="694.5229" y2="30.5313">
	<stop  offset="0.1966" style="stop-color:#AAD037"/>
	<stop  offset="0.809" style="stop-color:#91C13E"/>
</linearGradient>
<polygon class="st8" points="694.1,29.9 694.1,30.3 689.7,30.3 689.7,29.9 689.3,29.9 689.3,31.1 689.7,31.1 689.7,30.7 694.1,30.7 
	694.1,31.1 694.5,31.1 694.5,29.9 "/>
<linearGradient id="SVGID_9_" gradientUnits="userSpaceOnUse" x1="689.3302" y1="32.3992" x2="694.5211" y2="32.3992">
	<stop  offset="0.1966" style="stop-color:#AAD037"/>
	<stop  offset="0.809" style="stop-color:#91C13E"/>
</linearGradient>
<polygon class="st9" points="694.1,31.8 694.1,32.2 689.7,32.2 689.7,31.8 689.3,31.8 689.3,33 689.7,33 689.7,32.6 694.1,32.6 
	694.1,33 694.5,33 694.5,31.8 "/>
<g>
	<linearGradient id="SVGID_10_" gradientUnits="userSpaceOnUse" x1="689.3135" y1="41.7756" x2="694.9453" y2="41.7756">
		<stop  offset="0.1966" style="stop-color:#AAD037"/>
		<stop  offset="0.809" style="stop-color:#91C13E"/>
	</linearGradient>
	<polygon class="st10" points="689.5,39.6 689.3,43.6 689.3,44 689.7,44 694.6,44 694.9,44 694.9,43.6 694.7,39.6 694.5,39.6 
		694.3,43.6 694.6,43.2 689.7,43.2 690,43.6 689.8,39.6 	"/>
</g>
<linearGradient id="SVGID_11_" gradientUnits="userSpaceOnUse" x1="689.5609" y1="45.1885" x2="694.7499" y2="45.1885">
	<stop  offset="0.1966" style="stop-color:#AAD037"/>
	<stop  offset="0.809" style="stop-color:#91C13E"/>
</linearGradient>
<polygon class="st11" points="694.3,44.6 694.3,45 690,45 690,44.6 689.6,44.6 689.6,45.8 690,45.8 690,45.4 694.3,45.4 694.3,45.8 
	694.7,45.8 694.7,44.6 "/>
<linearGradient id="SVGID_12_" gradientUnits="userSpaceOnUse" x1="689.1609" y1="35.6926" x2="695.0997" y2="35.6926">
	<stop  offset="0.1966" style="stop-color:#AAD037"/>
	<stop  offset="0.809" style="stop-color:#91C13E"/>
</linearGradient>
<path class="st12" d="M690.1,38h-0.9l0-4.3l0.3,3.9h0.5l0.2-2l0.2,0l0,1.9c0,0,0.5-0.3,0.6-0.3c0.1,0,1.8-0.2,1.9,0
	c0.1,0.2,0.1-1.7,0.1-1.7l0.2,0l0.1,1.6l0.6,0.1v-2.4h0.2l0.2,2.4l0.5,0l0.1-3.7l0.3,4.2l-1.9,0C693.2,37.6,691.3,37.1,690.1,38z"/>
<g>
	<linearGradient id="SVGID_13_" gradientUnits="userSpaceOnUse" x1="689.6205" y1="59.522" x2="696.363" y2="59.522">
		<stop  offset="0.1966" style="stop-color:#AAD037"/>
		<stop  offset="0.809" style="stop-color:#91C13E"/>
	</linearGradient>
	<rect x="689.6" y="59" class="st13" width="6.7" height="1.1"/>
	<linearGradient id="SVGID_14_" gradientUnits="userSpaceOnUse" x1="686.5562" y1="56.9881" x2="697.8198" y2="56.9881">
		<stop  offset="0.1966" style="stop-color:#AAD037"/>
		<stop  offset="0.809" style="stop-color:#91C13E"/>
	</linearGradient>
	<path class="st14" d="M697.4,55.5v3h-0.5v-1.6h-0.5v1.6h-6.7v-0.6h5.7h0.2v-0.2v-4.2h-0.5v3.9h-5.5v-0.9h-0.5v0.9h-0.8v-3.8h-0.5v4
		v0.2h0.2h1v0.6H687v-2.7h-0.5v3V59h0.2h2.4v1.4v0.2h0.2h7.2h0.2v-0.2V59h0.8h0.2v-0.2v-3.2H697.4z M696.4,60.1h-6.7V59h6.7V60.1z"
		/>
</g>
<g>
	<linearGradient id="SVGID_15_" gradientUnits="userSpaceOnUse" x1="689.0084" y1="66.6758" x2="690.9991" y2="66.6758">
		<stop  offset="0.1966" style="stop-color:#AAD037"/>
		<stop  offset="0.809" style="stop-color:#91C13E"/>
	</linearGradient>
	<path class="st15" d="M691,61.2l-1.8,0v2.3h1.6v0.8h-1.6v2.6h1.6v1H689v3.1h1.5l0.5,1.2L691,61.2z M690.7,63.1h-1.2v-0.4h1.2V63.1z
		 M690.7,62.5h-1.2v-0.4h1.2V62.5z M690.7,62h-1.2v-0.4h1.2V62z M690.7,66.4h-1.2V66h1.2V66.4z M690.7,65.8h-1.2v-0.4h1.2V65.8z
		 M690.7,65.3h-1.2v-0.4h1.2V65.3z M690.6,70.3h-1.2v-0.4h1.2V70.3z M690.6,69.6h-1.2v-0.4h1.2V69.6z M690.6,69.1h-1.2v-0.4h1.2
		V69.1z M690.6,68.6h-1.2v-0.4h1.2V68.6z"/>
</g>
<g>
	<linearGradient id="SVGID_16_" gradientUnits="userSpaceOnUse" x1="693.6625" y1="66.7058" x2="695.6262" y2="66.7058">
		<stop  offset="0.1966" style="stop-color:#AAD037"/>
		<stop  offset="0.809" style="stop-color:#91C13E"/>
	</linearGradient>
	<path class="st16" d="M693.7,72.2l0.4-1.2h1.5v-3.1h-1.8v-1h1.6v-2.6h-1.6v-0.8h1.6v-2.3l-1.8,0L693.7,72.2z M693.9,62.7h1.2v0.4
		h-1.2V62.7z M693.9,62.2h1.2v0.4h-1.2V62.2z M693.9,61.7h1.2V62h-1.2V61.7z M693.9,66h1.2v0.4h-1.2V66z M693.9,65.5h1.2v0.4h-1.2
		V65.5z M693.9,64.9h1.2v0.4h-1.2V64.9z M694,69.9h1.2v0.4H694V69.9z M694,69.3h1.2v0.4H694V69.3z M694,68.7h1.2v0.4H694V68.7z
		 M694,68.2h1.2v0.4H694V68.2z"/>
</g>
<g>
	<linearGradient id="SVGID_17_" gradientUnits="userSpaceOnUse" x1="688.6056" y1="92.7368" x2="690.8466" y2="92.7368">
		<stop  offset="0.1966" style="stop-color:#AAD037"/>
		<stop  offset="0.809" style="stop-color:#91C13E"/>
	</linearGradient>
	<path class="st17" d="M690.7,87.9l-2,0v2.3h1.6V91h-1.6v2.6h1.6v1h-1.8v3.1h1.5l0.7,0L690.7,87.9z M690.3,89.7h-1.2v-0.4h1.2V89.7z
		 M690.3,89.2h-1.2v-0.4h1.2V89.2z M690.3,88.6h-1.2v-0.4h1.2V88.6z M690.3,93h-1.2v-0.4h1.2V93z M690.3,92.5h-1.2v-0.4h1.2V92.5z
		 M690.3,91.9h-1.2v-0.4h1.2V91.9z M690.2,96.9H689v-0.4h1.2V96.9z M690.2,96.3H689v-0.4h1.2V96.3z M690.2,95.7H689v-0.4h1.2V95.7z
		 M690.2,95.2H689v-0.4h1.2V95.2z"/>
</g>
<g>
	<linearGradient id="SVGID_18_" gradientUnits="userSpaceOnUse" x1="688.6056" y1="103.4956" x2="690.9666" y2="103.4956">
		<stop  offset="0.1966" style="stop-color:#AAD037"/>
		<stop  offset="0.809" style="stop-color:#91C13E"/>
	</linearGradient>
	<path class="st18" d="M690.9,98.6l-2.1,0v2.3h1.6v0.8h-1.6v2.6h1.6v1h-1.8v3.1h1.5l0.8,0L690.9,98.6z M690.3,100.5h-1.2v-0.4h1.2
		V100.5z M690.3,99.9h-1.2v-0.4h1.2V99.9z M690.3,99.4h-1.2v-0.4h1.2V99.4z M690.3,103.8h-1.2v-0.4h1.2V103.8z M690.3,103.2h-1.2
		v-0.4h1.2V103.2z M690.3,102.7h-1.2v-0.4h1.2V102.7z M690.2,107.7H689v-0.4h1.2V107.7z M690.2,107.1H689v-0.4h1.2V107.1z
		 M690.2,106.5H689v-0.4h1.2V106.5z M690.2,106H689v-0.4h1.2V106z"/>
</g>
<g>
	<linearGradient id="SVGID_19_" gradientUnits="userSpaceOnUse" x1="688.6632" y1="114.3188" x2="691.0856" y2="114.3188">
		<stop  offset="0.1966" style="stop-color:#AAD037"/>
		<stop  offset="0.809" style="stop-color:#91C13E"/>
	</linearGradient>
	<path class="st19" d="M691,109.5l-2.1,0v2.3h1.6v0.8h-1.6v2.6h1.6v1h-1.8v3.1h1.5l0.9-0.1L691,109.5z M690.3,111.3h-1.2V111h1.2
		V111.3z M690.3,110.7h-1.2v-0.4h1.2V110.7z M690.3,110.2h-1.2v-0.4h1.2V110.2z M690.3,114.6h-1.2v-0.4h1.2V114.6z M690.3,114h-1.2
		v-0.4h1.2V114z M690.3,113.5h-1.2v-0.4h1.2V113.5z M690.3,118.5h-1.2v-0.4h1.2V118.5z M690.3,117.9h-1.2v-0.4h1.2V117.9z
		 M690.3,117.3h-1.2V117h1.2V117.3z M690.3,116.8h-1.2v-0.4h1.2V116.8z"/>
</g>
<g>
	<path class="st20" d="M695.2,97.7l0.7,0h1.5v-3.1h-1.8v-1h1.6v-2.6h-1.6v-0.8h1.6V88l-2.1,0L695.2,97.7z M695.7,89.5h1.2v0.4h-1.2
		V89.5z M695.7,88.9h1.2v0.4h-1.2V88.9z M695.7,88.4h1.2v0.4h-1.2V88.4z M695.7,92.8h1.2v0.4h-1.2V92.8z M695.7,92.2h1.2v0.4h-1.2
		V92.2z M695.7,91.7h1.2v0.4h-1.2V91.7z M695.8,96.7h1.2V97h-1.2V96.7z M695.8,96.1h1.2v0.4h-1.2V96.1z M695.8,95.5h1.2v0.4h-1.2
		V95.5z M695.8,95h1.2v0.4h-1.2V95z"/>
</g>
<g>
	<path class="st20" d="M695.2,108.5l0.7,0h1.5v-3.1h-1.8v-1h1.6v-2.6h-1.6v-0.8h1.6v-2.3l-2.1,0L695.2,108.5z M695.7,100.3h1.2v0.4
		h-1.2V100.3z M695.7,99.7h1.2v0.4h-1.2V99.7z M695.7,99.2h1.2v0.4h-1.2V99.2z M695.7,103.6h1.2v0.4h-1.2V103.6z M695.7,103h1.2v0.4
		h-1.2V103z M695.7,102.5h1.2v0.4h-1.2V102.5z M695.8,107.5h1.2v0.4h-1.2V107.5z M695.8,106.8h1.2v0.4h-1.2V106.8z M695.8,106.3h1.2
		v0.4h-1.2V106.3z M695.8,105.8h1.2v0.4h-1.2V105.8z"/>
</g>
<g>
	<path class="st20" d="M695.1,119.3l0.7,0h1.5v-3.1h-1.8v-1h1.6v-2.6h-1.6v-0.8h1.6v-2.3l-2.1-0.1L695.1,119.3z M695.7,111.1h1.2
		v0.4h-1.2V111.1z M695.7,110.5h1.2v0.4h-1.2V110.5z M695.7,110h1.2v0.4h-1.2V110z M695.7,114.4h1.2v0.4h-1.2V114.4z M695.7,113.8
		h1.2v0.4h-1.2V113.8z M695.7,113.3h1.2v0.4h-1.2V113.3z M695.7,118.3h1.2v0.4h-1.2V118.3z M695.7,117.6h1.2v0.4h-1.2V117.6z
		 M695.7,117.1h1.2v0.4h-1.2V117.1z M695.7,116.6h1.2v0.4h-1.2V116.6z"/>
</g>
<line class="st21" x1="932.2" y1="276" x2="939.4" y2="276"/>
<line class="st21" x1="932.2" y1="279.7" x2="939.4" y2="279.7"/>
<g>
	<path class="st0" d="M473.3,182.5v9v0.5h10v-7.8C483.3,184.3,475.4,182,473.3,182.5z"/>
	<path class="st0" d="M461.5,184.3v7.8h10v-0.5v-9C469.3,182,461.5,184.3,461.5,184.3z"/>
	<path class="st0" d="M484.9,184.8v7.3l6.7-0.3C491.6,191.8,489.7,183.8,484.9,184.8z"/>
	<path class="st0" d="M497.5,198.8h2.4v3.7h0.9v-7.8c-0.9,0.2-2,0.4-3.3,0.5V198.8z"/>
	<rect x="445.3" y="193.5" class="st0" width="2.6" height="10"/>
	<polygon class="st0" points="679.9,217.9 679.7,222 682.2,220.9 680.9,217.1 	"/>
	<path class="st0" d="M705.7,219.7c0.3-0.1,2.8,1.2,2.8,1.2l-0.1-3.3l-2.2-0.7C706.2,216.9,705.4,219.8,705.7,219.7z"/>
	<path class="st0" d="M453.1,191.8l6.7,0.3v-7.3C455,183.8,453.1,191.8,453.1,191.8z"/>
	<path class="st0" d="M850.8,312.5h3.3v-8C850.8,303.5,850.8,312.5,850.8,312.5z"/>
	<path class="st0" d="M805.6,312.3l4-0.3l2.1-9.5C807.7,299.8,805.6,312.3,805.6,312.3z"/>
	<polygon class="st0" points="683.1,216.5 683.2,220.2 686.9,219.5 686.1,215.6 	"/>
	<polygon class="st0" points="798.9,313.3 801.1,313.3 801.1,309 804.4,309 804.4,305.8 798.9,306.5 	"/>
	<path class="st0" d="M694,214.9c0,0-0.2,4.2-0.1,3.9c0.1-0.4,4.9,0.1,4.9,0.1l-0.1-3.7L694,214.9z"/>
	<path class="st0" d="M700.7,215.4l-0.2,3.6c0,0,3.6,0.4,3.8,0.6c0.2,0.2,0.1-3.3,0.1-3.3L700.7,215.4z"/>
	<path class="st0" d="M687.9,215.4l-0.1,3.7c0,0,4.8-0.5,4.9-0.1c0.1,0.4-0.1-3.9-0.1-3.9L687.9,215.4z"/>
	<path class="st22" d="M1365,317.9l-11.4,0l0.1-17.3l-20.7,0.1l-0.3,82.8h-16.7l-5.2-2v18h-21.4v5h-5.7v3.5h-6.2v3.5h-11.9V391
		h-13.3l-3.3-3h-4.8v-5.5h-15.7l-3.3,4.5h-11.4v-4h-15.2v4h-9v6c-6.2,7-6.2-1.5-6.2-1.5c-3.3,0.5-2.9-19-3.3-9.5
		c-0.5,9.5-3.8,6-3.8,6v-94h-10.5v-12.5h-9l-0.8-5.7l-0.3-2.3l-0.3-2.3h-10.2l-3.6-3.8h-8.6c-6.7,8-17.6,0-17.6,0l-2.9-31l-1.4,56.5
		h-6.2c0,0,3.8,16.5,0,14c-3.8-2.5-31.9-0.5-31.9-0.5v-5h-3.3l-0.5,7.5h-16.7l-4.8,3.5h-14.8v6h-11.9v6h-31.9v5h-9.5v3H954
		c-3.3-7.5-5.7,0.5-5.7,0.5h-12.4v-0.1h-2.4v-2h2.4v-1.7h-2.4v-2h2.4v-1.7h-2.4v-2h2.4v0v-1.6h-2.4v-2h2.4v-0.4v-1.3h-2.5v-2h2.5
		v-1.5v-0.1h-2.5v-2h2.5v-1.7h-2.5v-2h2.5v-1.7h-2.5v-2h2.5v-1.5h-2.5v-2h2.5v-0.9V300h-2.5v-2h2.5v-1.5v-0.1h-2.5v-2h2.5v-1.7h-2.5
		v-2h2.5V289h-2.7v-2h2.7v-0.2v-1.5h-2.7v-2h2.7v-1v-0.6h-2.7v-2h2.7V278h-2.7v-2h2.7v-15c-4.8-1-8.1,3-11.4,6.5s-9.5,4-9.5,4
		l-7.6-4.5v-22h-13.8v-11h-11c-0.5-4-4.3-8-8.6-8c-4.3,0-8.6,8-8.6,8h-10.5v42c-4.3-1-8.1,18.5-9,22c-1,3.5-3.3,17.5-6.7,17.5
		s-1.9-17-1.9-17h-10l-7.1,11l8.6-33.5c-5.7-2.5-10,4.5-13.3,13.5s-5.7,15-8.1,12.5s-7.6,1-7.6,1l-2.6-0.1v-2v-7.3h-1.7v8.4v0.3v1
		c-1.6,1.3-2.8,3.3-2.8,3.3h2.9l-1.8,4.6l-2.5,6.4h-3h-6v7.6v10.4h-9.1h-4.2V332h-7.1v13c-6.7,8.5-12.4-1-12.4-1
		c-6.2-2-0.5-4.5-0.5-4.5l-2.9-8h-4.8v-4h-10v4.5c0,0-5.2,0.5-11,0s-3.8-7-3.8-7h-3.8v-20.5l-6.6,0.9v-15.2
		c0.6-1.1,3.2-23.2,3.2-23.2c0.7-0.4,0.6-2.3,0.6-2.3c2-2.5,1.4-40.3,1.6-40.7c0.2-0.4,2.4-6.5,2.4-6.5c12.4-3.6,4.8-8,4.8-8
		c17.1-6.9-1.3-12.8-1.3-12.8c-1.1-1-2.6-1.3-2.6-1.3c0-0.8-3.7-2.3-3.7-2.3c0-3.6-3.9-4.6-3.9-4.6c1.7-1.3,0.7-1.8,0.8-2.4
		c0.1-0.6-2.9-18.5-2.9-18.5c6-1.7,0.9-4.5,0.9-4.5s-2.3,0.6,2.2-1.9c4.5-2.5,1.6-3.6,0.8-4.5c-0.8-0.8-6.6-2.2-6.6-2.2
		c-1.8-9.3-1.7-11-1.7-11c4.7-2.3,2.2-2.8,2.2-3.3c0-0.5-5.3-1.9-5.3-1.9l-0.3-16.2l-1.1-1.4l0.1-33c3.7-1.7-0.8-2.9-0.8-2.9
		l-0.8-23.7c2.9-0.6-0.2-1.9-0.2-1.9l-0.5-18.9c2.8-1.3-0.1-1.9-0.1-1.9l-1.6-32.1l-0.4,0l0.2,32.1c-2.5,0.7,0.1,1.9,0.1,1.9
		l-0.2,19.2c-2.6,0.8,0.1,1.6,0.1,1.6l-0.1,23.8c0,0,0-0.2-1.5,1.1c-1.4,1.2,1.3,1.9,1.3,1.9l0.3,32.8l-1.1,1.4l0.2,16.5
		c0,0-3.1,0.2-5.1,1.9c-2.1,1.8,1.6,2.8,2.2,3c0.6,0.2-1.6,11-1.6,11s-0.8,0-5.1,1.7c-4.3,1.7-2.2,4.5-1.4,4.8
		c0.8,0.4,2.4,2.3,2.4,2.3c-3.2,4.1,2.5,4.3,2.1,4.3c-0.5,0-2.3,16.7-2.6,18.3c-0.3,1.7,0.9,2.8,0.9,2.8c-4.7,1.7-4.1,4.8-4.1,4.8
		c-2.6,0.8-2.6,1.8-2.6,1.8c-2.5,0.7-3.8,1.9-3.8,1.9c-17.1,6.9-0.3,12.7-0.3,12.7c-6.9,5.2,5.2,7.6,4.8,7.7c-0.3,0.1,3,8,3,8
		l0.3,17.9c0,0,1.6,18.7,1.8,20.5c0.2,1.8,0.9,2.8,0.9,2.8c-1.1,0.5,0.3,2.4,0.3,2.4l3.4,21.7l0.2,14.5l-30.6-1.8v-14h-28.6l-0.5-24
		l-2.9,24.5h-26.7c0,7.5,1.4,34-2.9,34s-2.4-8.5-2.4-8.5c-3.8-3-33.3-1-33.3-1c-0.5,12-3.3,2-3.3,2l-6.7,1v32h-1.9v-92.5
		c-4.3-3,1.3-4.5,1.3-4.5v-9.5H544v-5h4.3v-2.8h-7.5V232h-2.2v-4.2h-29.4v2h-2.7v-24.2h-1.7v-11.5c2.9-3.3-4.9-9.5-4.9-9.5
		c-11.1-8.5-28.1-7-28.1-7s-10.5,0-23.2,5.3c-13.5,5.7-4.8,10.7-4.8,10.7V205h-4.4v89.7H434v-31.3h-5.1v-5.7h-3.2V252h-7.6l-1.3-1.8
		h-3.5c-1.8-18.4-13.8-22.8-13.8-22.8l-1.4-24l-1.4,24c-9,2-15.2,23-15.2,23l-19.5,2.5v3.5l-12.4,1V234c0,0-1.4,19.5-1.9,23.5
		c-0.5,4-4.3,8-4.3,8V277c-2.4,0-1.9,1-1.9,1c3.8,4-3.3,5-3.3,5v39.5h-2.4v9c-4.8-0.5-1.4-5-1.4-5s-15.1,0-16.7,0c1.9,0,0.5,5,0.5,5
		s-12.9,2-9,2.5c3.8,0.5,0,4,0,4v6h-5.7l-0.5,2l-6.7-0.5l-1.4-6h2.4V337h-2.9v-4.5h-1.9v-13h-2.9v-3.3l3.2,0l0-4.5l-3.1,0v-2l3.1,0
		v-2l-3.1,0v-2l3.1,0l0-2.1l-3.1,0.1l0.1-3.9l3,0v-3.1l-3.1,0l0.1-3.6l2.9,0l0-5.1l-3.1,0l-4.8-0.5c-1.9-3.5-3.3,0.5-3.3,0.5h-7.6
		v-3h-12.4l-4.8,3.5v2.5H251v5h-3.8v5h-2.4v2.5l-16.7-6.5l-16.7,7l-1.9-3v8h-4.8v4.5h-3.8V326H199v13h-4.3v4l-23.3-2v-1.6h-2.3v-2
		h2.3v-1.7h-2.3v-2h2.3v-1.5h-2.3v-2h2.3v-1.7h-2.3v-2h2.3v-0.3v-1.4h-2.3v-2h2.3v-1.4v-0.3h-2.3v-2h2.3v-1.7H169v-2h2.4v-1.7H169
		v-2h2.4v-1.7H169v-2h2.4v-0.7v-1H169v-2h2.4v-4c5.7,0,6.7-1.5,6.7-1.5h-60.5v15.5h-14.3v-8H69.5v7H57.1v-2h-3.8v1.5h-1.9v-16.5
		H28.5l0.2,93.8H10.9L10.7,401l-11,0.2l0.2,314.3L1365,716L1365,317.9z M707.1,217.9l2.2,0.7l0.1,3.3c0,0-2.4-1.3-2.8-1.2
		C706.3,220.8,707.1,217.9,707.1,217.9z M680.7,223l0.1-4.1l1-0.8l1.3,3.9L680.7,223z M448.9,204.5h-2.6v-10h2.6V204.5z M460.8,193
		l-6.7-0.3c0,0,1.9-8,6.7-7V193z M472.4,192.5v0.5h-10v-7.8c0,0,7.9-2.3,10-1.8V192.5z M484.2,193h-10v-0.5v-9
		c2.1-0.5,10,1.8,10,1.8V193z M485.9,193v-7.3c4.8-1,6.7,7,6.7,7L485.9,193z M501.7,203.5h-0.9v-3.7h-2.4v-3.7
		c1.3-0.1,2.4-0.2,3.3-0.5V203.5z M684.1,221.2l-0.1-3.7l3-0.8l0.8,3.9L684.1,221.2z M693.7,220c-0.1-0.4-4.9,0.1-4.9,0.1l0.1-3.7
		l4.7-0.2C693.6,216.1,693.8,220.3,693.7,220z M694.9,219.7c-0.1,0.4,0.1-3.9,0.1-3.9l4.7,0.2l0.1,3.7
		C699.8,219.9,695,219.4,694.9,219.7z M705.2,220.6c-0.2-0.2-3.8-0.6-3.8-0.6l0.2-3.6l3.7,1C705.3,217.3,705.4,220.8,705.2,220.6z
		 M805.4,310H802v4.3h-2.1v-6.8l5.5-0.8V310z M810.6,313l-4,0.3c0,0,2.1-12.5,6.2-9.8L810.6,313z M855.1,313.5h-3.3c0,0,0-9,3.3-8
		V313.5z"/>
	<polygon class="st20" points="932.2,277 934.9,277 939.4,277 939.4,275 934.9,275 932.2,275 	"/>
	<polygon class="st20" points="932.2,280.7 934.9,280.7 939.4,280.7 939.4,278.7 934.9,278.7 932.2,278.7 	"/>
	<polygon class="st20" points="932.2,284.4 934.9,284.4 939.4,284.4 939.4,282.4 934.9,282.4 932.2,282.4 	"/>
	<polygon class="st20" points="932.2,288 934.9,288 939.4,288 939.4,286 934.9,286 932.2,286 	"/>
	<polygon class="st20" points="932.4,291.7 934.9,291.7 939.5,291.7 939.5,289.7 934.9,289.7 932.4,289.7 	"/>
	<polygon class="st20" points="932.4,295.4 934.9,295.4 939.5,295.4 939.5,293.4 934.9,293.4 932.4,293.4 	"/>
	<polygon class="st20" points="932.4,299 934.9,299 939.5,299 939.5,297 934.9,297 932.4,297 	"/>
	<polygon class="st20" points="932.4,302.7 934.9,302.7 939.5,302.7 939.5,300.7 934.9,300.7 932.4,300.7 	"/>
	<polygon class="st20" points="932.4,306.2 934.9,306.2 939.5,306.2 939.5,304.2 934.9,304.2 932.4,304.2 	"/>
	<polygon class="st20" points="932.4,309.9 934.9,309.9 939.5,309.9 939.5,307.9 934.9,307.9 932.4,307.9 	"/>
	<polygon class="st20" points="932.4,313.5 934.9,313.5 939.5,313.5 939.5,311.5 934.9,311.5 932.4,311.5 	"/>
	<polygon class="st20" points="932.4,317.2 934.9,317.2 939.5,317.2 939.5,315.2 934.9,315.2 932.4,315.2 	"/>
	<polygon class="st20" points="932.5,320.9 934.9,320.9 939.7,320.9 939.7,318.9 934.9,318.9 932.5,318.9 	"/>
	<polygon class="st20" points="932.5,324.5 934.9,324.5 939.7,324.5 939.7,322.5 934.9,322.5 932.5,322.5 	"/>
	<polygon class="st20" points="932.5,328.2 934.9,328.2 939.7,328.2 939.7,326.2 934.9,326.2 932.5,326.2 	"/>
	<polygon class="st20" points="932.5,331.9 934.9,331.9 939.7,331.9 939.7,329.9 934.9,329.9 932.5,329.9 	"/>
	<polygon class="st20" points="168,305.5 170.5,305.5 175.2,305.5 175.2,303.5 170.5,303.5 168,303.5 	"/>
	<polygon class="st20" points="168,309.2 170.5,309.2 175.2,309.2 175.2,307.2 170.5,307.2 168,307.2 	"/>
	<polygon class="st20" points="168,312.9 170.5,312.9 175.2,312.9 175.2,310.9 170.5,310.9 168,310.9 	"/>
	<polygon class="st20" points="168,316.5 170.5,316.5 175.2,316.5 175.2,314.5 170.5,314.5 168,314.5 	"/>
	<polygon class="st20" points="168.2,320.2 170.5,320.2 175.3,320.2 175.3,318.2 170.5,318.2 168.2,318.2 	"/>
	<polygon class="st20" points="168.2,323.9 170.5,323.9 175.3,323.9 175.3,321.9 170.5,321.9 168.2,321.9 	"/>
	<polygon class="st20" points="168.2,327.5 170.5,327.5 175.3,327.5 175.3,325.5 170.5,325.5 168.2,325.5 	"/>
	<polygon class="st20" points="168.2,331.2 170.5,331.2 175.3,331.2 175.3,329.2 170.5,329.2 168.2,329.2 	"/>
	<polygon class="st20" points="168.2,334.7 170.5,334.7 175.3,334.7 175.3,332.7 170.5,332.7 168.2,332.7 	"/>
	<polygon class="st20" points="168.2,338.4 170.5,338.4 175.3,338.4 175.3,336.4 170.5,336.4 168.2,336.4 	"/>
</g>
<path class="st20" d="M724.1,197.3l-0.5,0c0-0.4,0-0.7-0.1-1.1l0.4,0l0-0.5l-0.5,0c-0.1-0.4-0.3-0.7-0.6-1.1
	c-0.1-0.1-0.1-0.2-0.2-0.2l0.5-0.1l-0.1-0.5l-0.8,0.1c-0.4-0.4-0.9-0.8-1.5-1.2l0.5-0.1l-0.1-0.5l-1,0.2c-0.7-0.4-1.6-0.8-2.5-1.2
	l0.5-0.1l-0.1-0.5L717,191c-1-0.4-2.1-0.7-3.3-1l0.7-0.4l-0.2-0.4l-1.3,0.6c-3.2-0.7-6.6-1.2-9.1-1.4c-8.6-0.8-18.5-0.4-25.2,1
	c-2.5,0.5-4.5,1.1-6.2,1.7l-0.8-0.3l-0.2,0.5l0.3,0.1c-1,0.4-1.9,0.8-2.7,1.2l-1.1-0.2l-0.1,0.5l0.5,0.1c-0.6,0.4-1.2,0.8-1.6,1.1
	l-1-0.2l-0.1,0.5l0.6,0.1c-0.5,0.4-0.8,0.9-1.1,1.3l-0.5-0.1l-0.1,0.5l0.3,0c-0.1,0.1-0.1,0.2-0.2,0.4c-0.1,0.3-0.2,0.6-0.2,0.8
	l-0.7,0l0,0.5l0.7,0c-0.1,1.3,0.5,2.2,0.5,2.3l0.4-0.3v0c0,0-0.5-0.8-0.5-2l4.6,0.2l0-0.5l-4.6-0.2c0-0.2,0.1-0.4,0.2-0.7
	c0.1-0.2,0.1-0.3,0.2-0.5l6.2,0.7l0.1-0.5l-6-0.7c0.3-0.4,0.6-0.8,1.1-1.3l7.6,1.1l0.1-0.5l-7.2-1.1c0.5-0.4,1-0.7,1.7-1.1l6.8,1.4
	l0.1-0.5l-6.3-1.3c0.8-0.4,1.6-0.7,2.6-1.1l5.7,2.2l0.2-0.5l-5.1-2c1.5-0.5,3.4-1,5.6-1.4c9.1-1.8,23.6-1.9,33.6,0.3l-4.2,2.1
	l0.2,0.4l4.7-2.3c1.1,0.3,2.2,0.6,3.2,0.9l-5.5,1.7l0.1,0.5l6.1-1.9c0.9,0.3,1.7,0.7,2.5,1.1l-6.8,1.4l0.1,0.5l7.3-1.6
	c0.6,0.4,1.1,0.7,1.5,1.1l-7.3,0.9l0.1,0.5l7.7-1c0.1,0.1,0.3,0.3,0.4,0.5c0.2,0.3,0.3,0.5,0.4,0.8l-6,0.3l0,0.5l6.2-0.3
	c0.1,0.3,0.1,0.7,0.1,1l-3.5-0.1l0,0.5l3.5,0.1c-0.1,0.5-0.2,1-0.5,1.5l0.4,0.2c0.3-0.6,0.5-1.1,0.5-1.7l0.5,0L724.1,197.3z"/>
<g>
	<path class="st0" d="M461.5,184.3v7.8h10v-0.5v-9C469.3,182,461.5,184.3,461.5,184.3z"/>
	<path class="st0" d="M453.1,191.8l6.7,0.3v-7.3C455,183.8,453.1,191.8,453.1,191.8z"/>
	<path class="st0" d="M473.3,182.5v9v0.5h10v-7.8C483.3,184.3,475.4,182,473.3,182.5z"/>
	<path class="st0" d="M497.5,198.8h2.4v3.7h0.9v-7.8c-0.9,0.2-2,0.4-3.3,0.5V198.8z"/>
	<rect x="445.3" y="193.5" class="st0" width="2.6" height="10"/>
	<polygon class="st0" points="798.9,313.3 801.1,313.3 801.1,309 804.4,309 804.4,305.8 798.9,306.5 	"/>
	<path class="st0" d="M484.9,184.8v7.3l6.7-0.3C491.6,191.8,489.7,183.8,484.9,184.8z"/>
	<path class="st0" d="M805.6,312.3l4-0.3l2.1-9.5C807.7,299.8,805.6,312.3,805.6,312.3z"/>
	<path class="st0" d="M850.8,312.5h3.3v-8C850.8,303.5,850.8,312.5,850.8,312.5z"/>
</g>
<g>
	<linearGradient id="SVGID_20_" gradientUnits="userSpaceOnUse" x1="688.8168" y1="9.6414" x2="694.4476" y2="9.6414">
		<stop  offset="0.1966" style="stop-color:#AAD037"/>
		<stop  offset="0.809" style="stop-color:#91C13E"/>
	</linearGradient>
	<polygon class="st23" points="689,7.5 688.8,11.5 688.8,11.8 689.2,11.8 694.1,11.8 694.4,11.8 694.4,11.5 694.2,7.5 694,7.5 
		693.8,11.5 694.1,11.1 689.2,11.1 689.5,11.5 689.3,7.5 	"/>
</g>
<g>
	<linearGradient id="SVGID_21_" gradientUnits="userSpaceOnUse" x1="689.0456" y1="18.9317" x2="694.6774" y2="18.9317">
		<stop  offset="0.1966" style="stop-color:#AAD037"/>
		<stop  offset="0.809" style="stop-color:#91C13E"/>
	</linearGradient>
	<polygon class="st24" points="689.3,16.8 689,20.8 689,21.1 689.4,21.1 694.3,21.1 694.7,21.1 694.7,20.8 694.4,16.8 694.2,16.8 
		694,20.8 694.3,20.4 689.4,20.4 689.7,20.8 689.5,16.8 	"/>
</g>
<g>
	<linearGradient id="SVGID_22_" gradientUnits="userSpaceOnUse" x1="689.1609" y1="23.7581" x2="694.7927" y2="23.7581">
		<stop  offset="0.1966" style="stop-color:#AAD037"/>
		<stop  offset="0.809" style="stop-color:#91C13E"/>
	</linearGradient>
	<polygon class="st25" points="689.4,21.6 689.2,25.6 689.2,25.9 689.5,25.9 694.4,25.9 694.8,25.9 694.8,25.6 694.6,21.6 
		694.3,21.6 694.1,25.6 694.4,25.2 689.5,25.2 689.9,25.6 689.6,21.6 	"/>
</g>
<linearGradient id="SVGID_23_" gradientUnits="userSpaceOnUse" x1="688.72" y1="13.4766" x2="694.5936" y2="13.4766">
	<stop  offset="0.1966" style="stop-color:#AAD037"/>
	<stop  offset="0.809" style="stop-color:#91C13E"/>
</linearGradient>
<polygon class="st26" points="694.1,12.8 694.1,13.2 689.2,13.2 689.2,12.8 688.7,12.8 688.7,14.1 689.2,14.1 689.2,13.7 
	694.1,13.7 694.1,14.1 694.6,14.1 694.6,12.8 "/>
<linearGradient id="SVGID_24_" gradientUnits="userSpaceOnUse" x1="688.7181" y1="15.5904" x2="694.5909" y2="15.5904">
	<stop  offset="0.1966" style="stop-color:#AAD037"/>
	<stop  offset="0.809" style="stop-color:#91C13E"/>
</linearGradient>
<polygon class="st27" points="694.1,14.9 694.1,15.3 689.2,15.3 689.2,14.9 688.7,14.9 688.7,16.3 689.2,16.3 689.2,15.8 
	694.1,15.8 694.1,16.3 694.6,16.3 694.6,14.9 "/>
<linearGradient id="SVGID_25_" gradientUnits="userSpaceOnUse" x1="689.3321" y1="27.0728" x2="694.5229" y2="27.0728">
	<stop  offset="0.1966" style="stop-color:#AAD037"/>
	<stop  offset="0.809" style="stop-color:#91C13E"/>
</linearGradient>
<polygon class="st28" points="694.1,26.5 694.1,26.8 689.7,26.8 689.7,26.5 689.3,26.5 689.3,27.7 689.7,27.7 689.7,27.3 
	694.1,27.3 694.1,27.7 694.5,27.7 694.5,26.5 "/>
<linearGradient id="SVGID_26_" gradientUnits="userSpaceOnUse" x1="689.3302" y1="28.9404" x2="694.5211" y2="28.9404">
	<stop  offset="0.1966" style="stop-color:#AAD037"/>
	<stop  offset="0.809" style="stop-color:#91C13E"/>
</linearGradient>
<polygon class="st29" points="694.1,28.4 694.1,28.7 689.7,28.7 689.7,28.3 689.3,28.3 689.3,29.5 689.7,29.5 689.7,29.1 
	694.1,29.1 694.1,29.5 694.5,29.5 694.5,28.4 "/>
<linearGradient id="SVGID_27_" gradientUnits="userSpaceOnUse" x1="689.3321" y1="30.5313" x2="694.5229" y2="30.5313">
	<stop  offset="0.1966" style="stop-color:#AAD037"/>
	<stop  offset="0.809" style="stop-color:#91C13E"/>
</linearGradient>
<polygon class="st30" points="694.1,29.9 694.1,30.3 689.7,30.3 689.7,29.9 689.3,29.9 689.3,31.1 689.7,31.1 689.7,30.7 
	694.1,30.7 694.1,31.1 694.5,31.1 694.5,29.9 "/>
<linearGradient id="SVGID_28_" gradientUnits="userSpaceOnUse" x1="689.3302" y1="32.3992" x2="694.5211" y2="32.3992">
	<stop  offset="0.1966" style="stop-color:#AAD037"/>
	<stop  offset="0.809" style="stop-color:#91C13E"/>
</linearGradient>
<polygon class="st31" points="694.1,31.8 694.1,32.2 689.7,32.2 689.7,31.8 689.3,31.8 689.3,33 689.7,33 689.7,32.6 694.1,32.6 
	694.1,33 694.5,33 694.5,31.8 "/>
<g>
	<linearGradient id="SVGID_29_" gradientUnits="userSpaceOnUse" x1="689.3135" y1="41.7756" x2="694.9453" y2="41.7756">
		<stop  offset="0.1966" style="stop-color:#AAD037"/>
		<stop  offset="0.809" style="stop-color:#91C13E"/>
	</linearGradient>
	<polygon class="st32" points="689.5,39.6 689.3,43.6 689.3,44 689.7,44 694.6,44 694.9,44 694.9,43.6 694.7,39.6 694.5,39.6 
		694.3,43.6 694.6,43.2 689.7,43.2 690,43.6 689.8,39.6 	"/>
</g>
<linearGradient id="SVGID_30_" gradientUnits="userSpaceOnUse" x1="689.5609" y1="45.1885" x2="694.7499" y2="45.1885">
	<stop  offset="0.1966" style="stop-color:#AAD037"/>
	<stop  offset="0.809" style="stop-color:#91C13E"/>
</linearGradient>
<polygon class="st33" points="694.3,44.6 694.3,45 690,45 690,44.6 689.6,44.6 689.6,45.8 690,45.8 690,45.4 694.3,45.4 694.3,45.8 
	694.7,45.8 694.7,44.6 "/>
<linearGradient id="SVGID_31_" gradientUnits="userSpaceOnUse" x1="689.1609" y1="35.6926" x2="695.0997" y2="35.6926">
	<stop  offset="0.1966" style="stop-color:#AAD037"/>
	<stop  offset="0.809" style="stop-color:#91C13E"/>
</linearGradient>
<path class="st34" d="M690.1,38h-0.9l0-4.3l0.3,3.9h0.5l0.2-2l0.2,0l0,1.9c0,0,0.5-0.3,0.6-0.3c0.1,0,1.8-0.2,1.9,0
	c0.1,0.2,0.1-1.7,0.1-1.7l0.2,0l0.1,1.6l0.6,0.1v-2.4h0.2l0.2,2.4l0.5,0l0.1-3.7l0.3,4.2l-1.9,0C693.2,37.6,691.3,37.1,690.1,38z"/>
<g>
	<linearGradient id="SVGID_32_" gradientUnits="userSpaceOnUse" x1="689.6205" y1="59.522" x2="696.363" y2="59.522">
		<stop  offset="0.1966" style="stop-color:#AAD037"/>
		<stop  offset="0.809" style="stop-color:#91C13E"/>
	</linearGradient>
	<rect x="689.6" y="59" class="st35" width="6.7" height="1.1"/>
	<linearGradient id="SVGID_33_" gradientUnits="userSpaceOnUse" x1="686.5562" y1="56.9881" x2="697.8198" y2="56.9881">
		<stop  offset="0.1966" style="stop-color:#AAD037"/>
		<stop  offset="0.809" style="stop-color:#91C13E"/>
	</linearGradient>
	<path class="st36" d="M697.4,55.5v3h-0.5v-1.6h-0.5v1.6h-6.7v-0.6h5.7h0.2v-0.2v-4.2h-0.5v3.9h-5.5v-0.9h-0.5v0.9h-0.8v-3.8h-0.5v4
		v0.2h0.2h1v0.6H687v-2.7h-0.5v3V59h0.2h2.4v1.4v0.2h0.2h7.2h0.2v-0.2V59h0.8h0.2v-0.2v-3.2H697.4z M696.4,60.1h-6.7V59h6.7V60.1z"
		/>
</g>
<g>
	<linearGradient id="SVGID_34_" gradientUnits="userSpaceOnUse" x1="689.0084" y1="66.6758" x2="690.9991" y2="66.6758">
		<stop  offset="0.1966" style="stop-color:#AAD037"/>
		<stop  offset="0.809" style="stop-color:#91C13E"/>
	</linearGradient>
	<path class="st37" d="M691,61.2l-1.8,0v2.3h1.6v0.8h-1.6v2.6h1.6v1H689v3.1h1.5l0.5,1.2L691,61.2z M690.7,63.1h-1.2v-0.4h1.2V63.1z
		 M690.7,62.5h-1.2v-0.4h1.2V62.5z M690.7,62h-1.2v-0.4h1.2V62z M690.7,66.4h-1.2V66h1.2V66.4z M690.7,65.8h-1.2v-0.4h1.2V65.8z
		 M690.7,65.3h-1.2v-0.4h1.2V65.3z M690.6,70.3h-1.2v-0.4h1.2V70.3z M690.6,69.6h-1.2v-0.4h1.2V69.6z M690.6,69.1h-1.2v-0.4h1.2
		V69.1z M690.6,68.6h-1.2v-0.4h1.2V68.6z"/>
</g>
<g>
	<linearGradient id="SVGID_35_" gradientUnits="userSpaceOnUse" x1="693.6625" y1="66.7058" x2="695.6262" y2="66.7058">
		<stop  offset="0.1966" style="stop-color:#AAD037"/>
		<stop  offset="0.809" style="stop-color:#91C13E"/>
	</linearGradient>
	<path class="st38" d="M693.7,72.2l0.4-1.2h1.5v-3.1h-1.8v-1h1.6v-2.6h-1.6v-0.8h1.6v-2.3l-1.8,0L693.7,72.2z M693.9,62.7h1.2v0.4
		h-1.2V62.7z M693.9,62.2h1.2v0.4h-1.2V62.2z M693.9,61.7h1.2V62h-1.2V61.7z M693.9,66h1.2v0.4h-1.2V66z M693.9,65.5h1.2v0.4h-1.2
		V65.5z M693.9,64.9h1.2v0.4h-1.2V64.9z M694,69.9h1.2v0.4H694V69.9z M694,69.3h1.2v0.4H694V69.3z M694,68.7h1.2v0.4H694V68.7z
		 M694,68.2h1.2v0.4H694V68.2z"/>
</g>
<g>
	<linearGradient id="SVGID_36_" gradientUnits="userSpaceOnUse" x1="688.6056" y1="92.7368" x2="690.8466" y2="92.7368">
		<stop  offset="0.1966" style="stop-color:#AAD037"/>
		<stop  offset="0.809" style="stop-color:#91C13E"/>
	</linearGradient>
	<path class="st39" d="M690.7,87.9l-2,0v2.3h1.6V91h-1.6v2.6h1.6v1h-1.8v3.1h1.5l0.7,0L690.7,87.9z M690.3,89.7h-1.2v-0.4h1.2V89.7z
		 M690.3,89.2h-1.2v-0.4h1.2V89.2z M690.3,88.6h-1.2v-0.4h1.2V88.6z M690.3,93h-1.2v-0.4h1.2V93z M690.3,92.5h-1.2v-0.4h1.2V92.5z
		 M690.3,91.9h-1.2v-0.4h1.2V91.9z M690.2,96.9H689v-0.4h1.2V96.9z M690.2,96.3H689v-0.4h1.2V96.3z M690.2,95.7H689v-0.4h1.2V95.7z
		 M690.2,95.2H689v-0.4h1.2V95.2z"/>
</g>
<g>
	<linearGradient id="SVGID_37_" gradientUnits="userSpaceOnUse" x1="688.6056" y1="103.4956" x2="690.9666" y2="103.4956">
		<stop  offset="0.1966" style="stop-color:#AAD037"/>
		<stop  offset="0.809" style="stop-color:#91C13E"/>
	</linearGradient>
	<path class="st40" d="M690.9,98.6l-2.1,0v2.3h1.6v0.8h-1.6v2.6h1.6v1h-1.8v3.1h1.5l0.8,0L690.9,98.6z M690.3,100.5h-1.2v-0.4h1.2
		V100.5z M690.3,99.9h-1.2v-0.4h1.2V99.9z M690.3,99.4h-1.2v-0.4h1.2V99.4z M690.3,103.8h-1.2v-0.4h1.2V103.8z M690.3,103.2h-1.2
		v-0.4h1.2V103.2z M690.3,102.7h-1.2v-0.4h1.2V102.7z M690.2,107.7H689v-0.4h1.2V107.7z M690.2,107.1H689v-0.4h1.2V107.1z
		 M690.2,106.5H689v-0.4h1.2V106.5z M690.2,106H689v-0.4h1.2V106z"/>
</g>
<g>
	<linearGradient id="SVGID_38_" gradientUnits="userSpaceOnUse" x1="688.6632" y1="114.3188" x2="691.0856" y2="114.3188">
		<stop  offset="0.1966" style="stop-color:#AAD037"/>
		<stop  offset="0.809" style="stop-color:#91C13E"/>
	</linearGradient>
	<path class="st41" d="M691,109.5l-2.1,0v2.3h1.6v0.8h-1.6v2.6h1.6v1h-1.8v3.1h1.5l0.9-0.1L691,109.5z M690.3,111.3h-1.2V111h1.2
		V111.3z M690.3,110.7h-1.2v-0.4h1.2V110.7z M690.3,110.2h-1.2v-0.4h1.2V110.2z M690.3,114.6h-1.2v-0.4h1.2V114.6z M690.3,114h-1.2
		v-0.4h1.2V114z M690.3,113.5h-1.2v-0.4h1.2V113.5z M690.3,118.5h-1.2v-0.4h1.2V118.5z M690.3,117.9h-1.2v-0.4h1.2V117.9z
		 M690.3,117.3h-1.2V117h1.2V117.3z M690.3,116.8h-1.2v-0.4h1.2V116.8z"/>
</g>
<g>
	<path class="st20" d="M695.2,97.7l0.7,0h1.5v-3.1h-1.8v-1h1.6v-2.6h-1.6v-0.8h1.6V88l-2.1,0L695.2,97.7z M695.7,89.5h1.2v0.4h-1.2
		V89.5z M695.7,88.9h1.2v0.4h-1.2V88.9z M695.7,88.4h1.2v0.4h-1.2V88.4z M695.7,92.8h1.2v0.4h-1.2V92.8z M695.7,92.2h1.2v0.4h-1.2
		V92.2z M695.7,91.7h1.2v0.4h-1.2V91.7z M695.8,96.7h1.2V97h-1.2V96.7z M695.8,96.1h1.2v0.4h-1.2V96.1z M695.8,95.5h1.2v0.4h-1.2
		V95.5z M695.8,95h1.2v0.4h-1.2V95z"/>
</g>
<g>
	<path class="st20" d="M695.2,108.5l0.7,0h1.5v-3.1h-1.8v-1h1.6v-2.6h-1.6v-0.8h1.6v-2.3l-2.1,0L695.2,108.5z M695.7,100.3h1.2v0.4
		h-1.2V100.3z M695.7,99.7h1.2v0.4h-1.2V99.7z M695.7,99.2h1.2v0.4h-1.2V99.2z M695.7,103.6h1.2v0.4h-1.2V103.6z M695.7,103h1.2v0.4
		h-1.2V103z M695.7,102.5h1.2v0.4h-1.2V102.5z M695.8,107.5h1.2v0.4h-1.2V107.5z M695.8,106.8h1.2v0.4h-1.2V106.8z M695.8,106.3h1.2
		v0.4h-1.2V106.3z M695.8,105.8h1.2v0.4h-1.2V105.8z"/>
</g>
<g>
	<path class="st20" d="M695.1,119.3l0.7,0h1.5v-3.1h-1.8v-1h1.6v-2.6h-1.6v-0.8h1.6v-2.3l-2.1-0.1L695.1,119.3z M695.7,111.1h1.2
		v0.4h-1.2V111.1z M695.7,110.5h1.2v0.4h-1.2V110.5z M695.7,110h1.2v0.4h-1.2V110z M695.7,114.4h1.2v0.4h-1.2V114.4z M695.7,113.8
		h1.2v0.4h-1.2V113.8z M695.7,113.3h1.2v0.4h-1.2V113.3z M695.7,118.3h1.2v0.4h-1.2V118.3z M695.7,117.6h1.2v0.4h-1.2V117.6z
		 M695.7,117.1h1.2v0.4h-1.2V117.1z M695.7,116.6h1.2v0.4h-1.2V116.6z"/>
</g>
<line class="st21" x1="932.2" y1="276" x2="939.4" y2="276"/>
<line class="st21" x1="932.2" y1="279.7" x2="939.4" y2="279.7"/>
<g>
	<path class="st0" d="M473.3,182.5v9v0.5h10v-7.8C483.3,184.3,475.4,182,473.3,182.5z"/>
	<path class="st0" d="M461.5,184.3v7.8h10v-0.5v-9C469.3,182,461.5,184.3,461.5,184.3z"/>
	<path class="st0" d="M484.9,184.8v7.3l6.7-0.3C491.6,191.8,489.7,183.8,484.9,184.8z"/>
	<path class="st0" d="M497.5,198.8h2.4v3.7h0.9v-7.8c-0.9,0.2-2,0.4-3.3,0.5V198.8z"/>
	<rect x="445.3" y="193.5" class="st0" width="2.6" height="10"/>
	<polygon class="st0" points="679.9,217.9 679.7,222 682.2,220.9 680.9,217.1 	"/>
	<path class="st0" d="M705.7,219.7c0.3-0.1,2.8,1.2,2.8,1.2l-0.1-3.3l-2.2-0.7C706.2,216.9,705.4,219.8,705.7,219.7z"/>
	<path class="st0" d="M453.1,191.8l6.7,0.3v-7.3C455,183.8,453.1,191.8,453.1,191.8z"/>
	<path class="st0" d="M850.8,312.5h3.3v-8C850.8,303.5,850.8,312.5,850.8,312.5z"/>
	<path class="st0" d="M805.6,312.3l4-0.3l2.1-9.5C807.7,299.8,805.6,312.3,805.6,312.3z"/>
	<polygon class="st0" points="683.1,216.5 683.2,220.2 686.9,219.5 686.1,215.6 	"/>
	<polygon class="st0" points="798.9,313.3 801.1,313.3 801.1,309 804.4,309 804.4,305.8 798.9,306.5 	"/>
	<path class="st0" d="M694,214.9c0,0-0.2,4.2-0.1,3.9c0.1-0.4,4.9,0.1,4.9,0.1l-0.1-3.7L694,214.9z"/>
	<path class="st0" d="M700.7,215.4l-0.2,3.6c0,0,3.6,0.4,3.8,0.6c0.2,0.2,0.1-3.3,0.1-3.3L700.7,215.4z"/>
	<path class="st0" d="M687.9,215.4l-0.1,3.7c0,0,4.8-0.5,4.9-0.1c0.1,0.4-0.1-3.9-0.1-3.9L687.9,215.4z"/>
	<linearGradient id="SVGID_39_" gradientUnits="userSpaceOnUse" x1="681.9172" y1="6.4946" x2="681.9172" y2="1630">
		<stop  offset="0.1966" style="stop-color:#AAD037"/>
		<stop  offset="0.809" style="stop-color:#91C13E"/>
	</linearGradient>
	<path class="st42" d="M1365,316.9l-12.4,0l0.1-17.3l-20.7,0.1l-0.3,82.8H1315l-5.2-2v18h-21.4v5h-5.7v3.5h-6.2v3.5h-11.9V390h-13.3
		l-3.3-3h-4.8v-5.5h-15.7l-3.3,4.5h-11.4v-4h-15.2v4h-9v6c-6.2,7-6.2-1.5-6.2-1.5c-3.3,0.5-2.9-19-3.3-9.5s-3.8,6-3.8,6v-94h-10.5
		v-12.5h-9l-0.8-5.7l-0.3-2.3l-0.3-2.3h-10.2l-3.6-3.8h-8.6c-6.7,8-17.6,0-17.6,0l-2.9-31l-1.4,56.5h-6.2c0,0,3.8,16.5,0,14
		s-31.9-0.5-31.9-0.5v-5h-3.3l-0.5,7.5h-16.7l-4.8,3.5h-14.8v6h-11.9v6h-31.9v5h-9.5v3H953c-3.3-7.5-5.7,0.5-5.7,0.5h-12.4v-0.1
		h-2.4v-2h2.4v-1.7h-2.4v-2h2.4v-1.7h-2.4v-2h2.4v0v-1.6h-2.4v-2h2.4v-0.4v-1.3h-2.5v-2h2.5v-1.5v-0.1h-2.5v-2h2.5v-1.7h-2.5v-2h2.5
		v-1.7h-2.5v-2h2.5v-1.5h-2.5v-2h2.5v-0.9V299h-2.5v-2h2.5v-1.5v-0.1h-2.5v-2h2.5v-1.7h-2.5v-2h2.5V288h-2.7v-2h2.7v-0.2v-1.5h-2.7
		v-2h2.7v-1v-0.6h-2.7v-2h2.7V277h-2.7v-2h2.7v-15c-4.8-1-8.1,3-11.4,6.5s-9.5,4-9.5,4l-7.6-4.5v-22h-13.8v-11h-11
		c-0.5-4-4.3-8-8.6-8c-4.3,0-8.6,8-8.6,8h-10.5v42c-4.3-1-8.1,18.5-9,22c-1,3.5-3.3,17.5-6.7,17.5s-1.9-17-1.9-17h-10l-7.1,11
		l8.6-33.5c-5.7-2.5-10,4.5-13.3,13.5s-5.7,15-8.1,12.5c-2.4-2.5-7.6,1-7.6,1l-2.6-0.1v-2v-7.3h-1.7v8.4v0.3v1
		c-1.6,1.3-2.8,3.3-2.8,3.3h2.9l-1.8,4.6l-2.5,6.4h-3h-6v7.6v10.4H772h-4.2V331h-7.1v13c-6.7,8.5-12.4-1-12.4-1
		c-6.2-2-0.5-4.5-0.5-4.5l-2.9-8h-4.8v-4h-10v4.5c0,0-5.2,0.5-11,0s-3.8-7-3.8-7h-3.8v-20.5l-6.6,0.9v-15.2
		c0.6-1.1,3.2-23.2,3.2-23.2c0.7-0.4,0.6-2.3,0.6-2.3c2-2.5,1.4-40.3,1.6-40.7c0.2-0.4,2.4-6.5,2.4-6.5c12.4-3.6,4.8-8,4.8-8
		c17.1-6.9-1.3-12.8-1.3-12.8c-1.1-1-2.6-1.3-2.6-1.3c0-0.8-3.7-2.3-3.7-2.3c0-3.6-3.9-4.6-3.9-4.6c1.7-1.3,0.7-1.8,0.8-2.4
		c0.1-0.6-2.9-18.5-2.9-18.5c6-1.7,0.9-4.5,0.9-4.5s-2.3,0.6,2.2-1.9c4.5-2.5,1.6-3.6,0.8-4.5c-0.8-0.8-6.6-2.2-6.6-2.2
		c-1.8-9.3-1.7-11-1.7-11c4.7-2.3,2.2-2.8,2.2-3.3c0-0.5-5.3-1.9-5.3-1.9l-0.3-16.2l-1.1-1.4l0.1-33c3.7-1.7-0.8-2.9-0.8-2.9
		l-0.8-23.7c2.9-0.6-0.2-1.9-0.2-1.9l-0.5-18.9c2.8-1.3-0.1-1.9-0.1-1.9l-0.9-31.1l-0.4,0L691,37.6c-2.5,0.7,0.1,1.9,0.1,1.9
		l-0.2,19.2c-2.6,0.8,0.1,1.6,0.1,1.6l-0.1,23.8c0,0,0-0.2-1.5,1.1c-1.4,1.2,1.3,1.9,1.3,1.9l0.3,32.8l-1.1,1.4l0.2,16.5
		c0,0-3.1,0.2-5.1,1.9c-2.1,1.8,1.6,2.8,2.2,3c0.6,0.2-1.6,11-1.6,11s-0.8,0-5.1,1.7c-4.3,1.7-2.2,4.5-1.4,4.8
		c0.8,0.4,2.4,2.3,2.4,2.3c-3.2,4.1,2.5,4.3,2.1,4.3c-0.5,0-2.3,16.7-2.6,18.3c-0.3,1.7,0.9,2.8,0.9,2.8c-4.7,1.7-4.1,4.8-4.1,4.8
		c-2.6,0.8-2.6,1.8-2.6,1.8c-2.5,0.7-3.8,1.9-3.8,1.9c-17.1,6.9-0.3,12.7-0.3,12.7c-6.9,5.2,5.2,7.6,4.8,7.7c-0.3,0.1,3,8,3,8
		l0.3,17.9c0,0,1.6,18.7,1.8,20.5c0.2,1.8,0.9,2.8,0.9,2.8c-1.1,0.5,0.3,2.4,0.3,2.4l3.4,21.7l0.2,14.5l-30.6-1.8v-14h-28.6l-0.5-24
		l-2.9,24.5h-26.7c0,7.5,1.4,34-2.9,34s-2.4-8.5-2.4-8.5c-3.8-3-33.3-1-33.3-1c-0.5,12-3.3,2-3.3,2l-6.7,1v32h-1.9v-92.5
		c-4.3-3,1.3-4.5,1.3-4.5v-9.5h-4.4v-5h4.3v-2.8h-7.5V231h-2.2v-4.2h-29.4v2h-2.7v-24.2h-1.7v-11.5c2.9-3.3-4.9-9.5-4.9-9.5
		c-11.1-8.5-28.1-7-28.1-7s-10.5,0-23.2,5.3c-13.5,5.7-4.8,10.7-4.8,10.7V204h-4.4v89.7h-5.4v-31.3H428v-5.7h-3.2V251h-7.6l-1.3-1.8
		h-3.5c-1.8-18.4-13.8-22.8-13.8-22.8l-1.4-24l-1.4,24c-9,2-15.2,23-15.2,23L361,252v3.5l-12.4,1V233c0,0-1.4,19.5-1.9,23.5
		c-0.5,4-4.3,8-4.3,8V276c-2.4,0-1.9,1-1.9,1c3.8,4-3.3,5-3.3,5v39.5h-2.4v9c-4.8-0.5-1.4-5-1.4-5s-15.1,0-16.7,0c1.9,0,0.5,5,0.5,5
		s-12.9,2-9,2.5s0,4,0,4v6h-5.7l-0.5,2l-6.7-0.5l-1.4-6h2.4V336h-2.9v-4.5h-1.9v-13h-2.9v-3.3l3.2,0l0-4.5l-3.1,0v-2l3.1,0v-2
		l-3.1,0v-2l3.1,0l0-2.1l-3.1,0.1l0.1-3.9l3,0v-3.1l-3.1,0l0.1-3.6l2.9,0l0-5.1l-3.1,0l-4.8-0.5c-1.9-3.5-3.3,0.5-3.3,0.5h-7.6v-3
		h-12.4l-4.8,3.5v2.5H250v5h-3.8v5h-2.4v2.5l-16.7-6.5l-16.7,7l-1.9-3v8h-4.8v4.5H200V325h-1.9v13h-4.3v4l-23.3-2v-1.6h-2.3v-2h2.3
		v-1.7h-2.3v-2h2.3v-1.5h-2.3v-2h2.3v-1.7h-2.3v-2h2.3v-0.3v-1.4h-2.3v-2h2.3v-1.4v-0.3h-2.3v-2h2.3v-1.7H168v-2h2.4v-1.7H168v-2
		h2.4v-1.7H168v-2h2.4v-0.7v-1H168v-2h2.4v-4c5.7,0,6.7-1.5,6.7-1.5h-60.5v15.5h-14.3v-8H68.5v7H56.1v-2h-3.8v1.5h-1.9v-16.5H27.6
		l0.2,93.8H9.9L9.8,400l-11,0.2L-1,1629.5l1366,0.5L1365,316.9z M706.2,216.9l2.2,0.7l0.1,3.3c0,0-2.4-1.3-2.8-1.2
		C705.4,219.8,706.2,216.9,706.2,216.9z M679.7,222l0.1-4.1l1-0.8l1.3,3.9L679.7,222z M447.9,203.5h-2.6v-10h2.6V203.5z M459.8,192
		l-6.7-0.3c0,0,1.9-8,6.7-7V192z M471.5,191.5v0.5h-10v-7.8c0,0,7.9-2.3,10-1.8V191.5z M483.3,192h-10v-0.5v-9
		c2.1-0.5,10,1.8,10,1.8V192z M484.9,192v-7.3c4.8-1,6.7,7,6.7,7L484.9,192z M500.8,202.5h-0.9v-3.7h-2.4v-3.7
		c1.3-0.1,2.4-0.2,3.3-0.5V202.5z M683.2,220.2l-0.1-3.7l3-0.8l0.8,3.9L683.2,220.2z M692.7,219c-0.1-0.4-4.9,0.1-4.9,0.1l0.1-3.7
		l4.7-0.2C692.6,215.1,692.8,219.3,692.7,219z M693.9,218.7c-0.1,0.4,0.1-3.9,0.1-3.9l4.7,0.2l0.1,3.7
		C698.8,218.9,694,218.4,693.9,218.7z M704.2,219.6c-0.2-0.2-3.8-0.6-3.8-0.6l0.2-3.6l3.7,1C704.3,216.3,704.4,219.8,704.2,219.6z
		 M804.4,309h-3.3v4.3h-2.1v-6.8l5.5-0.8V309z M809.6,312l-4,0.3c0,0,2.1-12.5,6.2-9.8L809.6,312z M854.2,312.5h-3.3c0,0,0-9,3.3-8
		V312.5z"/>
	<polygon class="st20" points="932.2,277 934.9,277 939.4,277 939.4,275 934.9,275 932.2,275 	"/>
	<polygon class="st20" points="932.2,280.7 934.9,280.7 939.4,280.7 939.4,278.7 934.9,278.7 932.2,278.7 	"/>
	<polygon class="st20" points="932.2,284.4 934.9,284.4 939.4,284.4 939.4,282.4 934.9,282.4 932.2,282.4 	"/>
	<polygon class="st20" points="932.2,288 934.9,288 939.4,288 939.4,286 934.9,286 932.2,286 	"/>
	<polygon class="st20" points="932.4,291.7 934.9,291.7 939.5,291.7 939.5,289.7 934.9,289.7 932.4,289.7 	"/>
	<polygon class="st20" points="932.4,295.4 934.9,295.4 939.5,295.4 939.5,293.4 934.9,293.4 932.4,293.4 	"/>
	<polygon class="st20" points="932.4,299 934.9,299 939.5,299 939.5,297 934.9,297 932.4,297 	"/>
	<polygon class="st20" points="932.4,302.7 934.9,302.7 939.5,302.7 939.5,300.7 934.9,300.7 932.4,300.7 	"/>
	<polygon class="st20" points="932.4,306.2 934.9,306.2 939.5,306.2 939.5,304.2 934.9,304.2 932.4,304.2 	"/>
	<polygon class="st20" points="932.4,309.9 934.9,309.9 939.5,309.9 939.5,307.9 934.9,307.9 932.4,307.9 	"/>
	<polygon class="st20" points="932.4,313.5 934.9,313.5 939.5,313.5 939.5,311.5 934.9,311.5 932.4,311.5 	"/>
	<polygon class="st20" points="932.4,317.2 934.9,317.2 939.5,317.2 939.5,315.2 934.9,315.2 932.4,315.2 	"/>
	<polygon class="st20" points="932.5,320.9 934.9,320.9 939.7,320.9 939.7,318.9 934.9,318.9 932.5,318.9 	"/>
	<polygon class="st20" points="932.5,324.5 934.9,324.5 939.7,324.5 939.7,322.5 934.9,322.5 932.5,322.5 	"/>
	<polygon class="st20" points="932.5,328.2 934.9,328.2 939.7,328.2 939.7,326.2 934.9,326.2 932.5,326.2 	"/>
	<polygon class="st20" points="932.5,331.9 934.9,331.9 939.7,331.9 939.7,329.9 934.9,329.9 932.5,329.9 	"/>
	<polygon class="st20" points="168,305.5 170.5,305.5 175.2,305.5 175.2,303.5 170.5,303.5 168,303.5 	"/>
	<polygon class="st20" points="168,309.2 170.5,309.2 175.2,309.2 175.2,307.2 170.5,307.2 168,307.2 	"/>
	<polygon class="st20" points="168,312.9 170.5,312.9 175.2,312.9 175.2,310.9 170.5,310.9 168,310.9 	"/>
	<polygon class="st20" points="168,316.5 170.5,316.5 175.2,316.5 175.2,314.5 170.5,314.5 168,314.5 	"/>
	<polygon class="st20" points="168.2,320.2 170.5,320.2 175.3,320.2 175.3,318.2 170.5,318.2 168.2,318.2 	"/>
	<polygon class="st20" points="168.2,323.9 170.5,323.9 175.3,323.9 175.3,321.9 170.5,321.9 168.2,321.9 	"/>
	<polygon class="st20" points="168.2,327.5 170.5,327.5 175.3,327.5 175.3,325.5 170.5,325.5 168.2,325.5 	"/>
	<polygon class="st20" points="168.2,331.2 170.5,331.2 175.3,331.2 175.3,329.2 170.5,329.2 168.2,329.2 	"/>
	<polygon class="st20" points="168.2,334.7 170.5,334.7 175.3,334.7 175.3,332.7 170.5,332.7 168.2,332.7 	"/>
	<polygon class="st20" points="168.2,338.4 170.5,338.4 175.3,338.4 175.3,336.4 170.5,336.4 168.2,336.4 	"/>
</g>
<path class="st20" d="M724.1,197.3l-0.5,0c0-0.4,0-0.7-0.1-1.1l0.4,0l0-0.5l-0.5,0c-0.1-0.4-0.3-0.7-0.6-1.1
	c-0.1-0.1-0.1-0.2-0.2-0.2l0.5-0.1l-0.1-0.5l-0.8,0.1c-0.4-0.4-0.9-0.8-1.5-1.2l0.5-0.1l-0.1-0.5l-1,0.2c-0.7-0.4-1.6-0.8-2.5-1.2
	l0.5-0.1l-0.1-0.5L717,191c-1-0.4-2.1-0.7-3.3-1l0.7-0.4l-0.2-0.4l-1.3,0.6c-3.2-0.7-6.6-1.2-9.1-1.4c-8.6-0.8-18.5-0.4-25.2,1
	c-2.5,0.5-4.5,1.1-6.2,1.7l-0.8-0.3l-0.2,0.5l0.3,0.1c-1,0.4-1.9,0.8-2.7,1.2l-1.1-0.2l-0.1,0.5l0.5,0.1c-0.6,0.4-1.2,0.8-1.6,1.1
	l-1-0.2l-0.1,0.5l0.6,0.1c-0.5,0.4-0.8,0.9-1.1,1.3l-0.5-0.1l-0.1,0.5l0.3,0c-0.1,0.1-0.1,0.2-0.2,0.4c-0.1,0.3-0.2,0.6-0.2,0.8
	l-0.7,0l0,0.5l0.7,0c-0.1,1.3,0.5,2.2,0.5,2.3l0.4-0.3v0c0,0-0.5-0.8-0.5-2l4.6,0.2l0-0.5l-4.6-0.2c0-0.2,0.1-0.4,0.2-0.7
	c0.1-0.2,0.1-0.3,0.2-0.5l6.2,0.7l0.1-0.5l-6-0.7c0.3-0.4,0.6-0.8,1.1-1.3l7.6,1.1l0.1-0.5l-7.2-1.1c0.5-0.4,1-0.7,1.7-1.1l6.8,1.4
	l0.1-0.5l-6.3-1.3c0.8-0.4,1.6-0.7,2.6-1.1l5.7,2.2l0.2-0.5l-5.1-2c1.5-0.5,3.4-1,5.6-1.4c9.1-1.8,23.6-1.9,33.6,0.3l-4.2,2.1
	l0.2,0.4l4.7-2.3c1.1,0.3,2.2,0.6,3.2,0.9l-5.5,1.7l0.1,0.5l6.1-1.9c0.9,0.3,1.7,0.7,2.5,1.1l-6.8,1.4l0.1,0.5l7.3-1.6
	c0.6,0.4,1.1,0.7,1.5,1.1l-7.3,0.9l0.1,0.5l7.7-1c0.1,0.1,0.3,0.3,0.4,0.5c0.2,0.3,0.3,0.5,0.4,0.8l-6,0.3l0,0.5l6.2-0.3
	c0.1,0.3,0.1,0.7,0.1,1l-3.5-0.1l0,0.5l3.5,0.1c-0.1,0.5-0.2,1-0.5,1.5l0.4,0.2c0.3-0.6,0.5-1.1,0.5-1.7l0.5,0L724.1,197.3z"/>
</svg>
