<?xml version="1.0" encoding="utf-8"?>
<!-- Generator: Adobe Illustrator 19.0.1, SVG Export Plug-In . SVG Version: 6.00 Build 0)  -->
<svg version="1.1" xmlns="http://www.w3.org/2000/svg" xmlns:xlink="http://www.w3.org/1999/xlink" x="0px" y="0px"
	 viewBox="0 0 130.8 70.3" style="enable-background:new 0 0 130.8 70.3;" width="483" height="259" xml:space="preserve">
<style type="text/css">
	.st0{fill:none;stroke:#8EC220;stroke-width:8;}
	.st1{fill:#95C62E;}
</style>
<g id="Layer_2">
	<path class="st0" d="M126.8,58.6c0,4.2-3.5,7.7-7.9,7.7h-107c-4.3,0-7.9-3.4-7.9-7.7V11.7C4,7.4,7.5,4,11.9,4h107
		c4.3,0,7.9,3.4,7.9,7.7V58.6z"/>
</g>
<g id="Layer_3">
	<g>
		<g>
			<path class="st1" d="M43.7,28.6c0,3.5-1.1,6.1-3.2,7.9c-2.2,1.8-5.2,2.7-9.2,2.7h-2.9v11.4h-6.8V18.6h10.3c3.9,0,6.9,0.8,8.9,2.5
				C42.7,22.8,43.7,25.3,43.7,28.6z M28.4,33.7h2.2c2.1,0,3.7-0.4,4.7-1.2c1-0.8,1.6-2,1.6-3.6c0-1.6-0.4-2.8-1.3-3.5
				c-0.9-0.8-2.2-1.1-4.1-1.1h-3.1V33.7z"/>
			<path class="st1" d="M56.6,38.4v12.3h-6.8V18.6h9.4c4.4,0,7.6,0.8,9.7,2.4c2.1,1.6,3.1,4,3.1,7.2c0,1.9-0.5,3.6-1.6,5
				c-1,1.5-2.5,2.6-4.4,3.5c4.8,7.2,8,11.9,9.5,14h-7.6l-7.7-12.3H56.6z M56.6,32.9h2.2c2.2,0,3.7-0.4,4.8-1.1
				c1-0.7,1.5-1.8,1.5-3.4c0-1.5-0.5-2.6-1.6-3.2c-1-0.6-2.7-1-4.9-1h-2.1V32.9z"/>
			<path class="st1" d="M108.7,34.6c0,5.3-1.3,9.4-4,12.3c-2.6,2.9-6.4,4.3-11.3,4.3c-4.9,0-8.7-1.4-11.3-4.3c-2.6-2.9-4-7-4-12.3
				s1.3-9.4,4-12.2c2.6-2.8,6.4-4.2,11.4-4.2c4.9,0,8.7,1.4,11.3,4.3C107.4,25.2,108.7,29.3,108.7,34.6z M85.2,34.6
				c0,3.6,0.7,6.3,2,8.1c1.4,1.8,3.4,2.7,6.1,2.7c5.4,0,8.2-3.6,8.2-10.8c0-7.2-2.7-10.9-8.1-10.9c-2.7,0-4.8,0.9-6.1,2.7
				C85.9,28.3,85.2,31,85.2,34.6z"/>
		</g>
	</g>
</g>
</svg>
